<svg width="314" height="65" viewBox="0 0 314 65" fill="none" xmlns="http://www.w3.org/2000/svg">
<path d="M312.589 30.6539C312.44 29.8777 312.325 29.0446 312.3 28.1425C312.297 27.9169 312.288 27.6914 312.279 27.4547C312.253 27.2238 312.232 26.9928 312.206 26.7563C312.159 26.2776 312.112 25.7932 312.064 25.2919C312.038 25.0441 312.017 24.7849 311.985 24.5316C311.93 24.2786 311.874 24.0255 311.825 23.7724C311.709 23.2608 311.587 22.7437 311.442 22.2212C311.319 21.6928 311.066 21.2001 310.835 20.6902C310.593 20.1861 310.334 19.6935 310.041 19.207C309.53 18.374 309.097 17.7372 308.712 17.1957C308.524 16.922 308.321 16.6881 308.111 16.4711C307.908 16.2541 307.716 16.0482 307.524 15.8479C307.129 15.4532 306.785 15.0408 306.332 14.6074C306.082 14.3741 305.821 14.124 305.548 13.8403C305.273 13.489 304.993 13.1489 304.702 12.8147C304.672 12.7193 304.683 12.6684 304.734 12.6563C304.814 12.6326 304.97 12.7093 305.132 12.8311C305.462 13.0632 305.868 13.4352 305.868 13.4352C305.616 13.0215 305.387 12.6243 305.118 12.2842C304.839 11.9498 304.559 11.638 304.269 11.3376C303.978 11.0372 303.682 10.7482 303.374 10.4594C303.043 10.1878 302.685 9.93913 302.314 9.67375C302.689 9.80935 302.489 9.46818 302.184 8.95932C301.042 8.01134 301.048 8.8009 299.637 7.46763C300.015 7.50728 300.537 7.51666 301.239 7.79415C300.465 7.34847 299.709 6.90255 298.902 6.53632C298.078 6.19854 297.271 5.83795 296.441 5.48333C296.283 5.26564 296.598 5.2498 297.001 5.37935C297.403 5.50325 297.927 5.70436 298.261 5.78978C297.794 5.56529 297.28 5.27942 296.726 5.03361C296.156 4.81624 295.575 4.5934 295.034 4.40382C294.763 4.3062 294.498 4.21979 294.251 4.1444C294.004 4.07465 293.757 4.03874 293.544 4.00233C293.114 3.93523 292.782 3.92312 292.599 3.97652L293.476 4.40943C293.279 4.23743 293.66 4.08526 294.097 4.16355C295.838 4.55576 296.319 5.34973 296.321 5.53018L295.118 5.09636C295.312 5.45453 295.695 5.74794 296.197 6.01705C296.688 6.30889 297.276 6.61624 297.933 6.90003C298.256 7.04765 298.607 7.17794 298.936 7.34803C299.259 7.52385 299.589 7.70522 299.912 7.88103C300.547 8.24975 301.199 8.58438 301.652 9.04033C301.32 8.99438 300.981 8.96543 300.637 8.94785C295.72 5.13841 291.275 3.00384 284.53 3.10141L284.272 3.10513C284.395 2.84391 284.574 2.5875 284.605 2.33888C284.772 2.39287 285.018 2.42314 285.368 2.41809L286.105 1.88288L284.514 1.97921C284.269 1.65562 283.537 1.36726 281.736 1.14514L278.96 1.66473L278.055 1.29427L280.397 1.23783C279.063 0.896143 278.226 1.22975 277.284 1.45771C277.058 1.25793 276.667 1.12258 276.11 1.05166L273.39 1.84118C273.053 1.53583 274.606 1.21443 272.772 1.06612C271.494 1.4343 274.007 1.74201 271.892 1.99822C270.552 1.65661 270.938 1.36338 269.379 1.69051C269.158 1.49065 269.483 1.35623 270.106 1.25697C268.718 1.51958 266.425 1.41173 265.716 1.83939C264.324 1.41958 261.022 2.02009 261.149 1.27373C260.716 1.46048 258.707 1.89565 257.43 1.94232C259.753 1.01754 247.313 1.62921 247.912 0.661687C246.194 1.48746 241.676 1.10724 238.624 1.59696C238.795 1.53244 239.131 1.39786 239.401 1.43344C237.677 1.3907 237.175 1.15542 236.062 1.01923C235.848 1.68788 233.171 1.87326 231.728 2.30588C229.606 1.69922 232.999 1.50912 232.326 0.904058C232.443 1.43821 228.664 1.49287 229.392 1.92793C227.771 1.55654 227.997 1.75632 227.159 1.22133C226.891 2.05435 225.655 1.3841 224.329 1.91092C221.987 1.53869 223.716 1.14141 221.155 1.43228C219.931 1.19616 222.206 0.869958 222.206 0.869958C219.589 0.896532 220.989 1.49671 220.439 1.86566C217.321 2.08561 218.99 1.42411 217.92 1.12373C215.976 1.31542 214.49 1.91224 213.035 1.91072C212.925 1.81079 212.643 1.77537 212.974 1.64087C210.92 2.16693 206.859 1.75188 204.469 2.41253C204.29 2.35871 204.198 2.30928 204.152 2.26483C204.546 2.57499 204.607 2.88996 204.53 3.11669C203.357 3.14494 202.36 3.5429 201.914 3.14326C202.629 3.14418 202.69 2.97974 203.026 2.84515L201.803 3.03769C200.69 2.4672 203.478 2.81041 203.472 2.37619C201.081 2.60255 198.3 3.12785 196.459 2.9909C196.067 2.42126 200.745 2.73714 198.293 2.25934L201.136 2.43818C198.953 1.56167 202.86 2.47528 200.854 1.53417C197.118 1.419 196.678 1.88787 192.954 1.77253C192.117 2.10614 193.236 2.24225 192.404 2.57013C187.116 3.22194 188.215 1.1868 184.332 2.01005C183.33 2.40809 182.951 3.14118 180.174 2.7978L181.11 2.13563C177.49 2.12595 179.056 3.10163 175.265 2.71653C175.937 2.45299 178.102 2.46116 177.557 2.39008C175.093 1.91244 175.827 2.78172 173.938 2.80905L173.54 2.23949C169.694 2.38537 165.457 2.86405 161.193 3.02726C161.425 2.85469 162.155 2.66363 161.156 2.50323C155.784 2.8686 149.675 2.60163 144.483 2.33268L142.509 2.85758C142.05 2.85857 141.652 2.64436 142.149 2.54128C140.125 2.38443 142.05 2.85857 141.08 3.06438C139.929 3.11487 139.558 2.79873 140.283 2.6416C136.722 3.11613 130.133 3.69652 126.369 3.22077L127.1 3.06355C124.171 2.90286 123.811 4.12639 121.09 3.70324L121.61 3.60548C115.251 3.48313 108.238 4.0358 103.383 3.3615C102.471 4.09101 97.0913 3.13101 96.6935 4.13511C93.0561 3.69138 94.0957 3.50149 88.9834 3.24266C87.62 3.21726 86.9597 3.89237 85.2722 4.02395L85.2246 3.50572L82.9421 4.08585L81.7135 3.47755L80.1351 3.63575C80.7654 3.65483 81.4784 3.85321 81.3832 4.00124C78.913 4.27387 75.3544 3.72747 75.2875 3.4577L69.4477 3.98212C69.5428 3.82281 70.1028 3.73575 70.7028 3.64246C68.5768 3.94959 70.5279 3.03583 67.8948 3.52515C68.2802 3.63802 67.6932 3.83829 67.626 3.94643C66.1957 3.65126 62.9492 3.69822 60.5519 3.86262L61.0048 3.49509C56.669 3.46756 51.8631 3.80218 46.996 3.8613C48.7448 4.00522 48.353 4.63132 46.9281 4.71398L46.3476 4.16962C45.4306 4.52131 47.8393 4.35674 45.9558 4.80137C44.1341 4.76567 44.7214 4.19314 45.7666 3.99753L43.5592 4.22124C43.4252 4.0596 43.9449 3.96184 44.0736 3.75129C43.1739 4.10836 40.2522 3.25381 38.9495 3.86489L38.8212 3.70318C36.3877 3.73838 34.6191 3.80908 32.9651 3.88377C32.1351 3.91834 31.3396 3.95805 30.4983 3.99278C30.0805 4.01011 29.6454 4.02204 29.1989 4.03978C28.7354 4.0634 28.2149 4.11042 27.6885 4.14623C27.6384 4.64331 25.9593 4.56607 24.7889 5.21472C24.4058 5.2541 24.017 5.29921 23.6224 5.33876C23.4222 5.35858 23.2278 5.37831 23.0276 5.39813C22.8334 5.43478 22.6336 5.47715 22.4337 5.51389C21.6343 5.67774 20.8058 5.81381 19.9669 6.01772C19.1458 6.26649 18.302 6.53251 17.4472 6.82689C16.616 7.16606 15.7858 7.57853 14.95 7.99673C13.8554 8.73453 13.7727 8.96134 13.814 9.04535C13.8612 9.14055 14.0618 9.14893 13.6441 9.57236C13.5458 9.5061 13.2777 9.57766 12.9474 9.70652C12.7822 9.77096 12.6058 9.84683 12.4295 9.93399C12.2532 10.0211 12.0944 10.125 11.9353 10.2119C11.3219 10.5705 10.9185 10.7906 11.5955 10.0814C9.78793 11.4218 10.5619 12.5621 9.4614 13.6891C8.95472 14.2943 8.43136 14.9336 7.82381 15.6926C7.53742 16.0859 7.2633 16.5355 6.94386 17.0195C6.78705 17.2643 6.62459 17.5149 6.45092 17.7825C6.36691 17.9134 6.27725 18.0501 6.18768 18.1924C6.10964 18.3402 6.03168 18.4936 5.95372 18.647C6.39405 18.2063 6.89696 17.7365 6.80476 18.0932C6.51862 18.5034 6.22781 18.9871 5.92891 19.3073C5.64154 19.6329 5.39221 19.817 5.33905 19.705L5.43852 19.4554C4.11648 22.289 2.49037 25.4824 1.55431 28.8689C0.606465 32.233 0.478805 35.6811 1.21284 38.124L1.12296 37.849L1.79523 40.3774C2.03634 41.2087 2.39156 42.0101 2.67814 42.8182C2.81251 43.3972 2.84981 43.5997 2.82142 43.617C2.78158 43.6345 2.67027 43.4613 2.57015 43.271C2.35267 42.8849 2.08251 42.4207 2.19282 43.3159C2.47148 43.9718 2.81787 44.559 3.08393 45.1361C3.36709 45.7073 3.58146 46.2739 3.8809 46.7829C4.45116 47.8012 4.86084 48.8049 5.43478 49.6821C5.70478 50.1351 5.96888 50.5768 6.23872 51.0185C6.49154 51.4717 6.84072 51.8558 7.15038 52.28C7.47134 52.6928 7.80948 53.1053 8.16479 53.5175C8.54841 53.9068 7.1934 54.1681 7.63419 54.5509C8.35288 56.3285 10.8813 58.5029 13.866 60.1462C16.8567 61.812 20.2461 62.9305 22.6008 63.7876L22.3895 63.4297C23.0424 63.4315 23.4051 63.5617 23.7282 63.7262C24.051 63.8682 24.3283 64.039 24.7937 64.1394C24.6927 63.8927 23.4641 63.6849 24.2766 63.628C24.9477 63.7029 25.6188 63.7722 26.2899 63.8471L26.7947 63.9018C26.9609 63.9107 27.1327 63.9082 27.3046 63.917L28.3244 63.9417C28.9946 63.9489 29.7112 64.0006 30.3409 63.9802C30.9822 63.971 31.6235 63.9673 32.2649 63.9637C34.8362 63.9547 37.4368 63.9904 40.0435 64.0486C45.2568 64.1649 50.4998 64.3542 55.6435 64.4152C59.4065 64.4397 57.7567 62.8278 62.5081 63.4754L61.1706 64.0532C68.7534 63.2723 76.6994 63.8511 84.1233 63.1741C83.6843 63.3101 83.6696 63.4796 82.948 63.4843C84.5228 63.8677 88.7544 63.4229 88.7782 63.0898C89.9354 63.1125 89.0516 63.3848 89.7641 63.5437C91.3421 63.7578 93.7074 62.9677 94.5493 63.3617C94.6415 63.4054 94.4245 63.4481 94.1845 63.4854C95.517 63.3533 98.5083 63.4736 97.6146 63.0635C100.406 63.2487 102.948 62.7777 105.179 63.0218C106.621 62.4764 109.958 63.2064 110.412 62.4554C110.222 63.2252 115.31 62.9993 117.069 62.6185C116.482 62.8583 118.607 62.8332 117.918 63.1646C119.934 63.1242 121.775 62.9565 121.415 62.5669C125.138 63.4268 128.859 61.7204 130.966 62.8631C136.938 62.3649 142.471 62.0085 147.845 61.7503C147.661 62.5144 141.902 61.9152 142.143 62.7127C147.24 62.3231 150.174 61.6264 155.238 61.7392C156.551 61.8218 154.499 62.0827 154.06 62.2188C159.151 61.8293 163.915 62.1439 168.444 61.6667C167.624 61.216 171.734 60.6659 172.234 60.3935C170.936 61.3486 176.738 60.5596 174.374 61.8347C174.962 61.7585 175.699 61.5843 175.558 61.3551C176.429 61.4101 176.712 61.5414 175.828 61.8193C179.026 61.5869 177.887 61.2311 180.784 61.2005C180.775 61.3698 180.192 61.4403 179.897 61.642C181.364 61.2936 182.831 60.9453 185.284 61.0508C185.159 61.1429 185.355 61.2472 184.926 61.2816C189.013 61.1435 191.945 60.3171 196.479 60.5617C195.127 61.3089 198.051 60.7815 198.307 61.4095L200.789 61.1875L199.788 60.8974C201.964 60.8772 203.881 60.387 205.757 60.5685L204.146 60.8513L208.221 60.6739L205.91 60.4704C208.11 60.1115 205.664 59.6731 208.563 59.806C207.974 59.8765 210.739 59.7801 211.878 60.1359L211.873 60.136C212.946 59.9231 214.048 59.6928 215.659 59.8274C216.08 60.0244 215.332 60.5315 215.609 60.6629C216.66 60.1175 220.702 60.4426 222.04 59.8592C221.595 59.9954 221.577 60.3284 221.721 60.394L222.608 59.9525C223.618 60.0733 223.768 60.1388 223.606 60.4062C226.641 60.4413 222.632 59.6194 226.233 59.9113C225.953 59.9492 226.085 60.0094 225.497 60.0856C229.112 60.2138 232.472 59.7139 235.796 59.8745C236.785 60.4976 232.896 60.0744 234.026 60.5939C238.811 60.4119 243.932 59.6892 248.566 59.7688L247.701 59.7136C248.329 58.8077 256.495 60.4407 258.831 59.9839C258.259 60.0598 258.088 60.491 258.241 60.3929C261.415 60.4936 264.725 60.0791 269.531 59.7276L268.939 59.9674C270.814 60.1433 273.865 60.0146 275.888 60.0925C276.485 59.8526 277.637 59.8754 276.933 59.5472C280.063 60.1449 283.01 59.9669 285.921 59.6653C286.658 59.5701 287.39 59.4749 288.116 59.3798C288.836 59.2622 289.543 59.0827 290.252 58.971C290.606 58.9038 289.182 58.7543 289.536 58.6815C289.884 58.5975 290.233 58.5248 290.587 58.4576C290.941 58.3904 291.295 58.3289 291.649 58.2843C292.01 58.2396 292.37 58.2006 292.724 58.1278C292.411 58.262 292.029 58.4198 291.796 58.5304C291.563 58.6465 291.478 58.7211 291.746 58.6495L292.334 58.4662L292.897 58.2268L294.024 57.748C294.394 57.5791 294.781 57.4381 295.139 57.2524L296.208 56.6673C295.684 56.4774 295.539 56.7616 294.487 56.8783C294.962 56.4428 296.062 55.671 297.102 55.154C296.223 55.7477 296.288 55.8765 296.711 55.8421C296.917 55.8166 297.231 55.7726 297.516 55.6726C297.807 55.5725 298.109 55.4666 298.337 55.39C298.142 55.3702 298.344 55.0909 298.211 55.0252C300.714 54.2613 298.183 54.2359 301.143 52.5969L301.129 52.8622C301.361 52.6445 301.599 52.4436 301.796 52.2039C301.993 51.9641 302.196 51.73 302.392 51.4902C302.786 51.0107 303.238 50.5755 303.713 50.1005C304.061 50.0447 303.894 50.3461 303.623 50.6602C303.347 50.9744 303.003 51.3404 303.097 51.5026C303.441 51.1592 303.78 50.8215 304.038 50.4117C304.29 50.0076 304.541 49.6034 304.788 49.2051C305.022 48.8012 305.309 48.453 305.55 48.0772C305.803 47.7126 306.084 47.3814 306.435 47.0999C306.246 47.4637 305.983 47.8792 305.714 48.3005C305.445 48.7161 305.112 49.0876 304.894 49.4404C305.314 49.1749 305.632 48.956 305.892 48.7604C306.13 48.5483 306.305 48.3653 306.468 48.1881C306.784 47.8338 307.019 47.492 307.481 46.9382L307.385 47.0467C307.475 46.9495 307.554 46.8525 307.639 46.7498C307.588 46.8125 307.532 46.881 307.481 46.9382C307.69 46.7208 307.87 46.487 308.038 46.242L308.566 45.5237C308.172 46.0144 307.909 46.4131 307.655 46.7213C307.914 46.3961 308.132 46.0488 308.38 45.7125L309.339 44.3449L308.776 45.0017C308.8 44.663 308.864 44.3518 308.928 44.0463C308.981 43.7297 309.057 43.424 309.15 43.1237C309.33 42.5232 309.602 41.9496 309.857 41.3424C310.077 40.7188 310.32 40.0779 310.522 39.3869C310.571 39.2113 310.62 39.0358 310.669 38.8602C310.7 38.6792 310.726 38.4871 310.746 38.3007C310.787 37.9222 310.81 37.527 310.81 37.1209C310.787 40.325 311.099 37.7315 311.551 38.0803C311.889 37.3027 312.352 36.0833 312.409 36.4661C312.34 35.6549 312.492 35.0209 312.659 34.2966C312.728 33.9346 312.843 33.555 312.825 33.1153C312.818 32.6811 312.771 32.1911 312.637 31.6403C312.808 31.5476 312.711 29.9697 313.111 30.3192C312.841 28.2757 312.872 30.8134 312.606 30.6367L312.589 30.6539ZM310.135 21.349C310.104 21.6032 310.05 21.8578 309.997 22.1068C309.787 21.4781 309.543 20.8612 309.294 20.25C309.462 20.366 309.712 20.6613 310.14 21.3489L310.135 21.349ZM301.545 9.52696L302.722 10.1586C302.899 10.4606 302.96 10.7643 302.772 10.8009C302.185 10.2397 301.57 9.70708 300.933 9.19738C301.141 9.30155 301.343 9.41143 301.551 9.52123L301.545 9.52696ZM161.155 3.21393C161.682 3.19503 162.128 3.17729 162.415 3.16751C162.151 3.17696 161.791 3.19346 161.155 3.21957L161.155 3.20829L161.155 3.21393ZM158.247 3.28984C158.427 3.45081 158.235 3.6228 157.719 3.62462C157.998 3.51341 156.789 3.43502 156.019 3.30514C156.644 3.31303 157.423 3.30741 158.247 3.28984ZM287.436 59.085C287.366 58.9845 287.306 58.8444 287.333 58.7086C287.905 58.6608 288.471 58.5962 289.031 58.5148C289.009 58.549 288.975 58.5833 288.93 58.6235C288.726 58.7731 288.288 58.9824 287.442 59.0849L287.436 59.085Z" fill="#42669B"/>
</svg>
