<svg width="9" height="17" viewBox="0 0 9 17" fill="none" xmlns="http://www.w3.org/2000/svg">
<path d="M0.248998 16.0061C0.114482 15.4771 0.655409 15.5679 0.649685 15.1453C0.658271 15.1077 0.812821 15.3362 0.821407 15.236C0.767029 14.7727 1.20206 14.6099 1.61133 14.5661L1.64568 14.6319C1.72295 14.6225 1.61706 14.3939 1.68575 14.3658C1.71723 14.4002 1.71723 14.4315 1.77161 14.4659C1.68861 14.3501 1.80881 14.3282 1.7573 14.228C1.81168 14.2499 1.88609 14.3345 1.95192 14.3532L1.86892 14.2061C1.68288 13.843 2.06354 14.0339 2.02633 13.7804C2.04636 13.8117 2.05781 13.8461 2.08929 13.8649C2.08929 13.5205 2.31826 13.3358 2.43846 13.0791C2.46995 13.1292 2.53291 13.2137 2.58729 13.2482C2.48139 13.1136 2.50715 13.0228 2.53291 12.9445C2.67315 13.051 2.50715 12.7379 2.62736 12.7473L2.65026 12.7817C2.56726 12.6002 2.78191 12.7943 2.66743 12.5939L2.78763 12.6659C2.63881 12.4656 2.9336 12.6941 2.88208 12.5657L2.84774 12.5282C2.83915 12.4499 2.93932 12.5219 2.94218 12.4593L2.96508 12.4781C2.99084 12.3529 3.12249 12.4092 2.9937 12.2715C3.12249 12.3591 2.97367 12.3967 3.16256 12.5188C3.25701 12.1212 3.52032 11.8927 3.74928 11.636C3.82656 11.6642 3.8609 11.6642 3.91528 11.7111C3.91242 11.6579 3.97825 11.589 3.93245 11.4951C3.92673 11.5076 4.01259 11.5515 4.03262 11.5452C4.12421 11.5515 3.93531 11.3386 4.04121 11.3511C4.05838 11.4075 4.09273 11.4607 4.14711 11.5076C4.08414 11.3542 4.15283 11.3135 4.16714 11.229C4.18145 11.2603 4.18431 11.2885 4.22724 11.3292C4.16428 11.1476 4.34459 11.2541 4.31597 11.1257L4.37321 11.2259C4.53634 11.2478 4.23869 11.0318 4.35317 11.0224C4.36176 11.0631 4.3961 11.0913 4.42472 11.1257C4.34745 10.9128 4.48483 10.8596 4.49628 10.7469C4.502 10.7626 4.5249 10.7845 4.5249 10.7845C4.57069 10.6968 4.67945 10.6718 4.68803 10.5309C4.74527 10.5403 4.86262 10.7407 4.90269 10.6374C4.751 10.4746 4.9542 10.4464 4.74527 10.3024C4.82541 10.268 4.97424 10.2304 4.95993 10.1334C4.99141 10.2241 5.17172 10.3024 5.13737 10.3681L5.2633 10.4276C5.32055 10.4996 5.20606 10.4464 5.29479 10.5184C5.31196 10.4871 5.32055 10.3462 5.36634 10.3494C5.31768 10.1991 5.18603 9.96744 5.23755 9.8704C5.2633 9.97057 5.42072 10.0301 5.42644 10.0833L5.23755 9.66066C5.25472 9.62622 5.36061 9.78587 5.35489 9.70448C5.31196 9.66379 5.30337 9.61996 5.28334 9.573C5.3091 9.58239 5.34344 9.42587 5.50085 9.573C5.56954 9.62622 5.49513 9.64813 5.57241 9.67944C5.61534 9.62935 5.56668 9.573 5.60675 9.52291L5.62678 9.54483C5.6783 9.53857 5.64968 9.38204 5.5352 9.32882C5.50944 9.34448 5.63251 9.41648 5.5581 9.40396C5.49227 9.28813 5.51803 9.20674 5.56096 9.15665C5.56954 9.20048 5.61247 9.24117 5.64682 9.29126C5.58958 9.1003 5.61534 8.99073 5.63251 8.86864C5.56382 8.79038 5.73554 9.03456 5.68975 9.00639C5.87006 9.02204 5.72409 8.66516 5.93589 8.74656C5.93589 8.7716 5.82999 8.64325 5.85002 8.66516C5.89868 8.63073 5.99885 8.74343 5.9874 8.67455C6.05037 8.73716 6.00171 8.61821 6.0103 8.56812C5.98168 8.50551 6.04751 8.59316 6.03033 8.62447C6.04751 8.49299 5.99026 8.35525 6.15054 8.3709C6.10188 8.33646 5.99026 8.2269 6.00171 8.22377L6.12192 8.29577C6.20492 8.32394 6.14482 8.25194 6.2593 8.30203C6.19061 8.25507 6.20492 8.29264 6.21923 8.33646C6.23354 8.38029 6.24785 8.43038 6.21064 8.37716C6.32512 8.42099 6.05895 8.22064 6.22209 8.31768C6.24212 8.28638 6.11047 8.20498 6.25643 8.23316C6.22781 8.23316 6.42816 8.32707 6.43961 8.2989C6.45392 8.24881 6.38523 8.26446 6.36519 8.21751L6.32226 8.18307C6.17916 8.1455 6.36805 8.15803 6.19347 8.12985C6.32226 8.15177 6.1534 8.0735 6.40812 8.12046L6.6056 8.16116C6.60847 8.13924 6.41671 8.09542 6.33371 8.0735C6.35374 8.0735 6.4024 8.0735 6.43388 8.07976C6.10761 8.0422 6.49398 8.04533 6.24785 8.01089C6.31654 8.0015 6.33657 7.98585 6.36519 7.9702C6.36519 7.95454 6.3795 7.93889 6.48254 7.92637C6.35374 7.90446 6.22209 7.90133 6.27074 7.87002C6.30509 7.87002 6.3194 7.87628 6.39095 7.87002C6.47109 7.84185 6.3795 7.84498 6.31654 7.84185C6.36805 7.84185 6.46823 7.77611 6.54836 7.72602C6.43388 7.71663 6.28792 7.77298 6.19061 7.79489C6.32512 7.74793 6.26216 7.74167 6.19919 7.74167C6.13623 7.74167 6.07899 7.74793 6.18202 7.68532C6.22209 7.67593 6.3423 7.66967 6.38523 7.61958C6.61133 7.47871 6.1534 7.65089 6.2364 7.5601L6.05037 7.67906C6.15626 7.59454 5.9044 7.70724 6.0933 7.58515C6.01889 7.61958 6.11333 7.50063 5.9502 7.63837C5.97595 7.6008 5.97309 7.57576 5.96451 7.5601C5.9502 7.53819 5.94733 7.54445 5.91013 7.50689C5.85575 7.45054 5.8214 7.37854 5.92158 7.20636C5.88437 7.21888 5.87292 7.15314 5.80709 7.2408C5.74985 7.35349 5.89582 7.21262 5.85002 7.28149C5.83285 7.2721 5.78992 7.3128 5.76989 7.33471C5.77275 7.26584 5.7613 7.22827 5.90726 7.1281C5.93016 6.95905 5.5953 7.31906 5.56668 7.16566C5.62965 7.10619 5.64682 7.07175 5.61247 7.0561L5.46365 7.11558C5.43217 7.03105 5.56668 6.93401 5.66685 6.82131C5.62106 6.80879 5.58958 6.76496 5.50085 6.8307L5.59244 6.65227C5.52661 6.78062 5.50658 6.69296 5.46937 6.70548L5.50944 6.69296C5.54665 6.63974 5.48654 6.63348 5.45792 6.62722C5.40068 6.69922 5.40927 6.76496 5.40927 6.80566C5.34917 6.83696 5.33772 6.80253 5.26617 6.83696C5.37206 6.73679 5.28906 6.70861 5.27475 6.67105C5.26903 6.61783 5.15455 6.73679 5.15168 6.72427C5.2032 6.66792 5.11734 6.66792 5.20893 6.61157C5.23468 6.60218 5.1803 6.68983 5.24041 6.6554C5.26044 6.59592 5.35203 6.49887 5.25186 6.53018C5.17458 6.55522 5.06296 6.75244 5.07441 6.62722C5.11162 6.6147 5.15455 6.574 5.20034 6.54896V6.43939L5.11162 6.53644C5.12879 6.50513 5.14024 6.502 5.14882 6.48322C5.04006 6.57087 5.04579 6.43313 4.92844 6.53957C4.8941 6.52392 4.93989 6.41435 4.92844 6.37678H4.93989C4.96565 6.28287 4.89124 6.27974 4.80538 6.32044L4.82541 6.30165C4.81683 6.27661 4.76531 6.25157 4.69376 6.28913C4.72238 6.17017 5.02003 5.90095 4.86262 5.97921C4.81969 5.93852 4.63365 6.09191 4.59359 6.17017C4.58214 6.02304 4.35317 6.09504 4.42472 5.86965C4.37893 5.89782 4.36176 5.92913 4.31883 5.92913C4.24728 5.7726 3.98683 5.80078 4.08128 5.5159C4.14997 5.50964 4.17286 5.41886 4.22438 5.36251C4.11849 5.42199 4.27876 5.23729 4.12993 5.37816C4.0498 5.46895 4.00973 5.50964 4.00687 5.57851C3.90097 5.5566 3.80366 5.45329 3.84373 5.3312C3.82369 5.39068 3.78649 5.40321 3.74642 5.41573C3.88094 5.27799 3.85518 5.20599 3.77218 5.21851L3.68918 5.2999L3.74642 5.1872C3.70635 5.19972 3.56611 5.35312 3.60618 5.23103C3.6348 5.19659 3.66342 5.15903 3.68059 5.12772C3.58042 5.15903 3.41728 5.22164 3.4459 5.10581L3.5289 4.94302C3.50028 4.93989 3.40011 4.98372 3.39725 5.05259C3.39725 4.90233 3.36577 4.84598 3.44304 4.71137C3.08242 4.84911 2.90498 4.67693 2.78477 4.50789L2.84774 4.44841C2.86777 4.34823 2.72467 4.54232 2.74184 4.46719C2.81053 4.4171 2.83629 4.30128 2.9336 4.25745C2.94505 4.13223 2.76474 4.29502 2.70177 4.28876C2.61877 4.36702 2.77905 4.26371 2.67315 4.36389C2.63881 4.38893 2.6617 4.21988 2.53577 4.33884C2.57012 4.2731 2.66457 4.19171 2.72181 4.14475L2.63308 4.17293C2.73039 3.97884 2.96794 4.00075 3.09673 3.77223L3.04808 3.7597C3.14253 3.59379 3.2656 3.69083 3.23411 3.56561C3.14539 3.59379 2.94505 3.75031 2.92215 3.83797C2.82198 3.8004 2.61019 4.11032 2.55008 4.02266C2.59874 3.92562 2.6245 4.06649 2.7075 3.9444C2.7676 3.80353 2.58729 3.92875 2.59015 3.85988C2.5787 3.9444 2.43274 4.04458 2.38981 4.04458C2.40984 3.9444 2.52433 3.94753 2.48426 3.87866C2.40698 3.9444 2.30967 3.94753 2.30395 4.04458C2.13223 4.19171 2.2925 3.93814 2.14654 4.03832C2.23812 3.90058 2.44991 3.82231 2.44705 3.70023C2.3526 3.82544 2.23526 3.77849 2.10933 3.98197C2.11791 3.92562 2.19805 3.83171 2.27819 3.77849C2.30967 3.67518 2.01202 3.90371 2.20664 3.66579L2.08929 3.77223C2.11505 3.72214 2.1265 3.67831 2.16657 3.59692C2.14081 3.56561 1.93188 3.6564 2.09502 3.48422C2.06926 3.49361 2.01202 3.41535 1.92616 3.56248C1.89754 3.68144 2.05209 3.52179 1.92616 3.71275C2.02061 3.54683 1.85174 3.66892 1.78878 3.6877L1.84602 3.6157C1.80881 3.62822 1.78878 3.57814 1.71437 3.64388C1.76016 3.6157 1.79737 3.56248 1.80309 3.53431L1.69433 3.62196C1.5913 3.61257 1.84888 3.42474 1.76588 3.39657L1.88036 3.36213C1.85461 3.36839 1.92616 3.25257 1.87178 3.2557C1.77447 3.33709 1.65426 3.43413 1.57699 3.49674C1.5083 3.50614 1.65999 3.37466 1.54264 3.4404L1.68575 3.36839C1.72009 3.34335 1.80309 3.1837 1.76016 3.13987C1.70292 3.143 1.53978 3.23691 1.5312 3.33396C1.5083 3.31205 1.5312 3.22439 1.61419 3.1743C1.53692 3.15552 1.52833 3.28387 1.43389 3.29952C1.47395 3.21813 1.50544 3.07413 1.55982 2.94891L1.74585 2.83621L1.72009 2.80491C1.87178 2.71726 1.79164 2.68908 1.93188 2.57638C1.93188 2.53569 1.86892 2.55447 1.8174 2.57012C1.67716 2.8456 1.48826 2.79552 1.32513 3.00839C1.20206 2.98022 1.7115 2.48247 1.35375 2.7016C1.3194 2.76734 1.14768 2.87378 1.24499 2.87065C1.21637 2.79865 1.0332 3.03343 1.05323 2.88943C1.16772 2.855 1.19061 2.64212 1.35661 2.59204C1.29365 2.65152 1.34516 2.67656 1.37092 2.6703C1.41958 2.57325 1.55409 2.47934 1.50544 2.42612C1.45964 2.4136 1.41385 2.3729 1.32799 2.47934C1.22782 2.59204 1.38523 2.5169 1.26216 2.60769C1.16772 2.58264 1.31368 2.40108 1.10761 2.57325C1.15913 2.5983 1.06182 2.72352 0.990268 2.79865H0.904407L0.981682 2.73291C0.961648 2.60456 0.83858 2.8456 0.789925 2.75169L0.892959 2.57012C1.02461 2.46056 0.938751 2.73291 1.1162 2.51377C1.08185 2.45743 0.970234 2.54821 0.97882 2.44803C1.00458 2.44177 1.02175 2.44803 1.04751 2.44177C1.03892 2.41673 1.27361 2.12873 1.06468 2.21951C0.975958 2.24768 0.990268 2.28525 0.918717 2.36038C0.827132 2.30716 0.735546 2.36038 0.678305 2.32595C0.824269 2.18507 0.612478 2.22577 0.801373 2.12559C0.744132 2.23829 0.85289 2.3416 1.00744 2.22264C1.14482 2.01603 1.03892 2.30716 1.21923 2.14438C1.16772 2.07864 1.33085 1.90646 1.4253 1.78124C1.41671 1.7562 1.35661 1.7875 1.33085 1.79689C1.22496 1.89707 1.24785 1.91898 1.14482 2.03168C1.11047 1.93464 0.99313 1.92837 0.864338 1.99725C0.892959 1.92211 0.998854 1.81881 1.0332 1.83759C0.930165 1.7875 0.864338 1.68733 0.824269 1.57776C0.706926 1.80316 0.706926 1.53393 0.603892 1.7155C0.603892 1.79689 0.523755 1.95655 0.429307 2.01603C0.414997 1.97846 0.500858 1.9409 0.526617 1.89081C0.409273 1.95342 0.621064 1.6842 0.452203 1.80629C0.572409 1.82194 0.661133 1.60594 0.801373 1.48072C0.681167 1.50576 0.892959 1.38367 0.844304 1.33045C0.724098 1.3555 0.609616 1.34924 0.529479 1.32106C0.580996 1.11445 0.360618 1.1301 0.294791 1.06749C0.326273 0.964187 0.492272 0.829577 0.480824 0.763837C0.437893 0.72314 0.354894 0.964187 0.36348 0.829577L0.397825 0.804533C0.346308 0.820185 0.386376 0.579138 0.163137 0.78262L0.337722 0.632357C0.337722 0.604182 0.294791 0.632357 0.269032 0.638618C0.317687 0.582269 0.352032 0.519659 0.403549 0.500876C0.472238 0.344353 0.309101 0.435136 0.263308 0.39444L0.197481 0.52279C0.0572409 0.52592 0.100172 0.375657 0.00286204 0.338092L0.0944476 0.241047L0 0.256699C0.0973096 0.172176 0.117344 0.072001 0.0228964 0.12835L0.346308 0C0.320549 0.0907839 0.206067 0.0845229 0.137378 0.200351C0.0744132 0.300526 0.160275 0.341222 0.257584 0.25983C0.243274 0.222264 0.22324 0.244177 0.171723 0.25983C0.289067 0.115828 0.320549 0.159654 0.420721 0.0876534C0.403549 0.0782619 0.423583 0.0187829 0.380652 0.0594791C0.466514 0.0187829 0.500858 0.0344353 0.543789 0.0751315C0.466514 0.0970448 0.480824 0.175307 0.435031 0.203481C0.549513 0.0876534 0.621064 0.0907839 0.641099 0.181568C0.549513 0.360005 0.815683 0.19409 0.83858 0.297395C0.704064 0.39444 0.583858 0.45705 0.50372 0.469572C0.483686 0.569747 0.546651 0.510268 0.526617 0.610443C0.626788 0.538442 0.767029 0.413223 0.864338 0.410093L0.784201 0.504007C0.870062 0.504007 0.990268 0.372527 1.02175 0.45705C1.07613 0.604182 1.17058 0.710619 1.23354 0.798272L1.1534 0.892186C1.36806 0.745054 1.35089 0.967318 1.48254 0.939144C1.49399 1.12384 1.76016 1.07062 1.66571 1.2741C1.88895 1.38054 2.09216 1.46819 2.22953 1.68107L2.08071 1.78124C2.19805 1.71863 2.03205 1.87829 2.08071 1.89081C2.14367 1.74994 2.24384 1.80002 2.33829 1.74368C2.32112 1.92524 2.51574 1.91898 2.66457 1.9002L2.58443 1.99411C2.80481 1.89707 2.75043 2.13186 2.80767 2.25081C2.78191 2.29777 2.72181 2.39795 2.75615 2.41673C2.9336 2.31968 2.94791 2.35725 3.09673 2.33847C3.14539 2.39169 3.19118 2.51377 3.18832 2.62334C3.55466 2.61708 3.62049 2.94891 3.921 3.03343L3.838 3.15239C4.22724 3.12735 4.26445 3.57501 4.5249 3.63135L4.34459 3.79414C4.34459 3.90371 4.49914 3.86927 4.60503 3.7284C4.60503 3.83797 4.80824 3.77536 4.70234 3.95692C4.72238 4.04458 4.83972 3.94127 4.90269 3.96319C4.93989 4.14162 4.99141 4.16667 5.11734 4.23554L5.10303 4.19797C5.05724 4.22615 4.98569 4.30128 4.99713 4.33884C5.07727 4.32632 5.083 4.5298 5.24327 4.27623C5.22896 4.51102 5.56954 4.43276 5.51516 4.70824C5.56096 4.63937 5.5953 4.65502 5.64109 4.62685C5.73268 4.72076 5.71551 4.94302 5.87578 4.92111C5.86147 4.96494 5.7613 4.99624 5.79278 5.0432C5.83571 5.0432 5.86433 4.96807 5.91871 4.96181C6.16199 5.00877 6.10475 5.39381 6.26216 5.50651C6.59702 5.64738 6.78591 5.96669 7.02633 6.19209L6.98339 6.23278C7.04064 6.21087 7.06926 6.22339 7.08643 6.25156C7.09788 6.27035 7.13508 6.34861 7.14939 6.3987C7.19232 6.50826 7.23239 6.59592 7.42129 6.55209C7.40984 6.62096 7.52146 6.69922 7.40125 6.73679C7.5186 6.74931 7.56153 6.84949 7.60732 6.94966C7.65598 7.04984 7.70463 7.14375 7.88208 7.19071C7.87349 7.17506 7.85346 7.16879 7.81339 7.16253C7.82197 7.36288 8.14825 7.4568 8.16828 7.65089C8.12249 7.63837 8.07383 7.61019 7.99942 7.61645C7.91642 7.69159 8.44018 7.73541 8.11963 7.79802C8.15397 7.83246 8.32283 7.81054 8.29135 7.78863C8.32569 7.85437 8.36863 7.91698 8.423 7.97959C8.12821 8.27385 7.99656 8.61508 7.73611 8.97821C7.32112 9.18169 7.28677 8.76847 7.28391 9.08152C7.22381 9.069 7.36405 9.15352 7.31253 9.12221C7.30108 9.25056 6.94619 9.05647 7.01774 9.19734C7.17229 9.285 7.06067 9.29439 7.13795 9.36326C7.0206 9.40709 6.93188 9.40709 6.86891 9.41961C6.81167 9.42587 6.79164 9.44152 6.79736 9.53231L6.74012 9.46031C6.82884 9.74205 6.63995 9.74831 6.76874 10.0457C6.33943 10.5935 6.00744 11.2009 5.57813 11.7236C5.09158 12.1713 4.74527 12.7504 4.18431 13.1292C3.91528 13.0697 3.91242 13.0823 3.8609 13.2826C3.838 13.2482 3.84087 13.2357 3.80938 13.2169C3.93531 13.3671 3.7407 13.3202 3.85518 13.4704C3.66342 13.627 3.54321 13.8367 3.37149 14.0277C3.3858 13.9807 3.28849 13.8492 3.2656 13.8931L3.31711 14.0214L3.27418 13.987C3.27418 14.0339 3.31139 14.131 3.37722 14.1529C3.05667 14.7539 2.36405 14.9293 1.97195 15.4301C1.81454 15.4802 1.72295 15.6931 1.63995 15.8434C1.13623 16.0061 0.701202 16.1689 0.495134 16.6667C0.495134 16.6667 0.194619 16.2441 0.25186 16.0093L0.248998 16.0061Z" fill="#1E314C"/>
</svg>
