<svg width="31" height="26" viewBox="0 0 31 26" fill="none" xmlns="http://www.w3.org/2000/svg">
<path fill-rule="evenodd" clip-rule="evenodd" d="M15.3786 9.02199C16.0311 9.02199 16.5599 9.55941 16.5599 10.2224V15.0239C16.5599 15.6868 16.0311 16.2242 15.3786 16.2242C14.7262 16.2242 14.1973 15.6868 14.1973 15.0239V10.2224C14.1973 9.55941 14.7262 9.02199 15.3786 9.02199Z" fill="#10FFB5"/>
<path fill-rule="evenodd" clip-rule="evenodd" d="M15.3786 18.5499C16.0311 18.5499 16.5599 19.0874 16.5599 19.7503C16.5599 20.4133 16.0311 20.9508 15.3786 20.9508C14.7262 20.9508 14.1973 20.4134 14.1973 19.7505C14.1973 19.0875 14.7262 18.5499 15.3786 18.5499Z" fill="#10FFB5"/>
<path fill-rule="evenodd" clip-rule="evenodd" d="M15.3786 0.619385C15.7806 0.619385 16.155 0.827073 16.3723 1.17065L30.5481 23.5776C30.7818 23.947 30.7984 24.4165 30.5913 24.8019C30.3842 25.1873 29.9866 25.4271 29.5544 25.4271H1.2028C0.770669 25.4271 0.37302 25.1873 0.165946 24.8019C-0.0411276 24.4165 -0.0245759 23.947 0.209104 23.5776L14.3849 1.17065C14.6023 0.827073 14.9767 0.619385 15.3786 0.619385ZM3.36658 23.0263H27.3907L15.3786 4.03955L3.36658 23.0263Z" fill="#10FFB5"/>
</svg>
