<svg width="45" height="45" viewBox="0 0 45 45" fill="none" xmlns="http://www.w3.org/2000/svg">
<g clip-path="url(#clip0_13062_8019)">
<path d="M38.8074 38.9244C38.9167 38.8707 38.9934 38.8291 38.995 38.6613C38.9958 38.5529 39.1794 38.447 39.3034 38.3158C39.2194 38.5651 39.2071 38.799 38.942 38.935C38.8008 39.0075 38.6891 39.1746 38.5789 39.309C38.4688 39.4426 38.3603 39.5176 38.1832 39.4662C38.2061 39.432 38.2322 39.3937 38.2689 39.3383C38.233 39.3497 38.211 39.3497 38.1987 39.3611C37.9409 39.6072 37.6309 39.8068 37.4889 40.1563C37.4718 40.1979 37.4253 40.2297 37.3959 40.1857C37.2727 39.9975 37.2409 40.1604 37.1797 40.2337C37.0859 40.347 36.9521 40.3894 36.8085 40.4521C36.8469 40.1433 37.2711 40.25 37.2874 39.9372C37.1797 39.9258 37.1096 40.0056 37.0296 40.0553C36.926 40.1197 36.8281 40.193 36.722 40.2541C36.585 40.3331 36.5997 40.325 36.6347 40.4513C36.6527 40.5165 36.6046 40.6436 36.5409 40.6558C36.3264 40.6957 36.2554 40.8652 36.1558 41.0159C36.1191 41.0721 36.0685 41.1194 35.991 41.1512C35.9788 41.0591 36.0718 41.0306 36.0987 40.9418C35.876 41.0599 35.6851 41.1935 35.4991 41.3353C35.4379 41.3817 35.3865 41.4323 35.3025 41.3769C35.2339 41.332 35.1948 41.3866 35.1499 41.4323C35.0757 41.508 35.0185 41.6042 34.9141 41.649C34.8766 41.5936 34.9223 41.5561 34.9361 41.5145C34.9557 41.4551 35.03 41.385 34.9631 41.3369C34.9027 41.2929 34.8162 41.3622 34.7926 41.4103C34.6889 41.6156 34.4197 41.6873 34.3895 41.9586C34.2745 41.7785 34.21 41.7753 34.0771 41.9162C33.9898 42.0083 33.9571 42.1444 33.8372 42.2201C33.7931 42.1737 33.8764 42.0963 33.8037 42.0694C33.7491 42.049 33.6977 42.0857 33.6512 42.1101C33.5125 42.1835 33.435 42.3098 33.3697 42.4466C33.3567 42.4735 33.364 42.5346 33.3085 42.5216C33.2783 42.5143 33.2481 42.4882 33.2277 42.4621C33.1927 42.4157 33.2408 42.3929 33.2653 42.3643C33.3338 42.2878 33.4391 42.2397 33.4741 42.111C33.2791 42.146 33.1723 42.2658 33.0629 42.3969C32.9748 42.5037 32.9243 42.6837 32.7015 42.5941C32.6305 42.5656 32.5718 42.7057 32.5335 42.7905C32.5881 42.7782 32.4535 42.9387 32.5946 42.8548C32.6346 42.8312 32.7105 42.8059 32.7211 42.9029C32.602 42.9436 32.5139 43.0129 32.4478 43.1278C32.376 43.2532 32.3009 43.2573 32.1418 43.1995C32.1157 43.1897 32.0782 43.2133 32.0456 43.2215C31.8547 43.2687 31.6662 43.3412 31.4737 43.3535C31.3358 43.3624 31.1995 43.3339 31.0698 43.4186C31.1522 43.4635 31.2265 43.3673 31.3211 43.4309C30.9703 43.6248 30.7492 44.0183 30.2923 44.0142C29.9962 44.2619 29.6249 44.2913 29.2684 44.3605C29.2015 44.3735 29.1077 44.4526 29.0489 44.3214C29.0375 44.2953 28.9682 44.3173 28.9307 44.376C28.8548 44.4966 28.7283 44.5544 28.6051 44.4583C28.4983 44.3752 28.5333 44.5585 28.4509 44.5153C28.2568 44.4126 28.1368 44.6611 27.9378 44.6261C27.7411 44.5919 27.538 44.6497 27.3528 44.7606C27.3144 44.6799 27.4164 44.6514 27.3903 44.5903C27.3642 44.5634 27.3406 44.5878 27.3226 44.6033C27.0371 44.842 26.7132 44.8754 26.3648 44.7866C26.3191 44.7752 26.2604 44.7728 26.2489 44.7198C26.2334 44.6473 26.3134 44.6693 26.3452 44.6416C26.3656 44.6245 26.3933 44.6163 26.4154 44.6009C26.4864 44.5487 26.5883 44.4827 26.5288 44.3939C26.4709 44.3075 26.4072 44.4208 26.3477 44.4493C26.2759 44.4835 26.1771 44.4892 26.1959 44.6163C26.2 44.6449 26.1412 44.7027 26.089 44.6831C26.0303 44.6612 26.0417 44.6139 26.0719 44.5675C26.0866 44.5446 26.089 44.5129 26.0548 44.5023C26.0409 44.4982 26.0091 44.5104 26.0074 44.5194C25.9724 44.7133 25.8329 44.6628 25.7048 44.6546C25.7423 44.6033 25.8068 44.644 25.8378 44.6106C25.8785 44.5675 25.779 44.5251 25.8263 44.4738C25.788 44.4428 25.7431 44.4501 25.7146 44.477C25.4078 44.7679 25.0031 44.785 24.6213 44.8632C24.6017 44.8673 24.4696 45.0017 24.503 44.8013C24.5112 44.7516 24.2705 44.7386 24.2175 44.7915C24.1016 44.9072 23.9066 44.8045 23.8503 45.0001C23.79 44.9129 23.8544 44.8999 23.8667 44.8673C23.8854 44.8168 23.9197 44.7589 23.8471 44.7329C23.8006 44.7166 23.7426 44.7149 23.719 44.7915C23.688 44.8917 23.6284 44.9414 23.5264 44.8583C23.484 44.8241 23.4261 44.8208 23.3967 44.8608C23.2996 44.9919 23.1715 44.9398 23.0484 44.9365C22.6755 44.926 22.3027 44.9227 21.9298 44.9072C21.725 44.8982 21.526 44.8526 21.3506 44.7377C21.2094 44.6457 21.0781 44.7597 20.9394 44.754C20.8627 44.7508 20.7933 44.7671 20.7158 44.7271C20.5951 44.6652 20.4727 44.6766 20.3389 44.7883H20.644C20.5192 44.8665 20.4197 44.8103 20.3275 44.8306C20.2973 44.886 20.3968 44.8909 20.3601 44.9659C20.0558 44.8657 19.7123 44.9463 19.4105 44.7793C19.3158 44.7271 19.2114 44.7516 19.1102 44.7565C19.0466 44.7597 18.996 44.7377 19.0017 44.6693C19.0074 44.5992 19.0727 44.6229 19.1135 44.6269C19.3321 44.6481 19.5271 44.7532 19.7376 44.8021C19.8828 44.8363 19.8828 44.8371 19.9897 44.7166C19.8886 44.6677 19.7972 44.7434 19.7017 44.7573C19.6789 44.6514 19.7923 44.6848 19.8102 44.6147C19.5434 44.4575 19.2448 44.455 18.9691 44.5006C18.6395 44.5552 18.2454 44.5414 17.8236 44.3393C18.3115 44.323 18.7619 44.5935 19.2253 44.3825C18.4151 44.2986 17.6278 44.0884 16.7924 43.9393C16.8626 44.0313 16.9303 44.0224 16.9825 44.0476C17.0918 44.1006 17.2485 44.0566 17.3047 44.2261C17.3194 44.2693 17.4206 44.3206 17.4826 44.2896C17.5544 44.2538 17.6164 44.235 17.6507 44.3116C17.6915 44.4037 17.618 44.4428 17.5413 44.4672C17.5087 44.4819 17.4753 44.4876 17.4443 44.464C17.1399 44.1731 16.7402 44.156 16.3282 44.1193C16.4049 44.0167 16.484 44.0859 16.5346 44.0403C16.3567 43.8961 16.2605 43.8937 16.1577 44.0297L16.1601 44.0338C16.1601 43.98 16.0695 43.9279 16.1495 43.8741C16.2107 43.8334 16.2817 43.8008 16.3584 43.8317C16.3951 43.8464 16.4261 43.8757 16.4612 43.8961C16.5101 43.9246 16.5623 43.9328 16.617 43.9132C16.5713 43.8179 16.6888 43.7739 16.6871 43.7022C16.6855 43.6289 16.6007 43.6655 16.5558 43.646C16.4391 43.5971 16.3486 43.628 16.2401 43.6924C15.9823 43.8448 15.6943 43.822 15.4038 43.7845C15.4242 43.8097 15.4446 43.8342 15.474 43.8708C15.3965 43.8871 15.2929 43.8586 15.261 43.9751C15.2529 43.6704 14.9755 43.7372 14.8278 43.6574C14.6859 43.5808 14.5439 43.5017 14.3587 43.4243C14.5056 43.3958 14.5863 43.483 14.6948 43.4846C14.6679 43.4056 14.5847 43.4064 14.5488 43.3518C14.5521 43.2948 14.654 43.3437 14.6402 43.2785C14.6279 43.2215 14.5659 43.2198 14.5227 43.2247C14.424 43.237 14.3269 43.2614 14.229 43.281C14.0723 43.162 13.8627 43.109 13.7582 42.8581C13.7599 42.9827 13.7378 43.03 13.6595 43.021C13.6285 43.0121 13.6081 42.9933 13.6008 42.9616C13.5094 42.8524 13.3976 42.8442 13.2777 42.9053C13.2475 42.8622 13.4286 42.7603 13.2377 42.7758C13.1676 42.7815 13.1268 42.7571 13.0843 42.7041C13.0264 42.6308 12.9603 42.6373 12.8934 42.7163C13.0052 42.7897 13.1137 42.8597 13.2214 42.9322C13.2671 42.9624 13.3111 42.9876 13.2598 43.0585C13.2149 43.1204 13.1798 43.087 13.1406 43.0675C13.086 43.0406 13.0346 43.0088 12.9807 42.9811C12.9383 42.9583 12.8853 42.9339 12.8494 42.9738C12.8118 43.0145 12.8869 43.0536 12.873 43.1156C12.8273 43.0797 12.7678 43.0569 12.7523 43.017C12.6528 42.7538 12.3786 42.6471 12.2334 42.4271C12.1885 42.3586 12.1355 42.3179 12.049 42.3342C11.9552 42.3521 11.9911 42.4385 11.9585 42.5452C11.8149 42.2641 11.4771 42.3521 11.3131 42.102C11.4314 42.093 11.4787 42.1851 11.5546 42.2128C11.6093 42.2324 11.6713 42.2918 11.7227 42.2429C11.7847 42.1851 11.6697 42.1484 11.6762 42.0767C11.8026 42.0458 11.9128 42.0572 12.0107 42.155C11.9356 42.1892 11.8663 42.0979 11.7961 42.155C11.925 42.3049 12.0776 42.3171 12.3427 42.1835C12.213 42.1044 12.0792 42.049 11.9805 41.9562C11.85 41.8331 11.7104 42.0148 11.5905 41.9244C11.5905 41.829 11.7194 41.9146 11.7153 41.8258C11.7153 41.8111 11.6835 41.7826 11.6819 41.7842C11.5669 41.8608 11.4339 41.5594 11.3303 41.8013C11.3539 41.86 11.4502 41.8567 11.4575 41.9447C11.389 41.9447 11.3686 41.8853 11.3278 41.8584C11.2373 41.7981 11.234 41.7965 11.2315 41.9048C11.2307 41.9529 11.203 41.935 11.1834 41.9382C11.1369 41.9456 11.0733 41.9561 11.07 41.8942C11.0594 41.6971 10.9411 41.5887 10.782 41.5023C10.7624 41.4917 10.76 41.4404 10.76 41.4078C10.7583 41.2498 10.6768 41.1772 10.5226 41.1797C10.4948 41.1707 10.494 41.1455 10.4883 41.1235C10.4034 41.0363 10.3202 40.9483 10.197 40.9149L10.2011 40.9173C10.0738 40.7585 9.88457 40.7104 9.70589 40.6436C9.65531 40.6346 9.6496 40.5882 9.6292 40.5531C9.5827 40.4782 9.49948 40.4594 9.42769 40.4252C9.34039 40.3837 9.28247 40.3307 9.29226 40.2248C9.30613 40.0798 9.2172 40.0358 9.09156 40.0325C9.04424 40.0317 8.99529 40.0219 8.9496 40.0301C8.69587 40.0757 8.63876 39.9054 8.58002 39.7131C8.67955 39.6984 8.70974 39.8044 8.82477 39.7897C8.6461 39.6243 8.48783 39.4752 8.24878 39.4076C8.2602 39.5306 8.40869 39.5265 8.41032 39.6528C8.19086 39.5819 8.04808 39.4206 7.90123 39.274C7.62221 38.9961 7.2975 38.7582 7.12943 38.381C7.09109 38.2946 6.99808 38.2474 6.90752 38.2107C6.87325 38.1968 6.82104 38.2034 6.81859 38.1455C6.81614 38.086 6.83817 38.0078 6.76556 37.9858C6.6595 37.9532 6.71171 38.0942 6.68316 38.0917C6.59342 38.0852 6.47104 38.1162 6.44248 37.9801C6.42698 37.9068 6.36253 37.8718 6.33234 37.8155C6.29889 37.7544 6.05658 37.7552 6.26136 37.6078C6.28666 37.5898 6.05414 37.2933 6.01171 37.3039C5.86078 37.3438 5.82407 37.1955 5.73595 37.1385C5.6454 37.0806 5.7694 37.0717 5.77919 37.0358C5.79306 36.9861 5.7947 36.9364 5.8616 36.9861C5.92115 37.0301 5.975 37.088 6.09819 37.0285C5.88118 36.9128 5.85425 36.6529 5.65029 36.5445C5.47488 36.4516 5.44796 36.2072 5.22849 36.1551C5.1926 36.2708 5.36311 36.2536 5.35087 36.3645C5.11754 36.261 4.98863 36.0239 4.74306 35.9391C4.96008 35.7273 5.0074 36.2121 5.22034 35.9994C5.06369 35.8935 4.96497 35.7183 4.80915 35.588C4.74388 35.6401 4.78304 35.7086 4.76101 35.7632C4.70227 35.7998 4.66556 35.7045 4.60437 35.7338C4.60926 35.8072 4.61579 35.8813 4.61742 35.9554C4.61905 35.9986 4.60274 36.0394 4.55623 36.0483C4.50565 36.0581 4.49015 36.0125 4.46812 35.9791C4.43304 35.9228 4.44609 35.8609 4.44609 35.8006C4.44609 35.5741 4.3384 35.4943 4.11649 35.5554L4.1222 35.5611C4.14749 35.4348 4.08875 35.3224 4.06182 35.205C4.0504 35.1553 4.01124 35.0934 4.08222 35.0633C4.15402 35.0323 4.17197 35.1032 4.19562 35.148C4.25437 35.2613 4.30903 35.3761 4.36859 35.4975C4.48117 35.3248 4.39469 35.2352 4.27476 35.1252C4.04632 34.9158 3.92721 34.6078 3.67103 34.4261C3.67103 34.3846 3.69551 34.3805 3.72325 34.3724C3.76241 34.361 3.83094 34.3984 3.83339 34.3218C3.83502 34.2697 3.79178 34.2339 3.74609 34.2216C3.69469 34.2078 3.64166 34.2021 3.60413 34.1581C3.56823 34.1328 3.61555 34.0807 3.5715 34.057C3.58292 34.0962 3.57313 34.1361 3.58292 34.1736C3.53723 34.2436 3.53397 34.3463 3.43035 34.3715C3.32021 34.2705 3.26637 34.1369 3.21986 34C3.23781 33.8509 3.14725 33.7426 3.06648 33.6391C3.0004 33.5543 2.90739 33.5283 2.84457 33.67C2.77196 33.5617 2.82744 33.4623 2.87721 33.424C2.94492 33.3718 2.99551 33.4761 3.04772 33.5193C3.19049 33.6374 3.25087 33.8175 3.38793 33.9862V33.6725C3.54539 33.6317 3.68408 33.6554 3.79015 33.7743C3.72814 33.6212 3.4532 33.6847 3.44912 33.4549C3.45646 33.5462 3.44912 33.578 3.39364 33.6766C3.21497 33.5299 3.13012 33.3205 3.02732 33.125C2.89516 32.874 2.78094 32.6141 2.64795 32.3632C2.59003 32.254 2.53292 32.1269 2.37709 32.131C2.32895 32.3371 2.45459 32.4463 2.57697 32.5791C2.63163 32.6386 2.72791 32.7934 2.61287 32.8919C2.48641 32.9995 2.31508 32.8781 2.29795 32.6809C2.30937 32.6809 2.32079 32.6768 2.3314 32.6793C2.41543 32.6972 2.48397 32.8626 2.55902 32.7608C2.60879 32.6931 2.44399 32.6622 2.39014 32.5994C2.37709 32.5848 2.35832 32.5742 2.34119 32.5636C2.28 32.5286 2.22044 32.4381 2.14947 32.496C2.07441 32.5571 2.16252 32.6296 2.18373 32.6948C2.19271 32.7225 2.20331 32.7437 2.16089 32.7787C2.03933 32.5587 1.9814 32.3355 2.05891 32.0943C2.0793 32.0316 2.03525 32.0275 2.01322 32.0055C1.81089 31.8091 1.63793 31.5932 1.58245 31.3097C1.56776 31.2331 1.46823 31.2421 1.47068 31.1565C1.47231 31.1003 1.37767 31.0335 1.48944 30.9944C1.58408 30.961 1.59876 31.0424 1.62569 31.1027C1.69014 31.2437 1.75704 31.383 1.82068 31.524C1.84515 31.5769 1.87452 31.6111 1.94061 31.612C1.99609 31.612 2.0328 31.5745 2.00098 31.546C1.77907 31.3455 1.76194 31.0156 1.53839 30.82C1.45517 30.8298 1.5441 30.9333 1.47231 30.9373C1.40296 30.9414 1.39072 30.8713 1.37277 30.8257C1.30914 30.6628 1.25937 30.4933 1.19165 30.332C1.14923 30.2318 1.03664 30.1601 1.11252 30.0215C1.14026 29.971 1.0807 29.9075 1.03583 29.8659C0.937108 29.7747 1.01625 29.7347 1.10436 29.6484C1.06764 29.848 1.22266 29.8219 1.3173 29.9018C1.28629 29.7633 1.31322 29.6313 1.11823 29.6182C1.03419 29.6125 0.937108 29.5596 0.967295 29.417C0.987691 29.32 0.95832 29.2084 0.875103 29.1392C0.823705 29.096 0.819625 29.0512 0.822889 28.9982C0.826152 28.9567 0.791071 28.8964 0.85797 28.8784C0.913448 28.8638 0.945267 28.911 0.969742 28.9493C1.08233 29.1229 1.2504 29.2622 1.26916 29.4928C1.2765 29.5824 1.33117 29.6688 1.36706 29.7641C1.46578 29.6215 1.53839 29.4944 1.31566 29.4113C1.30751 29.408 1.31566 29.3608 1.3173 29.3339C1.35564 29.254 1.42825 29.3249 1.49189 29.2899C1.47965 29.1864 1.47883 29.0748 1.43151 28.9632C1.41438 29.0463 1.55226 29.1498 1.39072 29.2011C1.14597 29.0723 1.1476 28.8027 1.05541 28.5517C0.986059 28.7244 1.15494 28.8222 1.09457 28.9705C0.997481 28.8499 0.93874 28.7424 0.952609 28.5851C0.973006 28.3537 0.942819 28.124 0.742935 27.9602C0.722539 27.9431 0.682562 27.9252 0.699695 27.9032C0.889789 27.6612 0.600161 27.6009 0.52755 27.464C0.457387 27.3304 0.518576 27.2065 0.485942 27.0249C0.664613 27.2709 0.786175 27.4974 1.03256 27.6074C0.939556 27.5162 0.893868 27.4143 0.877551 27.284C0.864497 27.1756 0.817178 27.0803 0.946898 27.0167C0.956689 27.0118 0.961584 26.9947 0.966479 26.9817C0.99177 26.923 0.841653 26.4464 0.78128 26.3983C0.738856 26.4798 0.831863 26.5474 0.80494 26.6297C0.71846 26.6191 0.742119 26.5181 0.663797 26.4806C0.650744 26.5556 0.697247 26.6387 0.633611 26.7055C0.512865 26.6696 0.503074 26.5547 0.453307 26.4627C0.352958 26.2777 0.453307 26.0797 0.405988 25.9013C0.333377 25.621 0.319508 25.3261 0.187339 25.0588C0.102491 24.8877 0.07312 24.7003 0.165311 24.5154C0.186524 24.4722 0.142467 24.4584 0.135125 24.4282C0.0820944 24.2042 -0.00193846 23.9793 0.17347 23.7674C0.19305 23.743 0.215894 23.6917 0.205288 23.6762C0.122887 23.5621 0.217526 23.4587 0.224053 23.3527C0.229764 23.2615 0.286058 23.1824 0.13023 23.2362C0.0910688 23.2493 0.0886212 23.2159 0.0902529 23.1906C0.107386 22.9836 0.0200896 22.7905 0.00948347 22.5885C0.00622006 22.5298 -0.0525214 22.4084 0.104938 22.4443C0.109833 22.4451 0.126966 22.419 0.125335 22.4174C-0.0533372 22.2218 0.193866 22.0271 0.122887 21.8242C0.0600663 21.6426 0.0935163 21.4609 0.171022 21.2735C0.224869 21.1431 0.246081 20.9443 0.182444 20.8335C0.0812785 20.6583 0.0820944 20.5304 0.227316 20.3479C0.152258 20.6314 0.342351 20.7031 0.524287 20.8001C0.587923 20.5557 0.478599 20.352 0.410883 20.1287C0.34072 20.1964 0.445149 20.2746 0.353773 20.3373C0.318692 20.2395 0.294216 20.1507 0.343983 20.0464C0.399461 20.0684 0.454939 20.0904 0.51776 20.1157C0.578949 20.0016 0.552841 19.8851 0.524287 19.7368C0.490021 19.8216 0.465545 19.8835 0.44107 19.9438C0.255871 19.9128 0.223237 19.8126 0.301559 19.6586C0.341536 19.5804 0.379065 19.5006 0.411699 19.4191C0.432911 19.3661 0.563448 19.2732 0.362748 19.2846C0.320323 19.2871 0.318692 19.1681 0.3603 19.1307C0.485942 19.0198 0.436175 18.8879 0.429648 18.7567C0.423937 18.6491 0.423937 18.5383 0.441886 18.4332C0.450044 18.3851 0.382328 18.2246 0.561816 18.3143C0.607504 18.3371 0.676035 18.0568 0.598529 18.0152C0.50389 17.9647 0.543051 17.9167 0.552026 17.8653C0.600161 17.5785 0.649928 17.2917 0.703774 17.0058C0.721723 16.9104 0.809019 16.8412 0.845733 16.7744C0.912633 16.6513 0.986875 16.5136 1.02767 16.3719C1.04235 16.3205 0.858786 16.3344 0.94853 16.226C0.989323 16.1771 0.889789 15.9751 1.09375 16.0892C1.13373 16.1111 1.12965 16.0476 1.12557 16.0183C1.1166 15.9539 1.1941 15.8643 1.08396 15.8325C1.04317 15.8203 0.983612 15.817 1.02604 15.7771C1.20716 15.6093 1.11333 15.3583 1.23163 15.153C1.26508 15.1962 1.29282 15.2328 1.32627 15.2768C1.45191 15.1432 1.4976 14.9737 1.55634 14.8108C1.71054 14.3798 1.79783 13.9186 2.12988 13.5699C2.16497 13.5332 2.17231 13.5023 2.11112 13.4852C2.10215 13.4827 2.09072 13.4656 2.08991 13.455C2.08093 13.3067 2.24166 13.4575 2.27511 13.3483C2.29387 13.288 2.08664 13.2236 2.28816 13.1756C2.45052 13.1365 2.56066 12.7747 2.49702 12.6199C2.4652 12.5417 2.47907 12.4407 2.55902 12.3649C2.67651 12.2541 2.71812 12.105 2.74259 11.9542C2.68956 11.9249 2.67569 12.0105 2.62266 11.9673C2.6659 11.8459 2.71322 11.7245 2.79154 11.6153C2.89597 11.9176 2.78094 12.184 2.66019 12.4895C2.9131 12.3877 2.81765 12.1473 2.91963 12.008C3.02651 11.8622 3.09749 11.6911 3.21089 11.4817C3.08035 11.5746 3.0159 11.6569 2.9645 11.7538C2.95145 11.7791 2.93432 11.8157 2.88944 11.784C2.83805 11.7473 2.89271 11.7334 2.90005 11.7082C2.97592 11.4524 3.18886 11.3138 3.40017 11.1753C3.31858 11.1012 3.25984 11.1566 3.19049 11.1379C3.40996 11.0238 3.38548 10.7231 3.61555 10.6205C3.62779 10.6148 3.63187 10.5854 3.63677 10.5659C3.70611 10.3035 3.86847 10.095 4.02674 9.88313C4.06264 9.83505 4.11975 9.76417 4.10588 9.72588C4.03409 9.52952 4.17278 9.47249 4.30087 9.4293C4.41591 9.39101 4.45099 9.3185 4.47138 9.21502C4.48117 9.16369 4.50239 9.10666 4.53665 9.06755C4.73082 8.84594 4.77162 8.5461 4.92989 8.30575C4.96824 8.2479 4.96987 8.20391 5.06696 8.23161C5.15833 8.25768 5.20973 8.14687 5.26276 8.08006C5.42838 7.8723 5.5532 7.63602 5.71066 7.37855C5.75717 7.54069 5.62581 7.59691 5.6095 7.69305C5.91136 7.63765 5.91544 7.63194 5.98316 7.14146C6.11777 7.52765 6.3095 7.08687 6.48001 7.2376C6.24505 6.78867 6.71498 6.8514 6.84878 6.65994H6.4898C6.54365 6.52061 6.66358 6.52143 6.7623 6.49943C6.88957 6.47091 6.9891 6.41551 7.05029 6.299C7.05356 6.29329 7.05437 6.28596 7.056 6.27944C7.04948 6.27863 7.04295 6.27781 7.03561 6.27618C7.01684 6.27618 7.01113 6.27618 7.01684 6.27618C7.02419 6.27781 7.03071 6.27863 7.03479 6.27863C6.99808 6.15478 7.1229 6.15071 7.17757 6.11242C7.23712 6.07086 7.20123 6.15886 7.22081 6.18167C7.26568 6.233 7.32116 6.22893 7.36521 6.19308C7.42069 6.14745 7.54796 6.08553 7.51696 6.05375C7.37419 5.90547 7.57244 5.94621 7.59447 5.89488C7.69482 5.65941 7.97465 5.60482 8.10682 5.40928C8.19657 5.27729 8.30915 5.173 8.41032 5.05567C8.50088 4.94975 8.60041 4.95464 8.70647 5.0353C8.67955 5.08582 8.60694 5.0573 8.59062 5.11515C8.5996 5.12004 8.61347 5.13308 8.61755 5.13063C8.6975 5.0793 8.84762 5.12982 8.86638 5.00271C8.89412 4.80962 8.99284 4.66296 9.20496 4.57496C9.21557 4.63526 9.16335 4.654 9.13153 4.68333C9.09645 4.71673 9.06382 4.74932 9.05484 4.80391C9.33142 4.80065 9.48235 4.62059 9.57209 4.40142C9.62349 4.27595 9.70589 4.2181 9.8038 4.14803C9.91312 4.06981 10.0045 3.96634 10.1016 3.87264C10.2386 3.73984 10.3757 3.60784 10.5821 3.59399C10.6245 3.59073 10.6547 3.5777 10.6751 3.53207C10.7314 3.40334 10.8155 3.36993 10.9231 3.47993C10.9639 3.52148 11.0031 3.52474 11.048 3.4897C11.1132 3.43756 11.048 3.42208 11.0259 3.3846C10.9754 3.30149 11.0618 3.28194 11.1083 3.25668C11.2903 3.15728 11.4828 3.07173 11.5864 2.87863C11.6631 2.91693 11.584 2.97396 11.6305 3.01959C11.8043 2.91937 12.0245 2.88189 12.1249 2.67087C12.1502 2.6171 12.2016 2.61384 12.2448 2.60895C12.4455 2.58451 12.5859 2.35148 12.8355 2.4517C12.8779 2.46881 13.0215 2.35637 13.1349 2.3303C13.2785 2.2969 13.1463 2.12661 13.25 2.05491C13.3063 2.08261 13.2883 2.1315 13.2867 2.17387C13.285 2.23172 13.2638 2.32786 13.3438 2.31156C13.3968 2.30015 13.5559 2.32134 13.5045 2.15594C13.4776 2.06958 13.529 2.0158 13.6073 2.08506C13.6497 2.12335 13.6799 2.15024 13.7207 2.11357C13.7517 2.08506 13.7819 2.04269 13.755 1.98729C13.6799 1.83248 13.755 1.81374 13.8953 1.80723C14.0601 1.79989 14.189 1.67605 14.3106 1.58317C14.3897 1.52287 14.4281 1.53591 14.4892 1.5628C14.5847 1.60516 14.4974 1.64427 14.4835 1.6842C14.4533 1.77056 14.4615 1.81374 14.5725 1.78523C14.7079 1.75019 14.8498 1.73797 14.9894 1.61576C14.8523 1.61087 14.7364 1.70457 14.6336 1.56932C14.9641 1.40718 15.2415 1.12364 15.6159 1.09187C15.9374 1.06416 16.2009 0.880028 16.5109 0.844179C16.5574 0.838476 16.6015 0.82218 16.6464 0.848253C16.6121 0.914248 16.5427 0.900397 16.4897 0.924025C16.4514 0.941135 16.2629 0.885732 16.4057 1.04542C16.4367 1.07964 16.3706 1.08942 16.3494 1.10246C16.2955 1.13505 16.2164 1.12853 16.187 1.20512C16.3804 1.24178 16.4538 1.21571 16.7043 1.0438C16.8634 0.933803 17.0274 0.831143 17.1913 0.723595C17.2101 0.927285 17.0853 1.01935 16.9213 1.09594C17.2142 0.897138 17.5976 1.05683 17.8767 0.826254C17.9044 0.803441 17.9607 0.786331 17.9917 0.798552C18.2144 0.887361 18.3466 0.761888 18.4755 0.611972C18.5253 0.554124 18.593 0.520719 18.6933 0.549236C18.6517 0.615231 18.5726 0.660043 18.5962 0.77248C18.9185 0.6356 19.2914 0.687745 19.6046 0.498721C19.5361 0.38384 19.4953 0.532941 19.4309 0.469389C19.5059 0.396876 19.5467 0.316215 19.6895 0.391987C19.8168 0.459612 19.9767 0.465316 20.1015 0.340657C20.1586 0.282809 20.2361 0.264885 20.3095 0.289327C20.4711 0.343102 20.6367 0.222517 20.7974 0.304808C20.8129 0.312956 20.8537 0.295846 20.8659 0.277921C20.8888 0.246145 20.87 0.211925 20.839 0.193186C20.8048 0.172002 20.7664 0.157336 20.7297 0.140226C20.6962 0.123931 20.64 0.115784 20.6775 0.0611947C20.7028 0.0245305 20.7403 0.0212715 20.7787 0.0611947C20.9524 0.244516 21.1833 0.26244 21.415 0.264885C21.4623 0.264885 21.5529 0.311326 21.5374 0.176891C21.5301 0.11171 21.6108 0.141041 21.6304 0.183409C21.6842 0.303178 21.7675 0.26244 21.8523 0.236368C21.9527 0.205407 22.0449 0.139412 22.1632 0.186668C22.2782 0.232294 22.1795 0.0383815 22.2855 0.0644538C22.3557 0.0815637 22.3459 0.218443 22.4511 0.183409C22.6233 0.126376 22.7922 0.101118 22.966 0.177705C22.9961 0.190742 23.0369 0.189927 23.0426 0.142671C23.0484 0.0962294 22.9945 0.0261601 23.0883 0.0188272C23.183 0.0114944 23.2931 -0.0153927 23.3698 0.0212715C23.5982 0.131264 23.5933 0.146745 23.8862 0.138597C24.3227 0.126376 24.7559 0.154892 25.1802 0.255922C25.2985 0.284439 25.3972 0.233109 25.5073 0.234739C25.6754 0.237998 25.7137 0.437614 25.8892 0.409912C25.9952 0.392802 26.1151 0.436799 26.2318 0.427837C26.2906 0.422948 26.3566 0.401764 26.377 0.490573C26.3811 0.507683 26.4072 0.535385 26.4137 0.532941C26.6707 0.436799 26.8894 0.642933 27.1529 0.640489C27.1007 0.495462 26.9228 0.576123 26.8812 0.440873C27.0403 0.457168 27.1921 0.43191 27.3618 0.343916C27.3136 0.476722 27.2059 0.427837 27.1505 0.522349C27.9728 0.589974 28.8058 0.515831 29.5996 0.885732C29.4601 0.937062 29.3443 0.906101 29.2284 0.897953C29.1852 0.894694 29.1232 0.871881 29.1069 0.932988C29.0873 1.00632 29.164 0.996539 29.2007 1.00958C29.5531 1.13586 29.9187 1.20267 30.3054 1.25645C30.1618 1.35422 29.9978 1.26459 29.8436 1.34852C29.9815 1.43651 30.1193 1.4471 30.254 1.4471C30.6048 1.4471 30.9164 1.61657 31.2566 1.66953C31.5169 1.71027 31.7698 1.79337 32.035 1.81456C32.0921 1.84878 32.1663 1.80804 32.221 1.8553C32.283 1.92129 32.3499 1.98077 32.4339 2.01825C32.4763 2.03943 32.5204 2.04921 32.5685 2.04676C32.7056 2.04079 32.8108 2.09375 32.8843 2.20564C32.8924 2.23171 32.9226 2.19261 32.899 2.20646C32.8941 2.20972 32.8924 2.20401 32.8859 2.19505C32.8541 2.14535 32.8451 2.09809 32.89 2.05165C33.0866 2.0875 33.2922 2.09076 33.4896 2.19831C33.3803 2.22275 33.2881 2.23986 33.1984 2.26431C33.1445 2.27897 33.1005 2.31156 33.0931 2.3743C33.0858 2.44111 33.1307 2.48918 33.1804 2.49407C33.5622 2.53481 33.8405 2.78005 34.1562 2.95767C34.2786 3.02692 34.4621 2.94219 34.5935 3.05381C34.5747 3.1141 34.4793 3.0367 34.476 3.11736C34.4719 3.20372 34.5454 3.1801 34.5919 3.19395C34.8505 3.27135 35.1393 3.22735 35.3792 3.39193C35.4387 3.43267 35.5089 3.44978 35.5456 3.52637C35.5847 3.60703 35.6574 3.65917 35.7422 3.69502C35.9103 3.76509 36.0645 3.83598 36.164 4.01848C36.213 4.10811 36.3818 4.13255 36.4977 4.18714C36.3786 4.29795 36.2178 4.2841 36.0685 4.34357C36.3304 4.5383 36.5801 4.73221 36.8534 4.89191C36.8999 4.91879 36.9529 4.95057 37.0035 4.95057C37.3348 4.95301 37.5257 5.18929 37.75 5.37669C37.9785 5.56734 38.224 5.73274 38.5496 5.76533C38.4598 5.49972 38.2485 5.3881 38.0437 5.27077C37.8169 5.14041 37.5493 5.07604 37.3739 4.86176C37.3323 4.81043 37.285 4.85769 37.2426 4.84628C37.1993 4.83487 37.121 4.82998 37.1332 4.77865C37.2042 4.4886 36.9586 4.60593 36.8616 4.58637C36.6845 4.54971 36.5075 4.53993 36.3468 4.38024C36.7482 4.34928 37.0957 4.39164 37.4139 4.61978C37.3388 4.68414 37.2736 4.58474 37.1879 4.66377C37.3429 4.78273 37.5248 4.86828 37.6905 4.87561C38.0201 4.89028 38.1955 5.08745 38.3586 5.31884C38.4769 5.48668 38.6311 5.5926 38.8278 5.64149C38.8873 5.78977 38.8702 5.91117 38.6736 5.99509C38.8392 6.00242 38.8881 5.90873 38.9355 5.8191C38.9616 5.77022 38.9722 5.71237 39.0472 5.75148C39.1003 5.75637 39.1533 5.76126 39.2349 5.76859C39.1313 5.83866 39.1411 5.8908 39.1672 6.00487C39.2186 6.22811 39.3719 6.25093 39.5245 6.30226C39.6183 6.33322 39.6273 6.41877 39.6754 6.47987C39.7301 6.54831 39.7864 6.61675 39.8745 6.65016C39.9292 6.58172 39.8215 6.55157 39.837 6.50106C40.0271 6.44321 40.1429 6.5475 40.2376 6.68601C40.2726 6.73815 40.333 6.818 40.1894 6.80985C40.1462 6.80741 40.1087 6.81393 40.1054 6.87096C40.1029 6.9231 40.1364 6.9394 40.178 6.95162C40.2816 6.98258 40.3852 7.01354 40.4872 7.04858C40.6349 7.09909 40.7948 7.1162 40.8666 7.30278C40.9033 7.39811 41.0461 7.41196 41.1383 7.46899C41.1946 7.50403 41.2427 7.5635 41.2117 7.61809C41.1725 7.68653 41.1203 7.59854 41.0746 7.59935C40.9604 7.60017 40.9294 7.4861 40.8446 7.44781C40.8046 7.42988 40.7695 7.36959 40.7295 7.43396C40.7042 7.47469 40.705 7.53662 40.7654 7.55128C41.0363 7.61483 41.0028 7.93585 41.2068 8.05806C40.9025 7.93911 40.767 7.52602 40.3436 7.57654C40.435 7.75253 40.5851 7.83482 40.7075 7.94644C40.8927 8.1151 41.1758 8.21368 41.1195 8.56158C41.1089 8.62595 41.2402 8.75061 41.3708 8.66832C41.432 8.62921 41.436 8.67891 41.4515 8.70498C41.755 9.20117 42.1613 9.62566 42.4477 10.1373C42.5301 10.284 42.6925 10.3981 42.7928 10.5626C42.6761 10.5675 42.6541 10.4388 42.5309 10.4388C42.6256 10.6734 42.7569 10.8731 42.8809 11.0759C42.9242 11.1468 42.9764 11.2112 42.9046 11.2935C42.8874 11.313 42.8679 11.3578 42.8907 11.3627C43.1134 11.4116 42.9788 11.555 42.9862 11.6691C42.9943 11.7921 43.1355 11.832 43.2081 11.9225C43.1967 11.9363 43.1877 11.9599 43.173 11.964C42.9617 12.0251 42.9845 12.1253 43.12 12.2516C43.1534 12.2834 43.1763 12.3274 43.2015 12.3673C43.275 12.483 43.2374 12.5335 43.1053 12.527C43.111 12.4659 43.0857 12.4097 43.0743 12.351C43.0833 12.4097 43.1077 12.4659 43.1077 12.5262C43.3468 12.747 43.4063 13.0574 43.5238 13.3662C43.3884 13.257 43.2937 13.2872 43.2334 13.4379C43.1624 13.3173 43.0979 13.2155 43.04 13.1088C43.0041 13.0428 42.9511 13.0419 42.8883 13.0444C42.8483 13.046 42.8197 13.0591 42.8132 13.0957C42.7993 13.1691 42.867 13.178 42.9095 13.2065C43.1134 13.3418 43.1942 13.5593 43.2872 13.7687C43.2995 13.8103 43.3925 13.7769 43.3655 13.8543C43.3296 13.9716 43.2546 14.102 43.4708 14.128C43.4953 14.1313 43.5564 14.1704 43.4814 14.2258C43.3778 14.3032 43.461 14.3521 43.5312 14.3798C43.7702 14.4735 43.771 14.471 43.6184 14.6951C43.7408 14.7122 43.864 14.7334 43.9244 14.8458C44.0076 15.0006 43.718 14.9183 43.7849 15.0658C44.0174 15.0911 44.1887 15.3575 44.1773 15.6883L44.183 15.6834C44.1455 15.6361 44.108 15.5897 44.0721 15.5449C44.037 15.5685 44.0305 15.5856 44.0468 15.6166C44.3331 16.1609 44.4474 16.7801 44.7868 17.3015C44.8496 17.3977 44.7786 17.5028 44.79 17.647C44.6587 17.5158 44.604 17.3854 44.533 17.2665C44.4457 17.1215 44.3601 16.9748 44.2222 16.8689C44.1961 16.8493 44.17 16.8151 44.1349 16.8395C44.0916 16.8697 44.1063 16.9088 44.1324 16.9455C44.2026 17.0457 44.2752 17.1435 44.3413 17.2461C44.5444 17.5606 44.7468 17.8759 44.6432 18.2825C44.6317 18.3273 44.666 18.3851 44.684 18.4357C44.812 18.7909 44.9768 19.1388 44.9124 19.534C44.901 19.6016 44.9932 19.6309 44.9564 19.7108C44.9197 19.7328 44.8161 19.6448 44.8243 19.7295C44.8414 19.903 44.6701 20.0701 44.79 20.2615C44.8724 20.1898 44.7509 20.1385 44.8186 20.0758C44.9312 20.1491 44.9067 20.2868 44.9589 20.3862C45.0201 20.5035 45.0078 20.585 44.914 20.6966C44.7753 20.862 44.7884 21.0901 44.7574 21.2971C44.7362 21.4364 44.759 21.5912 44.5877 21.6678C44.5485 21.6849 44.5322 21.7574 44.5094 21.8063C44.4188 22.0043 44.3796 22.0133 44.2205 21.8666C44.2059 21.8528 44.1928 21.8373 44.1789 21.8218C44.0402 21.6694 43.9636 21.4739 43.7939 21.3362C43.6707 21.236 43.7009 21.0364 43.6666 20.8612C43.5426 20.9769 43.5238 21.0787 43.5638 21.2246C43.638 21.4943 43.6078 21.777 43.6111 22.0548C43.6127 22.1559 43.6054 22.2577 43.6454 22.3555C43.6698 22.4158 43.7 22.4687 43.7686 22.4752C43.8477 22.4818 43.7588 22.3669 43.8526 22.3677C43.8608 22.4133 43.8689 22.4614 43.8852 22.551C43.9203 22.3693 43.8453 22.2618 43.789 22.1477C43.7221 22.0116 43.8118 21.8536 43.9472 21.8617C44.0517 21.8682 44.1063 21.966 44.0827 22.107C43.9791 22.1102 43.9913 21.9334 43.8648 21.9668C43.8436 22.0516 43.9179 22.0858 43.9538 22.1347C43.9995 22.1974 44.0362 22.2952 44.13 22.283C44.2434 22.2683 44.1414 22.1371 44.2279 22.0752C44.2989 22.274 44.1928 22.4312 44.1031 22.5649C44.0549 22.6357 44.0533 22.661 44.09 22.718C44.2409 22.9527 44.1585 23.2273 44.2165 23.4774C44.2295 23.5336 44.1863 23.5434 44.143 23.545C44.0713 23.5483 44.0509 23.5108 44.0525 23.444C44.0557 23.3291 44.0509 23.2142 44.0517 23.0985C44.0517 22.9934 43.9995 22.9551 43.8795 22.9731C43.9815 23.1572 43.9146 23.3593 43.9709 23.5458C43.9872 23.6004 43.9742 23.7186 44.0876 23.6037C44.1373 23.5532 44.1545 23.6208 44.1594 23.655C44.1855 23.853 44.099 24.051 44.1594 24.2571C44.1675 24.2856 44.0647 24.407 44.108 24.5219C44.1259 24.57 44.0443 24.5871 44.0052 24.5936C43.9203 24.5789 44.0916 24.4136 43.9105 24.4641C43.8795 24.473 43.9056 24.3337 43.8355 24.4078C43.7939 24.4518 43.7841 24.57 43.8608 24.5961C44.0378 24.6555 44.0329 24.7443 43.9521 24.8796C43.9219 24.9309 43.9366 24.9937 43.9644 25.054C43.9962 25.1224 43.9644 25.1982 43.8983 25.2185C43.8118 25.2446 43.8216 25.1493 43.793 25.102C43.6527 24.8682 43.7702 24.614 43.7359 24.3712C43.7131 24.2123 43.7115 24.0502 43.6992 23.8726C43.5875 23.9679 43.7009 24.0876 43.6397 24.1553C43.5434 24.2628 43.603 24.3174 43.6829 24.3785C43.6878 24.3826 43.6919 24.3883 43.6968 24.3932C43.5499 24.4958 43.6919 24.6987 43.5556 24.7997C43.5271 24.8209 43.4863 24.8323 43.5206 24.8609C43.678 24.9896 43.5981 25.1395 43.5695 25.2862C43.5654 25.309 43.5777 25.3342 43.5834 25.3644C43.6968 25.2935 43.6054 25.1664 43.6829 25.0735C43.7441 25.1835 43.7555 25.2674 43.6845 25.3717C43.5744 25.533 43.5091 25.7106 43.6405 25.8956C43.6568 25.9192 43.6829 25.9429 43.6519 25.9543C43.4692 26.017 43.5581 26.114 43.6095 26.215C43.6821 26.3559 43.6454 26.4782 43.514 26.5873C43.4643 26.4407 43.4398 26.2899 43.3492 26.1612C43.2831 26.2036 43.2513 26.2639 43.2505 26.3405C43.2505 26.4219 43.2415 26.4928 43.1298 26.4749C43.1134 26.4725 43.0922 26.4879 43.0759 26.4993C43.031 26.5319 42.9894 26.9035 43.0237 26.9605C43.0833 26.9246 43.0286 26.8399 43.1069 26.7967C43.1167 26.8456 43.1265 26.8912 43.1363 26.9377C43.1722 26.9475 43.1738 26.9141 43.186 26.8953C43.2105 26.8578 43.2187 26.7926 43.2807 26.8098C43.3321 26.8236 43.3476 26.8839 43.3427 26.9279C43.3256 27.0786 43.3867 27.2579 43.2032 27.3556C43.1632 27.3239 43.1705 27.2685 43.1428 27.231C43.1126 27.1911 43.071 27.1935 43.0384 27.2237C43.0074 27.2522 43.0188 27.2872 43.0514 27.3076C43.0947 27.3345 43.1183 27.3671 43.1183 27.4208C43.1192 27.4982 43.1608 27.3956 43.1738 27.4306C43.2073 27.6824 43.0661 27.9162 43.1085 28.1769C43.1216 28.2592 43.1151 28.4368 42.9478 28.4816C42.9046 28.4931 42.9495 28.5411 42.9429 28.568C42.9038 28.7293 42.9078 28.8972 42.7137 29.0007C42.6027 29.0593 42.4632 29.3119 42.4869 29.338C42.6606 29.5254 42.4575 29.6802 42.4705 29.8464C42.4738 29.8847 42.4877 30.0403 42.3441 29.9507C42.3384 29.9466 42.3131 29.9621 42.3131 29.9621C42.3922 30.1666 42.1116 30.2106 42.1222 30.3988C42.1295 30.5308 42.0594 30.6628 41.9223 30.7279C41.8578 30.7589 41.8766 30.8192 41.8554 30.8648C41.773 30.8722 41.7901 30.7899 41.755 30.7565C41.6841 30.807 41.6955 30.8762 41.7069 30.9455C41.7224 30.9919 41.7534 31.0294 41.7722 31.0742C41.8423 31.229 41.7705 31.3089 41.6041 31.3561C41.7469 31.1467 41.538 31.0726 41.4752 30.9414C41.4548 30.9479 41.4311 30.952 41.4311 30.9561C41.4222 31.2347 41.1595 31.418 41.1538 31.6967C41.1538 31.7244 41.1538 31.7472 41.1244 31.7627C41.0224 31.8173 40.767 32.1432 40.7181 32.2874C40.8511 32.2654 40.9115 32.1578 40.9718 32.0747C41.0665 31.9436 41.1619 32.1114 41.2468 32.0519C41.2851 32.1196 41.2557 32.1839 41.2256 32.2409C41.1888 32.3118 41.1415 32.3786 41.0648 32.4153C41.0142 32.3428 41.1513 32.2434 41.0648 32.2238C40.9506 32.1978 40.9808 32.3355 40.9637 32.4015C40.9147 32.5831 40.856 32.7331 40.6985 32.8756C40.5125 33.0443 40.4105 33.3042 40.2865 33.538C40.5827 33.2781 40.7793 32.9319 41.0632 32.6223C41.0428 32.7738 41.0518 32.8268 41.1799 32.7078C41.2916 32.6035 41.3186 32.566 41.2427 32.434C41.2353 32.421 41.2362 32.3949 41.2443 32.3819C41.3006 32.2898 41.3569 32.1978 41.4181 32.1081C41.4491 32.0633 41.4972 32.012 41.547 32.025C41.5739 32.0324 41.5829 32.1098 41.6049 32.1684C41.6253 32.1383 41.6547 32.1163 41.6522 32.0976C41.6049 31.7211 41.9027 31.5843 42.1295 31.392C42.2299 31.3064 42.2674 31.163 42.3759 31.0791C42.4061 31.0555 42.4216 31.0107 42.4697 31.0115C42.6492 31.0147 42.7243 30.9569 42.7585 30.7744C42.7683 30.7231 42.7969 30.6945 42.8328 30.7125C42.894 30.7442 42.9258 30.7508 42.9454 30.6717C42.9633 30.5992 43.1183 30.5528 43.04 30.4819C42.956 30.4061 42.9633 30.5976 42.8768 30.5968C42.8312 30.3483 42.9405 30.1275 43.1828 30.0118C43.1224 30.1397 42.9552 30.2008 43.0139 30.3491C43.3386 30.367 43.3623 30.0354 43.5491 29.8887C43.5638 30.0639 43.5564 30.059 43.4618 30.1951C43.3933 30.2945 43.297 30.3955 43.3745 30.5381C43.4022 30.5886 43.3402 30.6 43.3207 30.6302C43.2195 30.7801 43.1934 30.9553 43.1559 31.1264C43.1444 31.1793 43.1347 31.2771 43.1183 31.2779C42.8524 31.2958 42.9323 31.572 42.8026 31.6877L42.7895 31.6755C42.7773 31.59 42.7659 31.5052 42.7536 31.4197C42.7479 31.3806 42.743 31.3235 42.6974 31.3276C42.6419 31.3325 42.6264 31.3887 42.6476 31.4376C42.6696 31.4889 42.6884 31.537 42.6582 31.5883C42.5717 31.638 42.597 31.427 42.4991 31.5215C42.4306 31.5875 42.4118 31.682 42.4453 31.7643C42.464 31.8099 42.5024 31.7317 42.5578 31.7317C42.5048 31.8116 42.544 31.9737 42.358 31.8914C42.3286 31.8784 42.3335 31.9216 42.3416 31.9485C42.3816 32.0894 42.3163 32.2116 42.2698 32.3363C42.2495 32.3477 42.2331 32.3371 42.2152 32.3289C42.1671 32.3078 42.1687 32.3607 42.1458 32.3778C42.1728 32.3819 42.1866 32.3493 42.2152 32.3526C42.2356 32.355 42.2543 32.3583 42.269 32.3729C42.358 32.4927 42.38 32.6011 42.2666 32.7306C42.154 32.8602 42.1091 33.0435 41.9606 33.1519C41.9043 33.0907 41.9925 33.0516 41.9729 32.9987C41.9631 32.9987 41.9476 32.9946 41.9443 32.9987C41.8064 33.1779 41.689 33.3735 41.4948 33.5038C41.4099 33.5609 41.3504 33.6472 41.3047 33.7385C41.2566 33.8338 41.2296 33.9324 41.0909 33.8183C41.0224 33.7621 41.0094 33.8371 40.9898 33.9047C40.9473 34.0554 40.9457 34.2233 40.8307 34.3504C40.7874 34.3976 40.7956 34.3911 40.7483 34.3414C40.6773 34.2664 40.6822 34.3821 40.6708 34.4164C40.6259 34.55 40.5623 34.6021 40.4228 34.4571C40.4309 34.6543 40.3094 34.752 40.1951 34.8865C40.3387 34.8669 40.3983 34.7683 40.519 34.7089C40.3926 34.9443 40.1511 35.038 40.0099 35.3028C40.2865 35.0902 40.5313 34.9337 40.714 34.7007C40.7352 34.6738 40.8078 34.616 40.6895 34.6306C40.6814 34.6315 40.6618 34.6103 40.6634 34.6046C40.6961 34.5044 40.8087 34.5565 40.8674 34.4995C40.9115 34.4563 40.9433 34.4905 40.9506 34.5353C40.9612 34.598 40.993 34.6649 40.9057 34.7105C40.7548 34.7887 40.6177 34.8881 40.4978 35.0103C40.4113 35.0983 40.3289 35.1912 40.3012 35.3126C40.2702 35.4495 40.0711 35.4609 40.0972 35.623C39.9912 35.6238 40.0475 35.5342 39.9871 35.4918C39.943 35.5578 39.8965 35.6287 39.8533 35.6931C39.8786 35.7045 39.9308 35.5733 39.9724 35.654C40.0091 35.7249 39.9553 35.7811 39.8729 35.7925C39.7774 35.8055 39.7627 35.8691 39.7945 35.94C39.8419 36.0434 39.6697 36.1876 39.8566 36.2618C39.7701 36.3628 39.7448 36.4867 39.744 36.639C39.6613 36.5152 39.5707 36.5122 39.4723 36.6301C39.416 36.6977 39.3564 36.7629 39.305 36.8215C39.2137 36.7849 39.2855 36.6887 39.2602 36.7026C39.1647 36.7539 39.0228 36.6895 38.9648 36.8052C38.9224 36.8908 38.8579 36.9274 38.778 36.9397C38.5887 36.9698 38.5251 37.1246 38.5373 37.2615C38.5536 37.4505 38.4525 37.4196 38.3684 37.3796C38.2901 37.343 38.2697 37.3642 38.2436 37.4236C38.1898 37.5459 38.047 37.6013 38.0184 37.7536C38.0029 37.8359 37.8479 37.7544 37.7778 37.8791C38.1057 37.9606 38.2452 37.5915 38.5479 37.5736C38.41 37.7153 38.2648 37.787 38.1318 37.875C38.0788 37.91 38.0348 37.9337 38.1017 38.0103C38.2061 38.13 38.1367 38.3011 38.1996 38.4388C38.2036 38.4478 38.1857 38.4763 38.1718 38.4828C37.8765 38.6205 37.7394 38.9269 37.4881 39.1306C37.4889 39.0075 37.5665 38.9212 37.595 38.7924C37.254 38.8821 36.9741 39.0401 36.7612 39.3041C36.7025 39.3774 36.6405 39.4222 36.5499 39.4402C36.4063 39.4687 36.2905 39.5534 36.1754 39.6365C36.0318 39.74 35.8866 39.8402 35.7039 39.8598C35.6582 39.8647 35.6345 39.8899 35.606 39.9201C35.5635 39.9632 35.5178 40.017 35.464 40.0317C35.0177 40.1523 34.6816 40.5262 34.2043 40.5792C34.1562 40.5849 34.0175 40.5808 34.1162 40.7088C34.0518 40.7063 34.0624 40.9369 33.9384 40.7633C33.9065 40.7185 33.8551 40.7625 33.8119 40.7821C33.6406 40.8603 33.4668 40.9336 33.2791 41.0151C33.2857 40.9238 33.3844 40.9173 33.3828 40.8375C33.2131 40.8375 33.0817 40.9418 32.9349 40.9988C32.8688 41.0249 32.8957 41.0754 32.9104 41.1178C32.9275 41.1683 32.9618 41.2147 32.9324 41.2717C32.6909 41.0884 32.5335 41.0754 32.3548 41.222C32.3303 41.2424 32.2911 41.2563 32.2977 41.2978C32.3238 41.4624 32.3197 41.4551 32.1843 41.5398C31.8457 41.7525 31.4582 41.8486 31.0959 42.0026C30.9336 42.0718 30.6978 41.9887 30.5876 42.1378C30.4147 42.3741 30.1161 42.3717 29.926 42.5526C30.1038 42.7082 30.3054 42.7074 30.5314 42.6063C30.4612 42.7522 30.4383 42.7628 30.3045 42.7709C30.1846 42.7782 30.0671 42.7155 29.9431 42.8312C29.895 42.876 29.7767 42.7131 29.7041 42.6316C29.6298 42.5477 29.7432 42.5615 29.7685 42.5306C29.8836 42.388 30.0908 42.4075 30.2572 42.2739C30.0321 42.2706 29.8689 42.3627 29.6935 42.3945C29.5425 42.4222 29.403 42.5363 29.2341 42.432C29.2015 42.4116 29.1142 42.476 29.0538 42.5045C28.9527 42.5526 28.8523 42.6039 28.7455 42.6568C28.8434 42.7098 28.9209 42.6071 29.0155 42.6454C28.7324 42.8589 28.4362 42.7318 28.1458 42.6943C28.114 42.6902 28.0846 42.6536 28.0544 42.6536C27.786 42.6536 27.8798 42.5574 28.0283 42.4458C27.8896 42.4173 27.8325 42.4694 27.7876 42.5631C27.7632 42.6137 27.7248 42.6927 27.6563 42.6625C27.5772 42.6275 27.6522 42.5746 27.671 42.5314C27.6824 42.5045 27.6881 42.4703 27.6612 42.4621C27.6326 42.4532 27.5869 42.4556 27.5657 42.4727C27.52 42.511 27.4899 42.5672 27.445 42.6071C27.414 42.6348 27.3781 42.6642 27.3455 42.5892C27.303 42.489 27.1896 42.4817 27.1619 42.5811C27.135 42.6797 27.0778 42.6837 27.0101 42.7008C26.9677 42.7114 26.9171 42.7668 26.8837 42.7122C26.8404 42.6422 26.9294 42.6528 26.9547 42.6243C26.9653 42.6128 26.9693 42.577 26.9644 42.5746C26.9416 42.5631 26.9082 42.546 26.8902 42.555C26.8192 42.5917 26.7523 42.6365 26.6838 42.6788C26.6716 42.6544 26.6577 42.6316 26.6324 42.6186C26.6291 42.6414 26.6536 42.634 26.6618 42.6446C26.6699 42.6544 26.6813 42.6625 26.6903 42.6731C26.7123 42.7285 26.6291 42.7424 26.643 42.7962C26.7083 42.8426 26.86 42.7921 26.8494 42.9053C26.838 43.0243 26.6985 42.9884 26.6104 42.9925C26.4072 43.0015 26.2016 42.9925 26.005 43.0536C25.8818 43.0919 25.8834 43.0976 25.8867 42.973C25.8875 42.9396 25.8753 42.8817 25.8451 42.9005C25.7056 42.9876 25.5718 42.876 25.4347 42.885C25.4347 42.9135 25.4298 42.9322 25.4355 42.9371C25.4935 42.9852 25.6575 42.9624 25.5865 43.0887C25.5343 43.1815 25.4437 43.0773 25.3915 43.0292C25.3197 42.9632 25.2675 42.9909 25.2177 43.043C25.0195 43.2508 24.7527 43.1204 24.5259 43.1873C24.5193 43.1889 24.5071 43.1889 24.5063 43.1873C24.4051 42.8817 24.2566 43.1775 24.1318 43.1628C24.0217 43.1498 23.905 43.1946 23.7908 43.2011C23.6961 43.2068 23.617 43.2207 23.5566 43.083C23.5109 42.9787 23.3363 42.9705 23.2164 43.0585C23.1585 43.1009 23.0761 43.1229 23.0785 43.0447C23.0851 42.8426 22.9651 42.9436 22.8844 42.9436C22.8273 42.9436 22.7424 42.9999 22.744 42.8768C22.8077 42.7505 22.9129 42.8353 23.0002 42.8263C23.183 42.8402 23.3665 42.8459 23.5477 42.8703C23.688 42.889 23.7834 42.854 23.8397 42.6805C23.391 42.7065 22.9562 42.5721 22.5132 42.6691C22.4259 42.6878 22.3467 42.7237 22.2782 42.7831C22.2129 42.8393 22.1509 42.8833 22.1321 42.7465C22.1273 42.7074 22.0889 42.6788 22.0612 42.6886C21.8613 42.7546 21.6239 42.6169 21.4411 42.8084C21.5472 42.8793 21.7618 42.9045 21.7642 42.8719C21.7813 42.6715 21.9111 42.8385 21.969 42.7954C21.9935 42.7774 22.0555 42.8035 22.0253 42.8622C21.9861 42.9396 22.0587 43.0496 21.96 43.1033C21.9013 43.1351 21.8784 43.0838 21.8645 43.0349C21.8613 43.0219 21.8564 42.999 21.8515 42.999C21.6483 42.9827 21.4428 42.9436 21.2429 42.9632C21.1221 42.9746 21.0063 43.1221 20.91 42.9282C20.8945 42.8972 20.8521 42.8939 20.8415 42.9094C20.7224 43.0911 20.5641 42.9412 20.4327 42.942C20.3275 42.942 20.2377 42.951 20.1455 42.9917L20.1325 43.0023C20.0786 42.9999 20.0232 42.9876 19.971 42.9966C19.8951 43.0088 19.8902 43.0838 19.8828 43.14C19.8722 43.2198 19.9424 43.1946 19.9824 43.1954C20.1097 43.1978 20.2353 43.2532 20.3642 43.2019C20.4115 43.1832 20.4678 43.1987 20.4882 43.2451C20.5633 43.4138 20.6856 43.3575 20.8113 43.3266C21.0161 43.2761 21.2266 43.1563 21.4142 43.3885C21.4517 43.4349 21.5774 43.3404 21.6606 43.4146C21.6027 43.4708 21.5048 43.4423 21.4419 43.54C21.5798 43.5433 21.6769 43.4822 21.7781 43.4366C21.8197 43.4178 21.8507 43.3192 21.9021 43.3958C21.9494 43.4667 21.8507 43.4594 21.818 43.4863C21.8034 43.4985 21.7838 43.505 21.7707 43.5115C21.8074 43.5954 21.8523 43.5677 21.8964 43.5572C22.0302 43.5246 22.1591 43.4496 22.3059 43.5254C22.35 43.5482 22.4087 43.5327 22.4577 43.496C22.5564 43.4211 22.6453 43.3746 22.7139 43.5441C22.7522 43.6394 22.8525 43.6134 22.8836 43.5327C22.9831 43.2752 23.1715 43.4007 23.338 43.4317C23.2735 43.4374 23.2083 43.4423 23.1438 43.448C23.1438 43.4569 23.1438 43.4667 23.1438 43.4757C23.3355 43.4969 23.5281 43.5172 23.7198 43.5384C23.8357 43.69 24.0094 43.58 24.1261 43.6231C24.078 43.5979 24.0078 43.615 23.9352 43.6223C23.8471 43.6313 23.7598 43.6207 23.7834 43.4912C24.0062 43.3755 24.2101 43.5417 24.4263 43.536C24.4369 43.536 24.4606 43.5653 24.4581 43.5751C24.3708 43.8782 24.5732 43.6843 24.6409 43.672C24.7486 43.6525 24.8636 43.6256 24.9599 43.659C25.1484 43.7242 25.2993 43.6337 25.3833 43.5164C25.5449 43.2932 25.6085 43.4814 25.704 43.558C25.717 43.5686 25.7186 43.5946 25.7252 43.6126C25.7056 43.6484 25.6664 43.6647 25.6411 43.6948C25.6721 43.6704 25.7072 43.6492 25.7203 43.6085C25.7447 43.5987 25.7847 43.5946 25.7912 43.5783C25.9006 43.2997 26.1723 43.3999 26.3697 43.3298C26.3966 43.3201 26.4554 43.3135 26.4496 43.3567C26.4317 43.4887 26.5157 43.4243 26.5655 43.4235C26.6259 43.4227 26.6944 43.3738 26.7482 43.4545C26.6716 43.5237 26.5573 43.4675 26.4904 43.5474C26.6202 43.6826 26.7425 43.5286 26.8674 43.5417C26.8714 43.6451 26.8478 43.7022 26.7238 43.6541C26.6422 43.6223 26.5655 43.6419 26.5271 43.76C26.7336 43.7454 26.9334 43.7731 27.0713 43.5865C27.1186 43.5229 27.1953 43.5392 27.2598 43.5368C27.4442 43.5278 27.6245 43.496 27.7958 43.4341C27.8358 43.4195 27.9402 43.4455 27.9149 43.3421C27.8937 43.2532 27.8276 43.2704 27.7632 43.2899C27.7313 43.2997 27.6979 43.3029 27.6245 43.3168C27.7403 43.2141 27.7974 43.0968 27.9573 43.1921C28.0683 43.2581 28.1499 43.0634 28.278 43.1343C28.2739 43.263 28.096 43.2581 28.0691 43.4089C28.3775 43.3649 28.6826 43.3787 28.9453 43.2035C29.0294 43.1473 29.1085 43.1237 29.208 43.1294C29.3794 43.1392 29.5409 43.0748 29.7073 43.0496C29.8713 43.0243 30.0916 42.8646 30.1716 43.1987C30.1202 43.1954 30.072 43.1856 30.0247 43.1913C29.9554 43.1987 29.8469 43.1653 29.8322 43.2541C29.8175 43.3445 29.9488 43.2818 29.9831 43.3396C29.9888 43.3926 29.8942 43.3844 29.9219 43.4488C29.8452 43.4773 29.7653 43.4887 29.6861 43.5042C29.7653 43.4895 29.846 43.4846 29.9186 43.4439C30.0826 43.426 30.1479 43.2435 30.3054 43.2125C30.3135 43.2109 30.3258 43.1873 30.3225 43.1791C30.2001 42.8646 30.502 42.9241 30.6309 42.8385C30.7011 42.7921 30.7941 42.7782 30.8765 42.7489C30.8805 42.7473 30.8846 42.7359 30.883 42.7334C30.8765 42.7237 30.8675 42.7163 30.8601 42.7082C30.8389 42.6658 30.8699 42.6503 30.8993 42.6348C31.0625 42.7473 31.2118 42.6487 31.3643 42.6039C31.515 42.5599 31.6847 42.5919 31.8734 42.7C31.6548 42.6088 31.6744 43.0202 31.4378 42.8923C31.4255 42.8051 31.53 42.7905 31.5414 42.7163C31.4655 42.7742 31.2754 42.7147 31.3537 42.9282C31.3921 43.0333 31.4582 42.9974 31.5104 42.9836C31.7184 42.929 31.8865 42.7888 32.0774 42.6976C32.2495 42.6153 32.1092 42.5297 32.0725 42.4556C32.0464 42.4026 32.0023 42.4589 31.977 42.4792C31.9248 42.5224 31.9061 42.6161 31.7959 42.5843C32.026 42.2755 32.3784 42.2576 32.7015 42.1778C32.7089 42.2861 32.5955 42.3049 32.5571 42.3798C32.5995 42.3114 32.7121 42.2943 32.695 42.1827C32.8304 42.0694 33.0148 42.027 33.1282 41.8804C33.1568 41.8437 33.2041 41.8616 33.2392 41.8853C33.3779 41.9781 33.4782 41.8869 33.506 41.7826C33.5361 41.671 33.5916 41.6734 33.674 41.6604C34.0085 41.6058 34.3071 41.4803 34.5258 41.2066C34.5388 41.1764 34.56 41.1552 34.5943 41.1626C34.6155 41.1675 34.6131 41.1878 34.6049 41.2049C34.6449 41.2579 34.7738 41.2546 34.8448 41.2066C34.9826 41.1145 35.1197 41.0184 35.2666 40.9418C35.322 40.9124 35.4093 40.7804 35.4819 40.9564C35.4958 40.9907 35.6182 40.8904 35.6361 40.8212C35.6623 40.725 35.659 40.6648 35.7022 40.6566C36.1999 40.5637 36.5271 40.1555 36.975 39.9714C37.2621 39.8541 37.5102 39.6764 37.728 39.4532C37.8553 39.322 38.0054 39.2259 38.1808 39.1566C38.3138 39.1045 38.3709 38.9334 38.5169 38.8821C38.5952 38.8519 38.6214 38.8821 38.5944 38.9562C38.574 39.014 38.5226 39.054 38.4778 39.1167C38.6091 39.0743 38.6719 38.9399 38.8033 38.9277L38.8074 38.9244Z" fill="#4E62EE"/>
<g clip-path="url(#clip1_13062_8019)">
<path d="M32.7399 22.8011C32.2938 20.2813 31.2834 17.9836 29.8243 15.8664C29.7685 15.7851 29.7001 15.7306 29.6067 15.6891C28.2878 15.1108 26.9163 14.7017 25.4948 14.4454C25.3739 14.4235 25.3156 14.4593 25.2672 14.5577C25.1396 14.8196 24.9912 15.0734 24.8812 15.3418C24.8095 15.5183 24.7061 15.5492 24.5352 15.5191C23.9816 15.4223 23.4197 15.3938 22.8594 15.3735C21.944 15.341 21.0302 15.3865 20.1231 15.5231C19.9605 15.5475 19.8788 15.5044 19.813 15.3507C19.6954 15.0774 19.5445 14.8188 19.4111 14.552C19.3661 14.4625 19.3144 14.421 19.201 14.4422C18.0021 14.6659 16.8391 15.0002 15.6969 15.4231C15.165 15.6199 14.7981 15.9184 14.4988 16.3943C12.6846 19.276 11.69 22.383 11.6883 25.7763C11.6808 26.3514 11.7258 26.9248 11.7675 27.4982C11.775 27.5999 11.8201 27.6544 11.8976 27.7097C13.4617 28.8183 15.1641 29.6593 17.0067 30.2319C17.1426 30.2742 17.2017 30.2401 17.2768 30.1368C17.6136 29.6731 17.9213 29.1925 18.1922 28.689C18.3189 28.4547 18.3206 28.4555 18.0638 28.3539C17.5886 28.1668 17.1267 27.9513 16.6823 27.7024C16.6273 27.6715 16.5156 27.656 16.5856 27.5454C16.7082 27.351 16.9666 27.2729 17.1826 27.3648C18.6683 28.0017 20.2215 28.371 21.8423 28.4344C23.7823 28.51 25.6457 28.1603 27.4199 27.3884C27.655 27.2859 27.8151 27.2949 28.0043 27.4649C28.1427 27.5893 28.1319 27.6341 27.976 27.7178C27.5149 27.9675 27.0439 28.1936 26.5511 28.3742C26.4036 28.4279 26.3602 28.4767 26.4486 28.6329C26.7337 29.1363 27.0414 29.6243 27.3707 30.101C27.4691 30.2425 27.5541 30.275 27.7242 30.2213C29.4817 29.6618 31.1166 28.8679 32.6265 27.826C32.8224 27.691 32.9133 27.5527 32.9341 27.3079C33.065 25.7967 33.0042 24.2944 32.7399 22.8027V22.8011ZM20.7259 23.0418C20.7201 23.6828 20.5592 24.1765 20.1898 24.5913C19.4378 25.4364 18.2581 25.4534 17.4744 24.6368C16.704 23.8349 16.704 22.4424 17.4727 21.6388C18.4582 20.6091 20.1039 20.98 20.5908 22.3432C20.6825 22.6002 20.7401 22.8637 20.7267 23.0426L20.7259 23.0418ZM27.8042 23.0402C27.8009 23.7486 27.6025 24.2814 27.1564 24.7133C26.4361 25.412 25.3464 25.4071 24.6244 24.7076C23.8149 23.9219 23.7515 22.5587 24.4852 21.712C25.4014 20.6538 26.9997 20.8929 27.5991 22.1772C27.7417 22.4831 27.8159 22.8027 27.8034 23.0402H27.8042Z" fill="#EEEBE2"/>
</g>
</g>
<defs>
<clipPath id="clip0_13062_8019">
<rect width="45" height="45" fill="white"/>
</clipPath>
<clipPath id="clip1_13062_8019">
<rect width="22" height="22" fill="white" transform="translate(11 11)"/>
</clipPath>
</defs>
</svg>
