<svg width="307" height="46" viewBox="0 0 307 46" fill="none" xmlns="http://www.w3.org/2000/svg">
<path d="M2.54297 23.3544C2.54297 12.4107 11.4146 3.53906 22.3584 3.53906H285.157C296.101 3.53906 304.972 12.4107 304.972 23.3544C304.972 34.2982 296.101 43.1698 285.157 43.1698H22.3584C11.4146 43.1698 2.54297 34.2982 2.54297 23.3544Z" fill="#EDEAE0"/>
<path d="M221.353 41.308C219.558 41.2962 220.51 41.8525 220.129 42.1726C217.987 42.3301 219.137 41.762 218.409 41.4772C217.071 41.6246 210.907 42.1357 204.256 42.1139C204.181 42.0218 203.988 41.9882 204.215 41.8743C202.802 42.3167 210.755 41.8961 203.455 42.4524C203.333 42.4038 203.27 42.3569 203.24 42.315C203.506 42.5948 203.548 42.878 203.492 43.079C202.687 43.0891 201.999 43.4309 201.697 43.0673C202.191 43.0774 202.231 42.9316 202.462 42.8177L201.619 42.9768C200.86 42.4541 202.77 42.7959 202.77 42.4071C201.126 42.578 194.072 43.0103 192.813 42.8629C192.55 42.3502 195.758 42.6903 194.077 42.2346L196.026 42.4306C194.536 41.623 202.35 42.4876 195.842 41.623C193.277 41.4738 192.974 41.8844 185.276 41.7352C184.699 42.0201 190.604 42.1558 184.889 42.4407C181.254 42.9517 182.027 41.1521 174.215 41.8358C173.523 42.1776 173.254 42.8244 171.351 42.4825L172 41.9028C169.517 41.8458 160.305 42.7356 157.703 42.3451C158.166 42.1173 164.793 42.1525 164.418 42.0838C162.734 41.6263 158.088 42.4122 156.793 42.4122L156.525 41.8994C153.881 41.9799 145.831 42.3502 137.765 42.444C137.927 42.2915 138.429 42.1307 137.744 41.9748C134.053 42.2312 122.153 41.9129 118.592 41.6079L112.092 42.0502C111.775 42.0452 111.506 41.8509 111.848 41.7637C110.46 41.5962 111.777 42.0435 111.109 42.2178C110.319 42.248 110.065 41.9631 110.567 41.8307C108.118 42.2061 118.895 42.6384 111.177 42.1659L111.68 42.0352C109.67 41.8559 106.329 42.9416 104.465 42.5295L104.822 42.4507C100.462 42.258 92.0276 42.6635 83.5599 41.9966C82.9277 42.635 79.2431 41.7118 78.9635 42.6015C76.4737 42.1608 72.0466 42.0017 68.5399 41.7051C67.6027 41.6649 67.1434 42.2597 65.9858 42.3535L65.957 41.8894L64.3841 42.377L63.5469 41.8207L57.3215 41.9397C62.8927 41.9665 63.3808 42.1491 63.3147 42.2832C61.6182 42.4926 63.2462 41.9598 63.2038 41.7202L51.4819 42.1139C51.5718 41.9263 54.8124 41.8626 55.3446 41.7436C53.2023 42.2178 52.3853 41.2543 50.4227 41.6883C50.6854 41.7939 50.2803 41.9648 50.2362 42.0586C49.2566 41.7771 43.4157 41.7755 41.7666 41.8927L42.0835 41.5727C39.1057 41.4906 40.8912 41.7269 37.5489 41.7202C38.7472 41.8693 38.4726 42.4256 37.493 42.4775L37.1015 41.9866C36.4693 42.2899 38.1252 42.1726 36.8269 42.5445C35.5795 42.4876 35.988 41.9866 36.7049 41.8257L28.5073 41.9966C28.4175 41.8492 35.4541 41.7721 35.5473 41.5861C34.9253 41.8911 27.7715 41.0935 26.8732 41.623L26.7885 41.4772C26.3715 41.4789 25.9817 41.4806 25.6156 41.4839C25.4326 41.4873 25.2546 41.4889 25.0818 41.4923C24.9241 41.4923 24.7716 41.4923 24.6225 41.4923C24.036 41.504 23.5106 41.4755 23.0005 41.4554C22.7463 41.4353 22.4971 41.4152 22.2446 41.3951C21.9937 41.3733 21.7446 41.3314 21.487 41.2979C21.2294 41.2678 18.9128 41.2125 18.6416 41.1588C18.506 41.1304 18.367 41.1035 18.2247 41.0734C18.084 41.0365 17.9399 40.998 17.7925 40.9578C17.7128 41.1521 17.4416 41.1722 17.0925 41.1371C16.7467 41.0918 16.3112 41.0315 15.901 41.0432C15.0502 40.6562 14.2163 40.1284 13.3808 39.5486C12.5469 38.9638 11.708 38.3271 10.8487 37.6485C10.1911 37.2363 10.0453 37.2229 9.97583 37.2899C9.90804 37.3536 9.91312 37.5027 9.56567 37.3553C9.60974 37.2648 9.54025 37.1006 9.42839 36.9196C9.31653 36.7387 9.15891 36.5376 9.04197 36.355C8.8013 35.9981 8.66402 35.7702 9.16061 36.0818C9.04366 35.9662 8.9318 35.8556 8.82503 35.7501C8.71825 35.6445 8.62503 35.5339 8.53012 35.4334C8.34369 35.2273 8.16234 35.0447 8.00811 34.8536C7.84879 34.6677 7.69795 34.49 7.5488 34.3158C7.40644 34.1365 7.26576 33.9589 7.12001 33.7763C6.96917 33.5986 6.83527 33.4026 6.68104 33.2015C6.60477 33.101 6.52512 32.9971 6.44376 32.8899C6.3675 32.7793 6.28784 32.6637 6.20479 32.5447C6.12174 32.4257 6.03361 32.3001 5.94378 32.171C5.85226 32.0404 5.76921 31.8979 5.6743 31.7522C5.58108 31.6047 5.48278 31.4506 5.38109 31.2897C5.28618 31.1238 5.18618 30.9496 5.0811 30.7652C5.08619 31.1624 5.19805 31.5729 4.98789 31.4321C4.83027 31.1624 4.71671 30.8222 4.67773 30.5524C4.64722 30.2793 4.67773 30.0799 4.78281 30.0866L4.87942 30.2224C4.37435 29.4063 4.06081 28.4178 3.88454 27.3873C3.70828 26.3551 3.67607 25.2811 3.74556 24.2473C3.75234 23.9892 3.78116 23.7329 3.80488 23.4798C3.83031 23.2268 3.84386 22.9772 3.88115 22.7325C3.91335 22.4862 3.94217 22.2449 3.96589 22.007C4.00318 21.7708 4.03708 21.5378 4.0625 21.31C4.08453 21.0804 4.12182 20.8592 4.14724 20.6414C4.17605 20.4236 4.18453 20.2074 4.20826 19.9997C4.25402 19.5841 4.25063 19.1803 4.24554 18.8016V18.9709C4.31673 17.9437 4.49638 16.9183 4.74722 15.8979C5.04551 15.241 5.03195 15.4723 5.02348 15.7487C5.01501 16.0269 5.01331 16.3452 5.31669 15.9096C5.33703 15.8074 5.35397 15.7052 5.3777 15.6063C5.40482 15.5091 5.43024 15.4119 5.45567 15.3164C5.5099 15.1254 5.56583 14.9411 5.62346 14.7618C5.76074 14.4116 5.89294 14.0765 6.05225 13.7682C6.36919 13.1516 6.7268 12.6171 7.10645 12.1245C7.86913 11.1359 8.67249 10.3031 9.51822 9.19556C9.81312 9.11513 10.1114 8.97103 10.4351 8.80515C10.5961 8.7197 10.7555 8.62084 10.9216 8.51528C11.091 8.41642 11.2639 8.3075 11.4385 8.19021C12.1418 7.73278 12.9062 7.17481 13.7469 6.6822C14.5824 6.18455 15.4739 5.72042 16.3535 5.40373C16.5739 5.32498 16.7942 5.26131 17.0078 5.19764C17.1145 5.16747 17.2213 5.13564 17.3264 5.10883C17.4332 5.08705 17.5382 5.06694 17.6433 5.04683C17.8518 5.0083 18.0535 4.97646 18.2484 4.95468C18.4467 4.94295 18.6365 4.93792 18.8162 4.94295L18.5958 4.71842C18.9246 4.5073 19.1534 4.49389 19.3636 4.54249C19.5738 4.58605 21.8209 4.67318 22.0887 4.65643C21.9836 4.46373 21.2633 4.55757 21.6904 4.33471C22.0717 4.23753 22.4632 4.18391 22.8564 4.11857C23.0513 4.0817 23.2513 4.07165 23.4496 4.04987C23.6479 4.03144 23.8479 4.00965 24.0462 3.99625C24.2462 3.98955 24.4479 3.98284 24.6479 3.97614L24.9496 3.96776H25.275C25.7139 3.97111 26.1546 3.97447 26.597 3.97782C28.363 4.00295 35.3016 4.06997 37.0896 4.15375C40.6658 4.32299 39.1803 4.56259 42.7106 4.68323C50.4326 4.75528 47.7906 3.29418 51.0464 3.93593L50.1227 4.43357C55.336 3.83707 64.4231 4.45368 69.5263 3.94766C69.2229 4.06327 69.2128 4.2124 68.7162 4.21072C69.7941 4.57265 77.8414 4.22748 77.8584 3.93258C78.6533 3.96609 78.0431 4.19899 78.533 4.34979C79.6143 4.56259 81.2464 3.88734 81.821 4.24758C81.9193 4.30623 81.5176 4.36487 81.3193 4.39336C82.0243 4.21742 89.7412 4.4386 89.0666 4.01971C90.9818 4.2191 91.2058 3.83372 92.7329 4.0817C93.7294 3.61422 101.15 4.30623 101.467 3.64605C101.329 4.32801 107.908 4.19564 109.119 3.87561C108.714 4.0817 110.172 4.0884 109.697 4.37493C111.079 4.36487 117.485 4.23921 112.104 3.88901C119.789 4.70502 103.97 3.23219 105.404 4.27774C109.509 3.91079 126.67 3.66281 130.361 3.50363C130.227 4.18391 121.141 3.57233 121.299 4.28612C129.941 4.0063 134.531 3.42153 138.005 3.58573C138.905 3.67789 137.495 3.88063 134.621 3.99625C145.829 3.71643 154.236 4.05824 157.349 3.68794C157.34 3.75161 157.005 3.82031 156.686 3.87226C157.3 3.85047 158.113 3.97279 158.044 3.66281L157.446 3.74659C156.466 3.29753 165.022 2.80994 165.132 2.57201C164.09 3.45839 173.347 2.79486 171.693 3.91414C172.096 3.8555 172.603 3.70972 172.511 3.50195C173.111 3.56227 173.301 3.68291 172.693 3.91917C174.891 3.75161 179.249 3.42152 181.242 3.4299C181.235 3.57903 175.694 3.63767 175.488 3.81361C181.635 3.52206 182.649 3.23051 184.332 3.35618C184.23 3.44666 184.426 3.56395 183.923 3.56227C191.954 3.51703 199.128 2.78481 202.299 3.0663C201.364 3.71643 203.377 3.28078 203.546 3.84377L210.904 3.67621L204.567 3.40309C211.713 3.41315 202.297 3.00263 203.581 3.18694L218.347 3.41817L210.924 3.31094L203.686 3.09814C210.851 2.80826 209.177 2.38602 211.166 2.54185C210.763 2.59882 217.8 2.54855 218.578 2.88031H218.573C219.312 2.70103 220.073 2.51169 221.176 2.65244C221.463 2.83172 220.946 3.27575 221.132 3.39472C221.861 2.92388 229.769 3.26402 230.693 2.76302C230.385 2.88031 230.369 3.17689 230.471 3.23554L229.558 2.85351C230.249 2.97582 230.351 3.03447 230.239 3.27072C234.376 3.3411 231.634 2.55693 234.103 2.86356C233.91 2.89372 234.001 2.95069 233.598 3.00933C241.218 3.17019 239.971 2.76637 242.253 2.95404C242.926 3.52038 240.261 3.09311 241.031 3.57065C248.43 3.46844 257.115 2.89204 260.296 3.02441L259.703 2.96242C260.144 2.16317 269.267 3.35785 270.876 2.98085C270.482 3.03949 268.303 3.42488 268.41 3.33607C275.213 3.46509 277.511 3.14003 280.813 2.88702L280.404 3.09311C281.687 3.27575 283.785 3.19867 285.172 3.29251C285.584 3.08809 286.377 3.1216 285.894 2.82167C286.162 2.89539 286.426 2.95572 286.69 3.00766C286.95 3.06295 287.197 3.11154 287.448 3.15008C287.572 3.16684 287.697 3.18527 287.821 3.20202C287.945 3.22381 288.067 3.24224 288.189 3.26067C288.433 3.29753 288.678 3.31596 288.919 3.34948C288.362 3.46341 289.314 3.55892 290.262 3.69464C291.199 3.85215 292.133 4.04652 293.002 4.39001C293.865 4.7402 294.682 5.19931 295.334 5.87289C295.146 5.76733 294.901 5.67853 294.74 5.63999C294.575 5.60815 294.499 5.61821 294.65 5.69528C295.575 6.12423 296.472 6.6202 297.334 7.18152C297.353 6.75089 297.134 6.7777 296.753 6.17282C296.975 6.20131 297.294 6.31357 297.639 6.4761C297.975 6.65204 298.341 6.87656 298.646 7.12957C298.011 6.7643 297.924 6.88829 298.043 7.14801C298.166 7.40437 298.458 7.84002 298.621 8.10476C298.616 7.95898 298.853 8.0059 298.887 7.89196C299.28 8.6711 299.438 8.59235 299.69 8.54711C299.816 8.52365 299.955 8.51527 300.144 8.63089C300.239 8.68953 300.346 8.77834 300.47 8.91406C300.531 8.98276 300.599 9.05984 300.666 9.15367C300.732 9.24918 300.802 9.35809 300.875 9.48208L300.658 9.51224C300.814 9.65467 300.975 9.78871 301.138 9.92108C301.299 10.0551 301.451 10.1959 301.609 10.3383C301.927 10.6181 302.209 10.9432 302.456 11.3302C302.337 11.8664 301.778 10.7036 301.47 10.8628C301.666 11.1091 301.883 11.3369 302.122 11.5497C302.358 11.7659 302.588 11.9854 302.817 12.2066C303.258 12.6556 303.643 13.1466 303.72 13.7565C303.543 13.542 303.375 13.2588 303.178 12.9907C302.985 12.721 302.804 12.4462 302.604 12.2552C302.676 12.5769 302.717 12.8316 302.771 13.0309C302.822 13.2337 302.876 13.3862 302.934 13.5269C303.036 13.8134 303.173 14.0396 303.339 14.4619L303.312 14.3764C303.424 14.7099 303.541 15.04 303.644 15.3717C303.736 15.7085 303.841 16.0403 303.92 16.3771C303.909 16.1944 303.876 16.0185 303.853 15.8375C304.253 16.0973 304.507 16.4307 304.717 16.7926C304.826 16.9719 304.897 17.1679 304.97 17.3657C305.039 17.5651 305.107 17.7695 305.159 17.9823C305.259 18.4079 305.363 18.8519 305.473 19.3177C305.527 19.5506 305.612 19.7869 305.683 20.0332C305.759 20.2778 305.856 20.5292 305.976 20.7889C305.746 20.2845 305.605 20.0231 305.515 19.9025C305.42 19.7835 305.381 19.807 305.361 19.8874C305.312 20.0499 305.315 20.4387 305.076 20.3918C305.032 20.9346 304.932 21.7406 304.79 21.5228C305.024 21.9903 304.946 22.4041 304.909 22.8565C304.89 23.0827 304.853 23.3207 304.87 23.5888C304.875 23.7228 304.895 23.8635 304.922 24.016C304.944 24.1685 304.981 24.3294 305.036 24.507C304.958 24.5321 304.937 24.7918 304.885 25.0113C304.824 25.2308 304.741 25.4101 304.57 25.2811C304.527 26.5344 304.863 25.023 305.037 25.142C305.188 26.1474 304.817 27.2867 304.342 28.4529C303.861 29.6292 303.275 30.8239 302.917 32.2297C302.812 32.5196 302.695 32.7709 302.609 33.0105C302.565 33.1312 302.521 33.2451 302.48 33.3557C302.436 33.4646 302.395 33.5702 302.356 33.6707C302.278 33.8734 302.21 34.0661 302.146 34.2521C302.076 34.4348 302.009 34.609 301.943 34.7816C301.815 35.1351 301.666 35.4703 301.473 35.8489C301.38 36.0416 301.266 36.236 301.131 36.4438C300.995 36.6499 300.855 36.8844 300.665 37.1174C300.297 37.3285 300.316 37.114 300.419 36.856C300.473 36.7286 300.543 36.5812 300.597 36.4672C300.653 36.355 300.699 36.2745 300.699 36.2745C300.573 36.3751 300.456 36.4773 300.341 36.5745C300.222 36.6683 300.11 36.7638 300.002 36.8576C299.787 37.047 299.592 37.238 299.392 37.4223C299.194 37.6066 299.014 37.811 298.819 38.0071C298.624 38.2048 298.434 38.4176 298.231 38.6404C298.338 38.3891 298.073 38.4662 297.683 38.5533C297.504 38.7058 297.402 38.8331 297.334 38.9471C297.265 39.0593 297.226 39.1565 297.175 39.2554C297.124 39.3542 297.061 39.4514 296.936 39.5587C296.873 39.6123 296.797 39.6692 296.699 39.7296C296.6 39.7882 296.477 39.8435 296.329 39.9072C296.375 39.7798 296.421 39.6257 296.489 39.4548C296.553 39.2788 296.639 39.0862 296.773 38.8918C295.961 39.6324 295.163 40.4434 294.165 41.0684C293.97 41.0231 294.085 40.8556 294.278 40.6612C294.473 40.4651 294.751 40.2473 294.88 40.068C294.814 40.1133 294.746 40.1602 294.675 40.2088C294.602 40.254 294.528 40.2993 294.451 40.3462C294.299 40.44 294.139 40.5389 293.978 40.6394C293.655 40.8355 293.311 41.0214 293.001 41.2141C292.682 41.3884 292.39 41.5643 292.162 41.7269C291.929 41.8777 291.76 42.0218 291.696 42.1508C291.977 42.1039 292.267 42.0704 292.546 42.0067C292.102 42.201 292.196 41.7688 292.494 41.5727C292.723 41.3951 292.936 41.2862 293.121 41.2058C293.306 41.1237 293.472 41.0851 293.614 41.0717C293.901 41.0466 294.095 41.127 294.156 41.1756C293.919 41.323 293.675 41.4621 293.433 41.6062C293.716 41.7135 294.058 41.6799 294.419 41.5342C294.778 41.38 295.172 41.1488 295.55 40.8438C295.938 40.5573 296.309 40.2021 296.678 39.8804C296.86 39.7162 297.034 39.5486 297.212 39.3995C297.3 39.3241 297.389 39.2537 297.477 39.1867C297.561 39.1146 297.646 39.0476 297.731 38.9856C297.704 39.1398 297.675 39.2956 297.644 39.4514L297.539 39.9105C297.634 39.7899 297.731 39.6726 297.822 39.5486L298.09 39.175L298.353 38.8047C298.439 38.6807 298.517 38.55 298.6 38.4243C298.985 38.3104 299.424 38.3992 298.833 39.0292C299.409 38.7427 299.587 38.5198 299.731 38.3037C299.805 38.1981 299.877 38.0976 299.994 37.992C300.11 37.8881 300.271 37.7792 300.519 37.6435C300.641 37.5949 300.626 37.6552 300.566 37.7524C300.807 37.4139 301.046 37.0805 301.26 36.7303C301.2 36.9967 301.736 36.8694 301.161 37.3754C301.383 37.2011 301.575 37.0168 301.753 36.8359C301.932 36.6566 302.08 36.4689 302.214 36.2829C302.348 36.0986 302.468 35.9193 302.573 35.7451C302.673 35.5674 302.763 35.3965 302.848 35.234C302.931 35.0715 303.012 34.924 303.083 34.7799C303.153 34.6358 303.222 34.5051 303.295 34.3862C303.441 34.1499 303.607 33.9706 303.81 33.8483L303.751 34.0293C303.922 33.6824 304.046 33.416 304.132 33.2099C304.217 33.0038 304.256 32.8513 304.278 32.7458C304.319 32.533 304.263 32.4928 304.187 32.466C304.112 32.4408 304.015 32.4308 303.973 32.2867C303.951 32.2146 303.944 32.1107 303.956 31.9566C303.97 31.8024 303.99 31.5896 304.044 31.3132C304.609 31.0233 305.137 30.6882 305.692 30.3329L305.351 29.8939C305.41 29.7482 305.497 29.532 305.588 29.3728C305.681 29.2137 305.761 29.1047 305.837 29.1885C305.854 27.9754 305.588 29.3209 305.487 28.5903C305.7 28.2636 305.836 27.838 305.953 27.3906C306.017 27.1678 306.048 26.9332 306.09 26.7053C306.125 26.4741 306.171 26.2479 306.195 26.0284C306.22 25.8089 306.247 25.5978 306.28 25.4034C306.297 25.3062 306.314 25.2124 306.332 25.1253C306.348 25.0364 306.364 24.9527 306.383 24.8739C306.459 24.5623 306.578 24.3394 306.77 24.2657C306.458 23.7111 306.386 25.6765 306.263 24.0696C306.666 23.8635 306.654 23.3894 306.564 22.8113C306.512 22.5214 306.449 22.2064 306.414 21.878C306.364 21.5496 306.349 21.2094 306.414 20.8576C306.856 21.2362 306.741 22.5851 307 21.1592C306.905 21.0603 306.834 20.9447 306.78 20.8157C306.722 20.6867 306.676 20.5442 306.647 20.3901C306.585 20.0834 306.586 19.7316 306.57 19.3697C306.558 19.0061 306.57 18.624 306.529 18.2655C306.495 17.9069 306.453 17.5634 306.331 17.2886C306.049 17.3338 305.842 16.7289 305.534 15.9096C305.465 15.7018 305.376 15.4857 305.285 15.2595C305.192 15.0349 305.109 14.7953 304.998 14.5658C304.89 14.3345 304.778 14.1 304.663 13.8704C304.546 13.6425 304.409 13.4264 304.278 13.2186C304.388 13.2337 304.044 12.3657 303.456 11.3386C303.383 11.2096 303.31 11.0756 303.232 10.9432C303.151 10.8125 303.066 10.6801 302.983 10.5461C302.899 10.412 302.814 10.278 302.731 10.1423C302.644 10.0082 302.551 9.88087 302.465 9.75185C302.119 9.23075 301.751 8.76326 301.48 8.3762L301.585 8.3561C301.421 8.38123 301.215 8.31253 300.99 8.17849C300.763 8.04611 300.519 7.84505 300.241 7.63225C299.97 7.41442 299.685 7.16309 299.383 6.93353C299.234 6.81624 299.085 6.70063 298.939 6.58669C298.788 6.47777 298.638 6.37724 298.494 6.28173C298.619 6.16779 298.751 6.12423 298.941 6.15271C299.133 6.17952 299.372 6.28844 299.712 6.48448C299.541 6.34205 299.377 6.19293 299.202 6.05553L298.675 5.64669C298.585 5.63329 298.495 5.61318 298.397 5.58134C298.299 5.55286 298.192 5.51599 298.073 5.46573C297.956 5.41546 297.826 5.35346 297.68 5.27639C297.534 5.19764 297.373 5.10548 297.182 5.0083C297.351 4.953 297.526 4.89436 297.695 4.84576C296.941 4.36655 296.112 3.99792 295.219 3.65275C294.778 3.46677 294.312 3.30256 293.841 3.09814C293.604 2.9976 293.358 2.90545 293.114 2.79151C292.868 2.67757 292.616 2.56196 292.357 2.44299C292.233 2.6072 292.572 2.9976 292.631 3.29418C292.662 3.44163 292.629 3.5606 292.451 3.60584C292.272 3.65443 291.943 3.64438 291.389 3.52541C291.372 3.30423 291.394 2.92891 292.001 3.04285C291.901 3.02441 291.719 3.00766 291.518 2.97247C291.314 2.94566 291.09 2.89707 290.909 2.79989C291.238 2.77308 291.577 2.73454 291.909 2.72951C291.68 2.60887 291.526 2.56531 291.413 2.55525C291.301 2.54352 291.231 2.56698 291.167 2.59547C291.038 2.65244 290.933 2.72951 290.55 2.60552C290.641 2.32067 290.016 2.26538 290.185 2.06096C290.291 2.07101 290.458 2.13971 290.641 2.20171C290.821 2.27041 291.016 2.33575 291.184 2.32067C290.748 2.15982 290.262 1.99561 289.845 1.81967C289.428 1.64542 289.07 1.49461 288.904 1.34716C288.931 1.43764 288.913 1.5365 288.806 1.60353C288.752 1.63704 288.675 1.66217 288.57 1.6739C288.465 1.68898 288.33 1.69568 288.16 1.68395C287.291 1.57839 288.672 1.49796 288.623 1.37732C288.572 1.26171 288.617 1.13101 288.1 1.01707C287.658 1.19301 286.519 0.96178 286.507 1.41251C286.012 1.41083 285.921 1.20306 285.729 1.08242C284.853 1.27846 281.636 1.13939 282.624 1.6119L282.85 1.64374C282.808 1.65212 282.758 1.65379 282.706 1.66385C279.833 2.1062 278.773 1.41251 273.867 1.60185L273.872 1.45272C272.171 1.62363 260.322 1.55326 259.107 1.87329C258.603 1.87329 257.918 1.60185 258.134 1.42424C256.834 1.5365 254.119 1.70406 254.781 1.45775C253.546 1.19804 246.649 1.22652 248.441 1.26674C246.751 1.13772 254.049 0.899784 245.041 1.30695C247.713 0.924918 241.712 0.826059 235.77 0.939998L242.093 1.21312C241.19 1.26841 235.261 1.2349 234.46 1.20306L234.894 0.702066C231.436 0.0921566 233.742 1.74092 229.054 0.718822C228.139 1.06902 230.932 0.965131 230.113 1.37565C228.524 1.30862 221.727 0.588127 221.229 0.586451C219.051 0.308306 219.197 1.32035 216.915 1.12934C217.207 1.30862 217.483 1.78616 210.639 1.95372C209.048 1.8867 203.03 1.20306 204.036 1.05896C204.417 1.04388 204.602 1.10085 204.585 1.16117C210.751 1.09583 211.427 1.01875 210.797 0.826059L210.59 1.00535C209.8 0.822708 217.833 0.841139 218.348 0.547913C217.145 0.718822 201.959 0.841139 202.849 0.934971C200.809 0.675257 210.396 0.926593 202.641 0.752333C202.975 0.851192 203.284 1.06064 202.95 1.05896C199.867 0.837788 201.592 1.39911 194.365 1.47618C193.179 1.20306 194.791 0.824383 192.689 1.05394C191.406 0.869624 192.418 0.579749 192.928 0.433974C191.013 0.779143 184.21 0.207771 183.116 0.1441L184.125 0C183.521 0.0854544 183.027 0.0837788 182.525 0.0821032L183.101 0.440676C182.51 0.37868 182.008 0.377005 182.018 0.227878C181.408 0.462459 182.486 0.822708 181.274 1.14442C180.484 0.96178 173.73 1.33878 173.457 0.864597C175.942 1.02545 173.183 0.387058 175.284 0.311657C174.879 0.368627 174.384 0.366951 173.789 0.303279C173.7 0.249661 173.874 0.20442 174.035 0.177611C171.659 -0.24631 172.944 0.715471 165.34 0.703742C165.654 0.43565 164.769 0.196042 164.368 0.253012C165.361 0.258039 164.842 0.700391 163.932 0.904811C162.352 0.697039 157.076 1.06064 156.249 1.03551L157.193 1.13436C156.873 1.40246 156.083 1.36727 149.844 1.45105C149.749 1.24328 155.983 1.30862 155.59 1.21647C154.368 1.6873 147.688 0.728875 145.985 1.04556C145.195 0.864597 145.909 0.542887 140.076 0.418894C138.166 0.765738 138.007 0.0519428 133.431 0.338466C134.009 0.698715 134.11 0.60991 132.697 0.96178L138.568 0.708769L133.88 1.23155C137.446 1.23657 138.551 1.00535 139.148 1.06734C138.137 1.36057 138.243 1.27176 138.719 1.57001C137.356 1.03048 133.446 1.88502 131.871 1.51975L131.919 0.628341C129.55 0.231229 122.572 1.08577 119.495 0.861246L120.484 1.0154C120.072 1.36895 118.584 1.06399 117.589 1.20809C117.682 0.909838 111.919 0.802601 111.494 0.616612C111.545 0.837788 106.16 0.596505 105.88 1.19133L104.507 0.79925C102.023 0.638394 101.672 1.64709 94.1465 1.54656C94.8651 1.22317 93.7804 1.01205 95.3803 0.780818C94.5837 0.777467 93.8668 0.723849 93.8532 0.929945C93.3872 0.743956 110.033 1.33041 109.299 1.04891C108.963 1.17961 105.77 1.49126 104.875 1.46613C104.777 1.40581 104.878 1.31868 104.878 1.31868C104.875 1.46613 103.477 1.51975 104.26 1.84816C101.804 0.919891 92.2566 1.91518 90.1194 1.11761C88.3788 1.21814 82.6701 1.31365 81.0905 1.33543C81.1922 1.24663 81.0956 1.18631 81.3939 1.21814C79.216 0.941674 80.0549 2.07269 77.5754 1.76438C76.3093 1.28349 78.8923 1.50467 78.1025 1.32203C77.7584 0.341817 69.9721 1.45608 68.3026 0.883028L68.706 0.826059C67.4315 0.492619 65.5943 1.19636 63.5113 1.12766C63.5113 1.12766 63.613 1.04053 63.5232 0.980212C62.0978 1.47953 63.4682 1.64542 56.3242 1.78449C56.9479 1.40078 57.2344 1.58174 56.8547 1.19133C55.9564 1.24663 57.1174 1.81632 55.3243 1.92524C54.7412 1.71579 50.8786 1.53148 50.7057 1.11593L54.9667 1.09415C54.1006 0.556291 50.2074 1.11258 49.3159 1.01875L49.4295 0.784169C46.8364 0.861246 43.1869 1.45272 40.4005 1.41083L40.6887 1.58845C39.1667 2.1749 42.4626 1.25836 40.9424 1.69568L40.4831 1.10085C39.478 1.24495 38.9963 1.67558 37.1947 1.78784C38.215 1.34716 38.2899 1.12096 39.595 0.857895C38.5984 0.852868 38.2438 0.90146 37.7252 1.19636C38.1269 1.13939 38.6319 0.993616 39.0285 1.0841C37.8065 1.55158 36.1981 1.78281 27.5328 1.77108C27.709 1.19469 27.941 1.12096 26.4224 1.08075C26.0427 1.07069 25.6495 1.05896 25.2614 1.04891C25.1648 1.04556 25.0665 1.04221 24.9699 1.03886C24.8682 1.03718 24.7682 1.03383 24.6682 1.03215C24.4682 1.02713 24.2716 1.01875 24.0818 1.0087C23.892 0.993616 23.7089 0.98859 23.5327 0.980212C23.3581 0.970158 23.1903 0.955078 23.0344 0.934971C22.7225 0.888055 22.453 0.841139 22.248 0.754009C22.0158 0.809303 21.7853 0.861246 21.5531 0.911513C21.3243 0.970158 19.0382 1.02713 18.8094 1.07907C18.3484 1.17458 17.8959 1.30695 17.4332 1.41083C16.5196 1.65212 15.5959 1.89172 14.6723 2.21176C12.8232 2.8267 10.9368 3.69464 9.18094 5.04516C9.62838 4.98651 9.79278 5.02338 9.79278 5.09207C9.79448 5.1658 9.63008 5.27639 9.44704 5.42887C9.07586 5.72544 8.58775 6.12758 8.99282 6.40237C8.63859 6.74754 8.38437 6.97039 8.21488 7.12287C8.04709 7.27535 7.94879 7.34237 7.89625 7.35075C7.46237 7.61884 7.05391 7.92045 6.63698 8.22205C6.4302 8.37453 6.2336 8.53873 6.03022 8.69791L5.72684 8.94087L5.43533 9.19556C5.10314 9.39663 5.21161 9.17713 5.3794 8.89731C5.54549 8.61748 5.79294 8.29745 5.67939 8.26226C5.28957 8.66943 5.06077 8.92412 4.88789 9.06486C4.71671 9.20896 4.61502 9.25085 4.5218 9.27096C4.33537 9.31117 4.19978 9.26426 3.64896 9.81385C4.10487 9.75353 3.56591 10.712 2.82018 11.7759C3.03881 11.5497 3.24389 11.3168 3.471 11.1024L4.14216 10.4623C3.98115 10.8242 3.82861 11.1208 3.68116 11.3738C3.54049 11.6302 3.41168 11.8446 3.28117 12.0273C3.01339 12.3892 2.78458 12.6506 2.53714 12.9086C2.2863 13.165 2.06258 13.4415 1.83038 13.8403C1.71174 14.0396 1.60836 14.2759 1.51006 14.5608C1.41176 14.8456 1.31007 15.174 1.24566 15.5728C1.25583 15.3985 1.25922 15.2209 1.27617 15.0467L1.32701 14.5222C1.20668 14.9176 1.0338 15.479 0.835508 16.1241C0.747375 16.4491 0.659243 16.796 0.567721 17.1529C0.482979 17.5114 0.41688 17.8851 0.347391 18.2554C0.284682 18.6274 0.247395 19.0044 0.210108 19.368C0.177906 19.7316 0.177906 20.0885 0.177906 20.4219C0.179601 20.5057 0.181296 20.5861 0.182991 20.6665C0.18977 20.747 0.19655 20.8257 0.205024 20.9028C0.220277 21.057 0.240616 21.2044 0.262649 21.3435C0.30841 21.6216 0.366034 21.8646 0.459251 22.064C0.344001 22.3404 0.0796049 22.7175 0.0304543 21.9986C0.00503158 22.4845 -0.0170015 22.9855 0.0185904 23.4932C0.033844 23.7479 0.0423183 24.0026 0.0728255 24.2607C0.106723 24.517 0.138925 24.7734 0.172822 25.0314C0.203329 25.2895 0.259259 25.5458 0.310104 25.8022C0.36434 26.0586 0.406711 26.3149 0.474505 26.5662C0.540604 26.8176 0.606703 27.0689 0.672802 27.3203C0.733817 27.5716 0.823644 27.8146 0.896522 28.0575C1.50158 30.0129 2.33884 31.7237 2.82018 33.1496L2.48121 32.9904C2.6812 33.297 2.91 33.5316 3.1405 33.788C3.25575 33.917 3.36422 34.0527 3.46083 34.2136C3.55744 34.3744 3.63879 34.5604 3.71506 34.7766C3.60998 34.7866 3.36253 34.6492 3.53371 34.9391C3.6015 35.0095 3.72184 35.1335 3.87268 35.291C3.94556 35.3697 4.02691 35.4569 4.11504 35.5507C4.20317 35.6428 4.29808 35.74 4.39469 35.8406C4.5879 36.0416 4.77434 36.2678 4.96246 36.479C5.1489 36.6934 5.31499 36.9096 5.43702 37.1174L4.72519 36.6331C5.77769 38.2283 6.9573 39.1716 8.13183 39.9038C9.31823 40.6344 10.5097 41.1672 11.8859 41.871C11.7995 42.0134 11.8859 42.2228 12.091 42.4708C12.2961 42.7188 12.63 42.9819 13.013 43.2634C13.7943 43.7945 14.8163 44.3072 15.5248 44.5837L15.4434 44.6558C17.5738 45.4232 21.587 45.6025 23.4428 45.5539L23.7903 45.5455L24.1377 45.5204C24.3682 45.5019 24.5987 45.4835 24.8292 45.4651L25.0004 45.45L25.1597 45.4316L25.4801 45.3947C25.6936 45.3712 25.9088 45.3461 26.1241 45.3226C26.9885 45.2288 26.3532 45.14 27.3006 45.0747C36.3337 45.7952 36.8668 45.3763 40.648 45.7801C40.0701 45.6594 40.7429 45.2623 41.4141 45.197C42.3022 45.331 43.8665 44.7362 43.7258 45.3444L43.4089 45.3327C49.2174 45.9292 49.5159 45.7717 50.9396 45.7868L51.1752 44.9909C54.9004 46.1487 64.5757 44.5653 66.6078 45.6025C67.5061 45.4031 68.6196 45.4047 69.5111 45.207L69.4636 45.6343C71.9533 45.7432 78.3364 45.7968 81.4142 45.6946L80.7871 45.9996C82.5226 46.0264 88.1192 44.768 89.7192 44.7429L90.2005 45.3796C93.2292 45.3696 99.9091 45.9292 102.902 45.3511C102.853 45.445 102.763 45.6293 102.273 45.6544C103.699 45.6712 110.872 46.085 110.355 45.2104C110.39 45.7801 100.229 45.2657 101.865 45.0143L101.611 45.4349C102.992 44.8987 103.036 44.7513 104.963 44.6021C105.421 44.6574 105.363 44.9389 104.756 44.8317C106.278 45.0512 109.026 44.4329 110.872 44.6574L110.184 44.9255C111.75 44.9574 116.765 44.8133 117.628 44.4999C118.612 44.3324 120.599 44.6055 120.831 44.9859C121.043 44.7546 121.9 44.4446 122.824 44.5536C122.948 44.6977 122.612 44.7865 122.443 44.83C130.202 45.1165 131.477 44.3408 133.278 44.7546C133.316 44.8937 133.432 44.9641 133.582 45.006C131.5 44.9959 129.824 44.9724 129.982 44.9423C129.982 45.3293 131.663 45.398 130.326 45.9326C131.675 45.641 136.553 45.006 138.19 45.1886C138.27 45.2255 138.348 45.2623 138.407 45.3226L138.237 45.3662C138.615 45.4048 138.954 45.3696 139.273 45.3042C139.797 45.3679 145.266 45.4148 145.77 45.4198C145.963 45.7399 147.697 45.5924 148.536 45.6092C148.466 45.1852 149.564 45.2539 148.536 44.9037C148.669 44.9339 148.378 44.954 147.82 44.9724C147.695 44.9842 147.546 44.9909 147.463 45.016C147.48 45.0043 147.498 44.9909 147.52 44.9792C146.97 44.9909 146.253 45.0009 145.437 45.0076C146.1 44.7915 146.792 44.6105 147.719 44.8468C148.149 44.5737 148.622 44.2938 148.888 44.1631C150.035 44.7546 157.385 45.0747 157.693 45.4383C160.252 45.2003 174 45.2808 175.61 44.4849C181.476 44.3826 181.586 44.7127 181.857 44.8384C181.437 44.9188 175.798 44.9054 175.571 45.021C182.164 44.8166 190.159 44.9423 190.506 44.386C192.34 44.6373 189.476 44.8987 191.996 44.8066L191.655 44.9775C201.752 45.8672 205.422 43.5566 210.919 44.6993C210.537 44.629 210.348 44.5971 204.617 44.5033C221.675 45.006 235.57 44.0308 241.753 44.8284C247.622 44.9892 252.95 44.634 254.023 44.3642L254.405 44.82L248.558 44.2938C258.866 43.9085 270.533 45.4114 273.825 44.6842L268.774 44.3776C274.582 44.4363 275.111 44.1967 274.913 44.5502C275.033 44.4949 275.301 44.2318 275.762 44.391L275.798 44.629L280.758 44.2201C283.009 44.3927 280.406 45.1651 283.692 45.2121C284.914 45.1199 287.17 44.5184 286.712 44.3592C286.219 44.3475 285.453 44.2101 285.416 43.9721L286.533 43.8481C286.734 43.1461 287.594 42.4272 284.852 41.9363L282.941 42.3653L282.326 42.0251L283.935 42.0033C283.023 41.6833 282.443 41.9665 281.796 42.1608C281.643 41.9799 281.374 41.8525 280.996 41.7855L279.119 42.4557C278.892 42.1809 279.96 41.9112 278.703 41.7587C277.825 42.0703 279.545 42.3753 276.035 42.5797C275.122 42.2597 277.443 42 278.404 42.2731C278.253 42.0921 274.391 41.9765 274.816 41.8978C273.861 42.1139 274.323 41.9899 273.83 42.3619C272.877 41.9681 260.842 42.4641 260.935 41.8006C260.635 41.9598 259.254 42.3217 258.376 42.3502C259.979 41.5543 257.635 42.3033 258.059 41.4504C256.872 42.1659 241.954 41.7687 234.716 42.1659C234.833 42.1089 235.065 41.9933 235.249 42.0301C234.066 41.9715 233.724 41.7553 230.907 41.6196C230.755 42.2111 234.529 42.3451 233.535 42.7104C232.086 42.1407 234.415 42.0167 233.961 41.4688C234.034 41.948 229.387 41.9464 229.88 42.3451C228.771 41.9916 230.449 42.1742 229.88 41.685C229.685 42.4239 228.847 41.8106 222.79 42.263C221.186 41.8994 222.376 41.571 220.615 41.7956C219.776 41.5694 221.344 41.308 221.344 41.308H221.353ZM137.761 42.5848V42.5764C138.122 42.5663 138.431 42.5579 138.626 42.5529C138.446 42.5596 138.195 42.5697 137.761 42.5848ZM131.67 42.5915C132.099 42.6082 132.632 42.6116 133.197 42.6082C133.321 42.754 133.187 42.9048 132.832 42.8981C133.024 42.8009 132.195 42.7154 131.67 42.5915ZM146.829 45.5287C146.271 45.5891 146.085 45.5053 146.009 45.4181C146.271 45.4114 146.58 45.3964 146.983 45.3679C147 45.3528 147.032 45.3344 147.049 45.3159C146.997 45.3964 146.936 45.4734 146.829 45.5287Z" fill="#EDEAE0"/>
</svg>
