<svg width="218" height="21" viewBox="0 0 218 21" fill="none" xmlns="http://www.w3.org/2000/svg">
<path d="M0.710524 7.67518e-06L6.03517 7.67518e-06C6.22351 7.67518e-06 6.41184 0.0702679 6.54025 0.195175L14.065 5.90967C14.6214 6.33123 15.4346 6.33904 15.9996 5.90967L23.5928 0.195175C23.7298 0.0702679 23.9096 7.67518e-06 24.0979 7.67518e-06L29.3969 7.67518e-06C29.7906 7.67518e-06 30.1074 0.288855 30.1074 0.647963L30.1074 20.352C30.1074 20.7112 29.7906 21 29.3969 21H24.4318C24.038 21 23.7212 20.7112 23.7212 20.352L23.7212 8.68104C23.7212 8.32194 23.4045 8.03309 23.0107 8.03309L7.071 8.03309C6.67721 8.03309 6.36047 8.32194 6.36047 8.68104L6.36047 20.352C6.36047 20.7112 6.04373 21 5.64995 21H0.710524C0.31674 21 0 20.7112 0 20.352L0 0.647963C0 0.288855 0.31674 7.67518e-06 0.710524 7.67518e-06Z" fill="white"/>
<path d="M95.1843 4.66841L86.5296 4.66841C86.1359 4.66841 85.8191 4.37956 85.8191 4.02045V0.647963C85.8191 0.288855 86.1359 7.67518e-06 86.5296 7.67518e-06L111.646 7.67518e-06C112.04 7.67518e-06 112.357 0.288855 112.357 0.647963V4.02045C112.357 4.37956 112.04 4.66841 111.646 4.66841L102.992 4.66841C102.598 4.66841 102.281 4.95725 102.281 5.31636V20.352C102.281 20.7112 101.964 21 101.57 21L96.5968 21C96.203 21 95.8863 20.7112 95.8863 20.352V5.32417C95.8863 4.96506 95.5696 4.67621 95.1758 4.67621L95.1843 4.66841Z" fill="white"/>
<path d="M116.088 0L121.062 0C121.456 0 121.772 0.288847 121.772 0.647955V7.471C121.772 7.83011 122.089 8.11896 122.483 8.11896L155.792 8.11896C156.186 8.11896 156.502 7.83011 156.502 7.471V0.647955C156.502 0.288847 156.819 0 157.213 0L162.187 0C162.58 0 162.897 0.288847 162.897 0.647955V20.352C162.897 20.7111 162.58 21 162.187 21H157.213C156.819 21 156.502 20.7111 156.502 20.352V13.4431C156.502 13.084 156.186 12.7952 155.792 12.7952L122.483 12.7952C122.089 12.7952 121.772 13.084 121.772 13.4431V20.352C121.772 20.7111 121.456 21 121.062 21H116.088C115.694 21 115.378 20.7111 115.378 20.352V0.647955C115.378 0.288847 115.694 0 116.088 0Z" fill="white"/>
<path d="M166.665 0L183.05 0C183.444 0 183.761 0.288847 183.761 0.647955V3.87212C183.761 4.23123 183.444 4.52007 183.05 4.52007L173.06 4.52007C172.666 4.52007 172.349 4.80892 172.349 5.16803V15.832C172.349 16.1911 172.666 16.4799 173.06 16.4799H183.05C183.444 16.4799 183.761 16.7688 183.761 17.1279V20.352C183.761 20.7111 183.444 21 183.05 21H166.665C166.271 21 165.955 20.7111 165.955 20.352V0.647955C165.955 0.288847 166.271 0 166.665 0Z" fill="white"/>
<path d="M73.6119 20.8361L43.7528 20.8361C37.6577 20.8361 32.5214 16.519 32.2389 10.9762C31.9307 5.03535 37.144 0.117132 43.5901 0.117132L73.4493 0.117132C79.5444 0.117132 84.6807 4.43423 84.9632 9.97698C85.2713 15.9179 80.058 20.8361 73.6119 20.8361ZM43.5816 5.30858C40.3114 5.30858 37.6834 7.84575 37.9316 10.8747C38.1542 13.5837 40.7138 15.6446 43.6929 15.6446L73.4835 15.6446C76.4626 15.6446 79.0222 13.5837 79.2447 10.8747C79.493 7.84575 76.8649 5.30858 73.5948 5.30858L43.573 5.30858H43.5816Z" fill="white"/>
<path d="M211.763 13.6539C211.447 13.326 211.566 12.8108 212.003 12.6312C214.537 11.6086 216.309 9.28996 216.309 6.59666C216.309 3.16952 213.45 0.359115 209.794 0.0312344C209.563 0.00781436 209.341 7.67518e-06 209.11 7.67518e-06L187.366 7.67518e-06C186.972 7.67518e-06 186.655 0.288855 186.655 0.647963V3.87212C186.655 4.23123 186.972 4.52008 187.366 4.52008L207.509 4.52008C207.56 4.52008 207.611 4.52008 207.663 4.52008C207.689 4.52008 207.706 4.52008 207.731 4.52008C209.221 4.52008 210.436 5.62082 210.436 6.98699C210.436 8.35316 209.298 9.38365 207.868 9.4461C207.86 9.4461 207.851 9.4461 207.843 9.4461C207.843 9.4461 207.808 9.4461 207.766 9.4461C207.757 9.4461 207.748 9.4461 207.74 9.4461C207.74 9.4461 207.731 9.4461 207.723 9.4461C207.132 9.4461 204.427 9.4461 202.655 9.4461C202.039 9.4461 201.713 10.1019 202.116 10.5234L211.969 20.7736C212.106 20.9141 212.303 20.9922 212.508 20.9922H217.285C217.901 20.9922 218.227 20.3364 217.816 19.9149L211.772 13.6461L211.763 13.6539Z" fill="white"/>
</svg>
