<svg width="10" height="17" viewBox="0 0 10 17" fill="none" xmlns="http://www.w3.org/2000/svg">
<path d="M0.293971 16.0061C0.135159 15.4771 0.773786 15.5679 0.767028 15.1453C0.777165 15.1077 0.959629 15.3362 0.969766 15.236C0.905566 14.7727 1.41917 14.6099 1.90236 14.5661L1.94291 14.6319C2.03414 14.6225 1.90912 14.3939 1.99022 14.3658C2.02739 14.4002 2.02739 14.4315 2.09159 14.4659C1.9936 14.3501 2.13551 14.3282 2.07469 14.228C2.13889 14.2499 2.22675 14.3345 2.30446 14.3532L2.20647 14.2061C1.98684 13.843 2.43624 14.0339 2.39232 13.7804C2.41597 13.8117 2.42948 13.8461 2.46665 13.8649C2.46665 13.5205 2.73697 13.3358 2.87889 13.0791C2.91606 13.1292 2.99039 13.2137 3.0546 13.2482C2.92957 13.1136 2.95998 13.0228 2.99039 12.9445C3.15596 13.051 2.95998 12.7379 3.1019 12.7473L3.12893 12.7817C3.03094 12.6002 3.28437 12.7943 3.14921 12.5939L3.29112 12.6659C3.11542 12.4656 3.46345 12.6941 3.40263 12.5657L3.36208 12.5282C3.35195 12.4499 3.47021 12.5219 3.47359 12.4593L3.50062 12.4781C3.53103 12.3529 3.68646 12.4092 3.53441 12.2715C3.68646 12.3591 3.51076 12.3967 3.73377 12.5188C3.84528 12.1212 4.15614 11.8927 4.42646 11.636C4.51769 11.6642 4.55824 11.6642 4.62244 11.7111C4.61906 11.6579 4.69678 11.589 4.64271 11.4951C4.63596 11.5076 4.73733 11.5515 4.76098 11.5452C4.86911 11.5515 4.64609 11.3386 4.77112 11.3511C4.79139 11.4075 4.83194 11.4607 4.89614 11.5076C4.8218 11.3542 4.9029 11.3135 4.91979 11.229C4.93669 11.2603 4.94006 11.2885 4.99075 11.3292C4.91641 11.1476 5.12929 11.2541 5.0955 11.1257L5.16308 11.2259C5.35568 11.2478 5.00427 11.0318 5.13942 11.0224C5.14956 11.0631 5.19011 11.0913 5.2239 11.1257C5.13267 10.9128 5.29486 10.8596 5.30837 10.7469C5.31513 10.7626 5.34216 10.7845 5.34216 10.7845C5.39623 10.6968 5.52463 10.6718 5.53476 10.5309C5.60234 10.5403 5.74088 10.7407 5.78819 10.6374C5.6091 10.4746 5.84901 10.4464 5.60234 10.3024C5.69696 10.268 5.87266 10.2304 5.85577 10.1334C5.89294 10.2241 6.10581 10.3024 6.06526 10.3681L6.21394 10.4276C6.28152 10.4996 6.14636 10.4464 6.25111 10.5184C6.27138 10.4871 6.28152 10.3462 6.33558 10.3494C6.27814 10.1991 6.12271 9.96744 6.18353 9.8704C6.21394 9.97057 6.39978 10.0301 6.40654 10.0833L6.18353 9.66066C6.2038 9.62622 6.32882 9.78587 6.32207 9.70448C6.27138 9.66379 6.26125 9.61996 6.23759 9.573C6.268 9.58239 6.30855 9.42587 6.49439 9.573C6.57549 9.62622 6.48764 9.64813 6.57887 9.67944C6.62955 9.62935 6.57211 9.573 6.61942 9.52291L6.64307 9.54483C6.70389 9.53857 6.6701 9.38204 6.53494 9.32882C6.50453 9.34448 6.64983 9.41648 6.56197 9.40396C6.48426 9.28813 6.51467 9.20674 6.56535 9.15665C6.57549 9.20048 6.62617 9.24117 6.66672 9.29126C6.59914 9.1003 6.62955 8.99073 6.64983 8.86864C6.56873 8.79038 6.77147 9.03456 6.71741 9.00639C6.93028 9.02204 6.75795 8.66516 7.008 8.74656C7.008 8.7716 6.88298 8.64325 6.90663 8.66516C6.96407 8.63073 7.08234 8.74343 7.06882 8.67455C7.14316 8.73716 7.08572 8.61821 7.09585 8.56812C7.06206 8.50551 7.13978 8.59316 7.1195 8.62447C7.13978 8.49299 7.0722 8.35525 7.26142 8.3709C7.20398 8.33646 7.0722 8.2269 7.08571 8.22377L7.22763 8.29577C7.32562 8.32394 7.25466 8.25194 7.38982 8.30203C7.30873 8.25507 7.32562 8.29264 7.34252 8.33646C7.35941 8.38029 7.37631 8.43038 7.33238 8.37716C7.46754 8.42099 7.15329 8.22064 7.3459 8.31768C7.36955 8.28638 7.21412 8.20498 7.38644 8.23316C7.35265 8.23316 7.58918 8.32707 7.6027 8.2989C7.61959 8.24881 7.5385 8.26446 7.51485 8.21751L7.46416 8.18307C7.29521 8.1455 7.51822 8.15803 7.31211 8.12985C7.46416 8.15177 7.2648 8.0735 7.56553 8.12046L7.79868 8.16116C7.80206 8.13924 7.57567 8.09542 7.47768 8.0735C7.50133 8.0735 7.55877 8.0735 7.59594 8.07976C7.21074 8.0422 7.6669 8.04533 7.37631 8.01089C7.4574 8.0015 7.48106 7.98585 7.51485 7.9702C7.51485 7.95454 7.53174 7.93889 7.65338 7.92637C7.50133 7.90446 7.3459 7.90133 7.40334 7.87002C7.44389 7.87002 7.46078 7.87628 7.54526 7.87002C7.63987 7.84185 7.53174 7.84498 7.4574 7.84185C7.51822 7.84185 7.63649 7.77611 7.7311 7.72602C7.59594 7.71663 7.42361 7.77298 7.30873 7.79489C7.46754 7.74793 7.3932 7.74167 7.31886 7.74167C7.24453 7.74167 7.17695 7.74793 7.29859 7.68532C7.3459 7.67593 7.48781 7.66967 7.5385 7.61958C7.80544 7.47871 7.2648 7.65089 7.36279 7.5601L7.14316 7.67906C7.26818 7.59454 6.97083 7.70724 7.19384 7.58515C7.10599 7.61958 7.2175 7.50063 7.02489 7.63837C7.0553 7.6008 7.05193 7.57576 7.04179 7.5601C7.02489 7.53819 7.02151 7.54445 6.97759 7.50689C6.91339 7.45054 6.87284 7.37854 6.9911 7.20636C6.94718 7.21888 6.93366 7.15314 6.85595 7.2408C6.78837 7.35349 6.96069 7.21262 6.90663 7.28149C6.88636 7.2721 6.83567 7.3128 6.81202 7.33471C6.8154 7.26584 6.80188 7.22827 6.97421 7.1281C7.00124 6.95905 6.6059 7.31906 6.57211 7.16566C6.64645 7.10619 6.66672 7.07175 6.62617 7.0561L6.45047 7.11558C6.4133 7.03105 6.57211 6.93401 6.69038 6.82131C6.63631 6.80879 6.59914 6.76496 6.49439 6.8307L6.60252 6.65227C6.52481 6.78062 6.50115 6.69296 6.45723 6.70548L6.50453 6.69296C6.54846 6.63974 6.4775 6.63348 6.44371 6.62722C6.37613 6.69922 6.38627 6.76496 6.38627 6.80566C6.31531 6.83696 6.30179 6.80253 6.21732 6.83696C6.34234 6.73679 6.24435 6.70861 6.22746 6.67105C6.2207 6.61783 6.08554 6.73679 6.08216 6.72427C6.14298 6.66792 6.04161 6.66792 6.14974 6.61157C6.18015 6.60218 6.11595 6.68983 6.18691 6.6554C6.21056 6.59592 6.31869 6.49887 6.20042 6.53018C6.10919 6.55522 5.97741 6.75244 5.99093 6.62722C6.03485 6.6147 6.08554 6.574 6.1396 6.54896V6.43939L6.03485 6.53644C6.05513 6.50513 6.06864 6.502 6.07878 6.48322C5.95038 6.57087 5.95714 6.43313 5.8186 6.53957C5.77805 6.52392 5.83211 6.41435 5.8186 6.37678H5.83211C5.86253 6.28287 5.77467 6.27974 5.6733 6.32044L5.69696 6.30165C5.68682 6.27661 5.626 6.25157 5.54152 6.28913C5.57531 6.17017 5.92673 5.90095 5.74088 5.97921C5.6902 5.93852 5.47056 6.09191 5.42326 6.17017C5.40974 6.02304 5.13942 6.09504 5.2239 5.86965C5.16984 5.89782 5.14956 5.92913 5.09888 5.92913C5.0144 5.7726 4.70692 5.80078 4.81842 5.5159C4.89952 5.50964 4.92655 5.41886 4.98737 5.36251C4.86235 5.42199 5.05157 5.23729 4.87586 5.37816C4.78125 5.46895 4.73395 5.50964 4.73057 5.57851C4.60555 5.5566 4.49066 5.45329 4.53797 5.3312C4.51431 5.39068 4.47039 5.40321 4.42308 5.41573C4.58189 5.27799 4.55148 5.20599 4.45349 5.21851L4.3555 5.2999L4.42308 5.1872C4.37578 5.19972 4.21021 5.35312 4.25751 5.23103C4.2913 5.19659 4.32509 5.15903 4.34536 5.12772C4.2271 5.15903 4.0345 5.22164 4.06829 5.10581L4.16628 4.94302C4.13249 4.93989 4.01422 4.98372 4.01085 5.05259C4.01085 4.90233 3.97368 4.84598 4.06491 4.71137C3.63916 4.84911 3.42966 4.67693 3.28774 4.50789L3.36208 4.44841C3.38574 4.34823 3.21679 4.54232 3.23706 4.46719C3.31816 4.4171 3.34857 4.30128 3.46345 4.25745C3.47697 4.13223 3.26409 4.29502 3.18975 4.28876C3.09176 4.36702 3.28099 4.26371 3.15596 4.36389C3.11542 4.38893 3.14245 4.21988 2.99377 4.33884C3.03432 4.2731 3.14583 4.19171 3.21341 4.14475L3.10866 4.17293C3.22354 3.97884 3.504 4.00075 3.65605 3.77223L3.59861 3.7597C3.71012 3.59379 3.85541 3.69083 3.81824 3.56561C3.7135 3.59379 3.47697 3.75031 3.44994 3.83797C3.33167 3.8004 3.08163 4.11032 3.01067 4.02266C3.06811 3.92562 3.09852 4.06649 3.19651 3.9444C3.26747 3.80353 3.0546 3.92875 3.05797 3.85988C3.04446 3.9444 2.87213 4.04458 2.82145 4.04458C2.8451 3.9444 2.98026 3.94753 2.93295 3.87866C2.84172 3.9444 2.72683 3.94753 2.72008 4.04458C2.51734 4.19171 2.70656 3.93814 2.53423 4.03832C2.64236 3.90058 2.8924 3.82231 2.88903 3.70023C2.77752 3.82544 2.63898 3.77849 2.49031 3.98197C2.50044 3.92562 2.59505 3.83171 2.68967 3.77849C2.72683 3.67518 2.37542 3.90371 2.60519 3.66579L2.46665 3.77223C2.49706 3.72214 2.51058 3.67831 2.55789 3.59692C2.52748 3.56561 2.28081 3.6564 2.47341 3.48422C2.443 3.49361 2.37542 3.41535 2.27405 3.56248C2.24026 3.68144 2.42273 3.52179 2.27405 3.71275C2.38556 3.54683 2.1862 3.66892 2.11186 3.6877L2.17944 3.6157C2.13551 3.62822 2.11186 3.57814 2.02401 3.64388C2.07807 3.6157 2.122 3.56248 2.12876 3.53431L2.00035 3.62196C1.87871 3.61257 2.18282 3.42474 2.08483 3.39657L2.21999 3.36213C2.18958 3.36839 2.27405 3.25257 2.20985 3.2557C2.09497 3.33709 1.95305 3.43413 1.86182 3.49674C1.78072 3.50614 1.95981 3.37466 1.82127 3.4404L1.99022 3.36839C2.03077 3.34335 2.12876 3.1837 2.07807 3.13987C2.01049 3.143 1.81789 3.23691 1.80775 3.33396C1.78072 3.31205 1.80775 3.22439 1.90574 3.1743C1.81451 3.15552 1.80437 3.28387 1.69287 3.29952C1.74017 3.21813 1.77734 3.07413 1.84154 2.94891L2.06118 2.83621L2.03077 2.80491C2.20985 2.71726 2.11524 2.68908 2.28081 2.57638C2.28081 2.53569 2.20647 2.55447 2.14565 2.57012C1.98008 2.8456 1.75707 2.79552 1.56447 3.00839C1.41917 2.98022 2.02063 2.48247 1.59826 2.7016C1.55771 2.76734 1.35497 2.87378 1.46986 2.87065C1.43607 2.79865 1.21981 3.03343 1.24346 2.88943C1.37862 2.855 1.40565 2.64212 1.60164 2.59204C1.5273 2.65152 1.58812 2.67656 1.61853 2.6703C1.67597 2.57325 1.83478 2.47934 1.77734 2.42612C1.72328 2.4136 1.66921 2.3729 1.56785 2.47934C1.44958 2.59204 1.63542 2.5169 1.49013 2.60769C1.37862 2.58264 1.55095 2.40108 1.30766 2.57325C1.36849 2.5983 1.2536 2.72352 1.16913 2.79865H1.06776L1.15899 2.73291C1.13534 2.60456 0.99004 2.8456 0.932598 2.75169L1.05424 2.57012C1.20967 2.46056 1.1083 2.73291 1.3178 2.51377C1.27725 2.45743 1.14547 2.54821 1.15561 2.44803C1.18602 2.44177 1.20629 2.44803 1.23671 2.44177C1.22657 2.41673 1.50364 2.12873 1.25698 2.21951C1.15223 2.24768 1.16913 2.28525 1.08465 2.36038C0.976524 2.30716 0.868397 2.36038 0.800818 2.32595C0.973145 2.18507 0.723101 2.22577 0.946114 2.12559C0.878534 2.23829 1.00694 2.3416 1.1894 2.22264C1.35159 2.01603 1.22657 2.30716 1.43944 2.14438C1.37862 2.07864 1.57122 1.90646 1.68273 1.78124C1.67259 1.7562 1.60164 1.7875 1.57122 1.79689C1.4462 1.89707 1.47323 1.91898 1.35159 2.03168C1.31104 1.93464 1.17251 1.92837 1.02045 1.99725C1.05424 1.92211 1.17926 1.81881 1.21981 1.83759C1.09817 1.7875 1.02045 1.68733 0.973145 1.57776C0.834607 1.80316 0.834607 1.53393 0.712964 1.7155C0.712964 1.79689 0.618353 1.95655 0.506847 2.01603C0.489952 1.97846 0.591321 1.9409 0.621732 1.89081C0.483194 1.95342 0.733238 1.6842 0.533878 1.80629C0.675795 1.82194 0.780544 1.60594 0.946114 1.48072C0.804197 1.50576 1.05424 1.38367 0.996798 1.33045C0.854881 1.3555 0.719722 1.34924 0.625111 1.32106C0.685932 1.11445 0.425751 1.1301 0.348035 1.06749C0.385203 0.964187 0.581184 0.829577 0.567668 0.763837C0.516984 0.72314 0.418993 0.964187 0.42913 0.829577L0.469678 0.804533C0.408856 0.820185 0.456162 0.579138 0.192602 0.78262L0.398719 0.632357C0.398719 0.604182 0.348035 0.632357 0.317624 0.638618C0.375066 0.582269 0.415614 0.519659 0.476436 0.500876C0.557531 0.344353 0.36493 0.435136 0.310866 0.39444L0.233149 0.52279C0.0675795 0.52592 0.118264 0.375657 0.00337897 0.338092L0.111506 0.241047L0 0.256699C0.114885 0.172176 0.138538 0.072001 0.0270318 0.12835L0.408856 0C0.378445 0.0907839 0.243286 0.0845229 0.162191 0.200351C0.0878534 0.300526 0.189223 0.341222 0.304108 0.25983C0.287213 0.222264 0.26356 0.244177 0.202739 0.25983C0.341277 0.115828 0.378445 0.159654 0.49671 0.0876534C0.476436 0.0782619 0.500089 0.0187829 0.449404 0.0594791C0.550773 0.0187829 0.591321 0.0344353 0.642006 0.0751315C0.550773 0.0970448 0.567668 0.175307 0.513605 0.203481C0.648764 0.0876534 0.733238 0.0907839 0.756891 0.181568C0.648764 0.360005 0.963009 0.19409 0.99004 0.297395C0.831228 0.39444 0.689311 0.45705 0.5947 0.469572C0.571047 0.569747 0.645385 0.510268 0.621732 0.610443C0.739996 0.538442 0.905566 0.413223 1.02045 0.410093L0.92584 0.504007C1.02721 0.504007 1.16913 0.372527 1.20629 0.45705C1.2705 0.604182 1.382 0.710619 1.45634 0.798272L1.36173 0.892186C1.61515 0.745054 1.59488 0.967318 1.75031 0.939144C1.76383 1.12384 2.07807 1.07062 1.96656 1.2741C2.23012 1.38054 2.47003 1.46819 2.63222 1.68107L2.45652 1.78124C2.59505 1.71863 2.39907 1.87829 2.45652 1.89081C2.53085 1.74994 2.64912 1.80002 2.76062 1.74368C2.74035 1.92524 2.97012 1.91898 3.14583 1.9002L3.05122 1.99411C3.3114 1.89707 3.2472 2.13186 3.31478 2.25081C3.28437 2.29777 3.21341 2.39795 3.25396 2.41673C3.46345 2.31968 3.48035 2.35725 3.65605 2.33847C3.7135 2.39169 3.76756 2.51377 3.76418 2.62334C4.19669 2.61708 4.27441 2.94891 4.6292 3.03343L4.53121 3.15239C4.99075 3.12735 5.03468 3.57501 5.34216 3.63135L5.12929 3.79414C5.12929 3.90371 5.31175 3.86927 5.43677 3.7284C5.43677 3.83797 5.67668 3.77536 5.55166 3.95692C5.57531 4.04458 5.71385 3.94127 5.78819 3.96319C5.83211 4.14162 5.89294 4.16667 6.04161 4.23554L6.02472 4.19797C5.97065 4.22615 5.88618 4.30128 5.89969 4.33884C5.99431 4.32632 6.00106 4.5298 6.19029 4.27623C6.17339 4.51102 6.57549 4.43276 6.51129 4.70824C6.56535 4.63937 6.6059 4.65502 6.65996 4.62685C6.76809 4.72076 6.74782 4.94302 6.93704 4.92111C6.92015 4.96494 6.80188 4.99624 6.83905 5.0432C6.88973 5.0432 6.92352 4.96807 6.98772 4.96181C7.27494 5.00877 7.20736 5.39381 7.3932 5.50651C7.78854 5.64738 8.01156 5.96669 8.29539 6.19209L8.2447 6.23278C8.31228 6.21087 8.34607 6.22339 8.36635 6.25156C8.37986 6.27035 8.42379 6.34861 8.44068 6.3987C8.49137 6.50826 8.53868 6.59592 8.76169 6.55209C8.74817 6.62096 8.87995 6.69922 8.73804 6.73679C8.87657 6.74931 8.92726 6.84949 8.98132 6.94966C9.03876 7.04984 9.09621 7.14375 9.3057 7.19071C9.29557 7.17506 9.27191 7.16879 9.22461 7.16253C9.23475 7.36288 9.61995 7.4568 9.6436 7.65089C9.58954 7.63837 9.53209 7.61019 9.44424 7.61645C9.34625 7.69159 9.9646 7.73541 9.58616 7.79802C9.62671 7.83246 9.82607 7.81054 9.7889 7.78863C9.82944 7.85437 9.88013 7.91698 9.94433 7.97959C9.5963 8.27385 9.44086 8.61508 9.13338 8.97821C8.64342 9.18169 8.60288 8.76847 8.5995 9.08152C8.52854 9.069 8.69411 9.15352 8.63329 9.12221C8.61977 9.25056 8.20078 9.05647 8.28525 9.19734C8.46772 9.285 8.33594 9.29439 8.42717 9.36326C8.28863 9.40709 8.18388 9.40709 8.10955 9.41961C8.04197 9.42587 8.01831 9.44152 8.02507 9.53231L7.95749 9.46031C8.06224 9.74205 7.83923 9.74831 7.99128 10.0457C7.48443 10.5935 7.09247 11.2009 6.58563 11.7236C6.0112 12.1713 5.60234 12.7504 4.94006 13.1292C4.62244 13.0697 4.61906 13.0823 4.55824 13.2826C4.53121 13.2482 4.53459 13.2357 4.49742 13.2169C4.64609 13.3671 4.41632 13.3202 4.55148 13.4704C4.32509 13.627 4.18317 13.8367 3.98044 14.0277C3.99733 13.9807 3.88244 13.8492 3.85541 13.8931L3.91623 14.0214L3.86555 13.987C3.86555 14.0339 3.90948 14.131 3.98719 14.1529C3.60875 14.7539 2.79104 14.9293 2.32812 15.4301C2.14227 15.4802 2.03414 15.6931 1.93615 15.8434C1.34145 16.0061 0.827849 16.1689 0.584563 16.6667C0.584563 16.6667 0.22977 16.2441 0.29735 16.0093L0.293971 16.0061Z" fill="#FFFDEB"/>
</svg>
