<svg xmlns="http://www.w3.org/2000/svg" width="100%" viewBox="0 0 412 60" fill="none" class="svg-btn"><path d="M294.721 53.88C292.38 53.8647 293.622 54.5903 293.125 55.0077C290.33 55.2131 291.831 54.4722 290.881 54.1007C289.137 54.293 281.096 54.9596 272.421 54.9312C272.323 54.811 272.071 54.7673 272.368 54.6187C270.524 55.1956 280.898 54.6471 271.376 55.3727C271.217 55.3093 271.135 55.2481 271.095 55.1935C271.442 55.5584 271.498 55.9278 271.425 56.1901C270.375 56.2032 269.477 56.649 269.084 56.1748C269.727 56.1879 269.78 55.9977 270.081 55.8491L268.982 56.0567C267.991 55.3749 270.483 55.8207 270.483 55.3137C268.339 55.5366 259.137 56.1005 257.495 55.9081C257.152 55.2394 261.337 55.683 259.144 55.0886L261.686 55.3443C259.743 54.2908 269.935 55.4186 261.445 54.2908C258.101 54.0963 251.705 54.6318 241.664 54.4373C240.912 54.8088 248.614 54.9858 241.16 55.3574C236.418 56.024 237.426 53.6767 227.237 54.5684C226.335 55.0142 225.983 55.8579 223.501 55.412L224.347 54.6558C221.109 54.5815 209.093 55.742 205.7 55.2328C206.303 54.9356 214.947 54.9815 214.459 54.8919C212.261 54.2952 206.202 55.3202 204.513 55.3202L204.163 54.6514C200.715 54.7564 190.214 55.2394 179.693 55.3617C179.905 55.1629 180.56 54.953 179.666 54.7498C174.852 55.0842 159.33 54.6689 154.685 54.2712L146.207 54.8481C145.794 54.8416 145.442 54.5881 145.889 54.4744C144.078 54.2559 145.796 54.8394 144.925 55.0667C143.895 55.106 143.563 54.7345 144.218 54.5618C141.023 55.0514 155.081 55.6153 145.013 54.9989L145.67 54.8285C143.048 54.5946 138.69 56.0108 136.258 55.4732L136.725 55.3705C131.037 55.1192 120.036 55.648 108.991 54.7782C108.167 55.6109 103.361 54.4067 102.996 55.5672C99.7483 54.9924 93.9738 54.7848 89.3999 54.3979C88.1774 54.3455 87.5783 55.1213 86.0684 55.2437L86.0308 54.6383L83.9793 55.2743L82.8873 54.5487L74.7672 54.7039C82.0339 54.7389 82.6706 54.9771 82.5844 55.1519C80.3715 55.4251 82.495 54.7301 82.4398 54.4176L67.1504 54.9312C67.2675 54.6864 71.4945 54.6034 72.1886 54.4482C69.3943 55.0667 68.3286 53.81 65.7687 54.3761C66.1113 54.5138 65.583 54.7367 65.5255 54.8591C64.2477 54.4919 56.6292 54.4897 54.4782 54.6427L54.8916 54.2253C51.0074 54.1182 53.3363 54.4263 48.9769 54.4176C50.5398 54.6121 50.1817 55.3377 48.9039 55.4055L48.3932 54.7651C47.5687 55.1607 49.7285 55.0077 48.0351 55.4929C46.4081 55.4186 46.9408 54.7651 47.8759 54.5553L37.1835 54.7782C37.0663 54.5859 46.2445 54.4853 46.3661 54.2428C45.5547 54.6405 36.2237 53.6002 35.052 54.2908L34.9415 54.1007C34.3977 54.1029 33.8892 54.1051 33.4117 54.1094C33.1729 54.1138 32.9408 54.116 32.7153 54.1204C32.5097 54.1204 32.3108 54.1204 32.1162 54.1204C31.3514 54.1357 30.666 54.0985 30.0006 54.0723C29.669 54.0461 29.3441 54.0198 29.0147 53.9936C28.6875 53.9652 28.3625 53.9106 28.0265 53.8668C27.6905 53.8275 24.6688 53.7554 24.3151 53.6854C24.1383 53.6483 23.957 53.6133 23.7713 53.574C23.5878 53.5259 23.3999 53.4756 23.2076 53.4232C23.1037 53.6767 22.75 53.7029 22.2946 53.657C21.8436 53.598 21.2754 53.5193 20.7405 53.5346C19.6307 53.0298 18.5431 52.3413 17.4532 51.5851C16.3655 50.8224 15.2713 49.9919 14.1504 49.1067C13.2927 48.5691 13.1026 48.5516 13.012 48.639C12.9235 48.7221 12.9302 48.9166 12.477 48.7243C12.5344 48.6063 12.4438 48.3921 12.2979 48.156C12.152 47.92 11.9464 47.6577 11.7939 47.4195C11.48 46.954 11.3009 46.6568 11.9486 47.0633C11.7961 46.9125 11.6502 46.7682 11.5109 46.6305C11.3716 46.4929 11.25 46.3486 11.1262 46.2175C10.8831 45.9487 10.6465 45.7104 10.4454 45.4613C10.2376 45.2187 10.0408 44.987 9.84627 44.7597C9.66057 44.5259 9.47708 44.2942 9.28697 44.056C9.09022 43.8243 8.91557 43.5686 8.7144 43.3063C8.61492 43.1752 8.51102 43.0397 8.40491 42.8998C8.30543 42.7556 8.20153 42.6048 8.0932 42.4496C7.98488 42.2944 7.86993 42.1305 7.75276 41.9622C7.63338 41.7918 7.52506 41.606 7.40126 41.4159C7.27968 41.2235 7.15146 41.0225 7.01882 40.8127C6.89502 40.5963 6.76459 40.369 6.62753 40.1286C6.63416 40.6465 6.78006 41.182 6.50594 40.9984C6.30035 40.6465 6.15223 40.2029 6.10139 39.851C6.0616 39.4948 6.10139 39.2347 6.23845 39.2434L6.36446 39.4205C5.70568 38.3561 5.2967 37.0666 5.06679 35.7225C4.83688 34.3762 4.79488 32.9753 4.88552 31.6269C4.89436 31.2903 4.93194 30.9559 4.96289 30.6259C4.99605 30.2959 5.01374 29.9702 5.06237 29.6511C5.10437 29.3299 5.14196 29.0151 5.1729 28.7048C5.22154 28.3966 5.26575 28.0928 5.29891 27.7956C5.32765 27.4962 5.37629 27.2077 5.40945 26.9236C5.44703 26.6395 5.45808 26.3575 5.48903 26.0865C5.54872 25.5445 5.5443 25.0178 5.53767 24.5239V24.7446C5.63051 23.4049 5.86485 22.0673 6.19202 20.7363C6.5811 19.8796 6.56342 20.1812 6.55236 20.5418C6.54131 20.9046 6.5391 21.3199 6.93481 20.7516C6.96134 20.6183 6.98345 20.485 7.01439 20.3561C7.04977 20.2293 7.08293 20.1025 7.11609 19.978C7.18683 19.7288 7.25978 19.4884 7.33494 19.2545C7.51401 18.7978 7.68644 18.3607 7.89424 17.9585C8.30764 17.1543 8.77409 16.4571 9.26928 15.8145C10.2641 14.5251 11.3119 13.4388 12.4151 11.9942C12.7997 11.8893 13.1888 11.7013 13.611 11.485C13.8211 11.3735 14.0289 11.2446 14.2455 11.1069C14.4666 10.9779 14.6921 10.8359 14.9198 10.6829C15.8372 10.0862 16.8342 9.35845 17.9307 8.71591C19.0206 8.0668 20.1834 7.46141 21.3307 7.04835C21.6181 6.94563 21.9055 6.86257 22.184 6.77952C22.3233 6.74018 22.4626 6.69866 22.5996 6.66369C22.7389 6.63528 22.876 6.60905 23.013 6.58283C23.2849 6.53256 23.548 6.49103 23.8022 6.46262C24.0609 6.44732 24.3085 6.44077 24.5428 6.44732L24.2554 6.15446C24.6843 5.87908 24.9827 5.8616 25.2569 5.92498C25.531 5.9818 28.462 6.09545 28.8113 6.0736C28.6742 5.82226 27.7347 5.94465 28.2918 5.65398C28.7892 5.52721 29.2998 5.45728 29.8127 5.37204C30.067 5.32396 30.3278 5.31085 30.5865 5.28243C30.8451 5.25839 31.106 5.22998 31.3646 5.2125C31.6255 5.20376 31.8885 5.19501 32.1494 5.18627L32.5429 5.17534H32.9674C33.5399 5.17971 34.1147 5.18408 34.6917 5.18846C36.9952 5.22124 46.0455 5.30866 48.3778 5.41794C53.0423 5.63868 51.1047 5.95121 55.7095 6.10857C65.7816 6.20254 62.3355 4.29676 66.5822 5.13382L65.3774 5.78292C72.1774 5.00487 84.0302 5.80915 90.6865 5.14912C90.2908 5.29992 90.2775 5.49443 89.6298 5.49225C91.0358 5.96432 101.532 5.5141 101.554 5.12945C102.591 5.17316 101.795 5.47695 102.434 5.67364C103.845 5.95121 105.974 5.07044 106.723 5.54033C106.851 5.61682 106.327 5.69331 106.069 5.73047C106.988 5.50099 117.054 5.78948 116.174 5.24309C118.672 5.50317 118.964 5.0005 120.956 5.32396C122.256 4.7142 131.934 5.61682 132.348 4.75572C132.169 5.64523 140.749 5.47258 142.33 5.05514C141.801 5.32396 143.702 5.3327 143.083 5.70643C144.885 5.69331 153.242 5.5294 146.223 5.07262C156.246 6.13698 135.613 4.21589 137.483 5.57967C142.838 5.10104 165.222 4.77758 170.037 4.56995C169.862 5.45728 158.01 4.65956 158.216 5.59059C169.488 5.22561 175.475 4.46286 180.007 4.67704C181.181 4.79725 179.341 5.0617 175.592 5.2125C190.212 4.84751 201.177 5.29336 205.238 4.81036C205.227 4.89341 204.789 4.98302 204.373 5.05077C205.174 5.02236 206.235 5.1819 206.144 4.77758L205.364 4.88685C204.086 4.30113 215.246 3.66514 215.389 3.35479C214.03 4.51094 226.105 3.64547 223.947 5.10541C224.473 5.02891 225.134 4.83877 225.015 4.56776C225.798 4.64644 226.045 4.8038 225.252 5.11196C228.119 4.89341 233.803 4.46286 236.402 4.47379C236.394 4.6683 229.167 4.74479 228.897 4.97427C236.915 4.59399 238.237 4.21371 240.432 4.37762C240.3 4.49564 240.556 4.64863 239.9 4.64644C250.374 4.58743 265.732 3.63236 269.868 3.99953C268.648 4.84751 271.274 4.27927 271.495 5.01361L281.093 4.79506L272.826 4.43882C282.147 4.45193 269.865 3.91648 271.541 4.15688L290.8 4.45849L281.118 4.31861L271.678 4.04105C281.023 3.66295 278.839 3.1122 281.434 3.31545C280.908 3.38976 290.087 3.3242 291.102 3.75693H291.095C292.059 3.52308 293.052 3.27611 294.491 3.4597C294.864 3.69355 294.19 4.27272 294.433 4.42789C295.384 3.81376 305.699 4.25742 306.904 3.60394C306.502 3.75693 306.482 4.14377 306.614 4.22026L305.423 3.72196C306.325 3.88151 306.458 3.958 306.312 4.26616C311.708 4.35795 308.131 3.33512 311.352 3.73508C311.1 3.77442 311.219 3.84872 310.693 3.92522C320.633 4.13503 319.006 3.60832 321.982 3.85309C322.859 4.59181 319.384 4.03449 320.388 4.65737C330.039 4.52405 341.368 3.77223 345.517 3.94489L344.743 3.86402C345.318 2.82152 362.218 4.37981 364.316 3.88806C363.803 3.96456 360.96 4.46723 361.1 4.3514C369.973 4.51968 372.971 4.09569 377.277 3.76567L376.745 4.03449C378.418 4.27272 381.155 4.17218 382.963 4.29457C383.5 4.02794 384.535 4.07165 383.905 3.68044C384.254 3.7766 384.599 3.85528 384.944 3.92303C385.282 3.99515 385.605 4.05853 385.932 4.1088C386.094 4.13066 386.257 4.1547 386.419 4.17655C386.58 4.20497 386.739 4.22901 386.898 4.25305C387.217 4.30113 387.537 4.32517 387.851 4.36888C387.124 4.5175 388.366 4.64207 389.602 4.8191C390.825 5.02454 392.043 5.27806 393.177 5.7261C394.302 6.18287 395.368 6.78171 396.219 7.66029C395.973 7.52261 395.653 7.40677 395.443 7.3565C395.228 7.31498 395.129 7.32809 395.326 7.42863C396.533 7.98812 397.702 8.63504 398.827 9.3672C398.852 8.80551 398.566 8.84048 398.069 8.0515C398.359 8.08866 398.774 8.23509 399.225 8.44709C399.663 8.67657 400.14 8.96943 400.538 9.29944C399.709 8.823 399.597 8.98473 399.751 9.32348C399.913 9.65787 400.293 10.2261 400.505 10.5714C400.499 10.3813 400.808 10.4425 400.852 10.2939C401.365 11.3101 401.571 11.2074 401.9 11.1484C402.064 11.1178 402.245 11.1069 402.493 11.2577C402.616 11.3342 402.756 11.45 402.917 11.627C402.997 11.7166 403.085 11.8172 403.174 11.9396C403.26 12.0641 403.35 12.2062 403.445 12.3679L403.163 12.4073C403.366 12.593 403.576 12.7679 403.788 12.9405C403.998 13.1154 404.197 13.299 404.403 13.4847C404.818 13.8497 405.185 14.2737 405.508 14.7786C405.353 15.4779 404.624 13.9612 404.221 14.1688C404.478 14.4901 404.761 14.7873 405.073 15.0649C405.38 15.3468 405.68 15.6331 405.979 15.9216C406.554 16.5073 407.055 17.1477 407.157 17.9432C406.925 17.6635 406.706 17.2941 406.45 16.9444C406.198 16.5926 405.961 16.2341 405.7 15.985C405.795 16.4046 405.848 16.7368 405.919 16.9969C405.986 17.2613 406.056 17.4602 406.131 17.6438C406.264 18.0175 406.443 18.3126 406.66 18.8633L406.624 18.7519C406.77 19.1868 406.923 19.6173 407.058 20.0501C407.177 20.4894 407.314 20.9221 407.418 21.3614C407.403 21.1232 407.361 20.8937 407.33 20.6577C407.851 20.9964 408.183 21.4313 408.457 21.9034C408.598 22.1373 408.691 22.393 408.786 22.6509C408.877 22.9109 408.965 23.1776 409.034 23.4551C409.164 24.0103 409.299 24.5894 409.443 25.197C409.514 25.5008 409.624 25.809 409.717 26.1302C409.817 26.4493 409.943 26.7772 410.1 27.1159C409.799 26.4581 409.615 26.1171 409.498 25.9598C409.374 25.8046 409.324 25.8352 409.297 25.9401C409.233 26.1521 409.237 26.6591 408.926 26.5979C408.868 27.3061 408.738 28.3573 408.552 28.0732C408.857 28.6829 408.755 29.2228 408.707 29.8129C408.683 30.1079 408.634 30.4183 408.656 30.7679C408.663 30.9428 408.689 31.1264 408.724 31.3252C408.753 31.5241 408.802 31.7339 408.873 31.9656C408.771 31.9984 408.744 32.3372 408.676 32.6235C408.596 32.9098 408.488 33.1436 408.265 32.9753C408.209 34.6101 408.647 32.6388 408.875 32.7939C409.072 34.1052 408.587 35.5914 407.968 37.1125C407.341 38.6468 406.576 40.2051 406.109 42.0387C405.972 42.4168 405.82 42.7447 405.707 43.0572C405.65 43.2146 405.592 43.3632 405.539 43.5074C405.481 43.6495 405.428 43.7872 405.378 43.9183C405.276 44.1827 405.187 44.4341 405.103 44.6767C405.013 44.9149 404.924 45.1422 404.838 45.3673C404.672 45.8284 404.478 46.2656 404.226 46.7595C404.104 47.0108 403.956 47.2643 403.779 47.5354C403.602 47.8042 403.419 48.1101 403.171 48.4139C402.692 48.6893 402.716 48.4096 402.851 48.073C402.921 47.9069 403.012 47.7146 403.083 47.5659C403.156 47.4195 403.216 47.3146 403.216 47.3146C403.052 47.4457 402.899 47.5791 402.749 47.7058C402.594 47.8282 402.448 47.9528 402.307 48.0752C402.026 48.3221 401.772 48.5713 401.511 48.8117C401.252 49.0521 401.018 49.3187 400.764 49.5745C400.51 49.8323 400.262 50.1099 399.997 50.4006C400.136 50.0728 399.791 50.1733 399.283 50.2869C399.048 50.4858 398.916 50.6519 398.827 50.8005C398.737 50.947 398.686 51.0737 398.62 51.2027C398.553 51.3316 398.471 51.4584 398.308 51.5983C398.226 51.6682 398.127 51.7425 397.998 51.8212C397.87 51.8977 397.709 51.9698 397.516 52.0528C397.576 51.8867 397.636 51.6857 397.724 51.4628C397.808 51.2333 397.921 50.9819 398.096 50.7284C397.037 51.6944 395.995 52.7522 394.693 53.5674C394.439 53.5084 394.589 53.2899 394.841 53.0363C395.096 52.7806 395.458 52.4965 395.626 52.2627C395.54 52.3217 395.452 52.3829 395.359 52.4462C395.264 52.5053 395.166 52.5643 395.067 52.6255C394.868 52.7478 394.66 52.8768 394.45 53.0079C394.028 53.2636 393.579 53.5062 393.175 53.7576C392.759 53.9849 392.379 54.2143 392.08 54.4263C391.778 54.623 391.556 54.811 391.472 54.9793C391.839 54.9181 392.217 54.8744 392.582 54.7913C392.003 55.0448 392.125 54.481 392.514 54.2253C392.812 53.9936 393.091 53.8515 393.332 53.7466C393.573 53.6395 393.789 53.5893 393.975 53.5718C394.349 53.539 394.603 53.6439 394.682 53.7073C394.373 53.8996 394.054 54.081 393.738 54.269C394.108 54.4089 394.554 54.3651 395.025 54.175C395.494 53.9739 396.007 53.6723 396.499 53.2746C397.006 52.9008 397.49 52.4375 397.972 52.0179C398.208 51.8037 398.436 51.5851 398.668 51.3906C398.783 51.2923 398.898 51.2005 399.013 51.1131C399.124 51.0191 399.234 50.9317 399.345 50.8508C399.309 51.0519 399.272 51.2551 399.232 51.4584L399.095 52.0572C399.219 51.8999 399.345 51.7469 399.464 51.5851L399.813 51.0978L400.156 50.6148C400.269 50.453 400.37 50.2826 400.479 50.1187C400.981 49.97 401.553 50.0859 400.782 50.9076C401.533 50.5339 401.765 50.2432 401.953 49.9613C402.05 49.8236 402.143 49.6925 402.296 49.5548C402.448 49.4193 402.658 49.2772 402.981 49.1002C403.14 49.0368 403.12 49.1155 403.043 49.2422C403.357 48.8008 403.669 48.3659 403.947 47.9091C403.87 48.2566 404.568 48.0905 403.819 48.7505C404.109 48.5232 404.358 48.2828 404.591 48.0468C404.825 47.8129 405.017 47.5681 405.192 47.3255C405.367 47.0851 405.523 46.8513 405.661 46.624C405.791 46.3923 405.908 46.1694 406.019 45.9574C406.127 45.7454 406.233 45.5531 406.326 45.3651C406.417 45.1772 406.507 45.0067 406.602 44.8515C406.792 44.5434 407.009 44.3095 407.274 44.15L407.197 44.386C407.42 43.9336 407.582 43.5861 407.694 43.3173C407.805 43.0485 407.856 42.8496 407.884 42.7119C407.938 42.4343 407.865 42.3819 407.765 42.3469C407.668 42.3141 407.542 42.301 407.487 42.113C407.458 42.0191 407.449 41.8836 407.464 41.6825C407.482 41.4814 407.509 41.2039 407.579 40.8432C408.316 40.4651 409.005 40.028 409.728 39.5647L409.284 38.9921C409.361 38.802 409.474 38.52 409.593 38.3124C409.715 38.1048 409.819 37.9627 409.918 38.072C409.94 36.4897 409.593 38.2446 409.461 37.2918C409.739 36.8656 409.916 36.3105 410.069 35.7269C410.153 35.4362 410.192 35.1303 410.248 34.833C410.294 34.5314 410.354 34.2364 410.385 33.9501C410.418 33.6638 410.453 33.3884 410.495 33.1349C410.517 33.0081 410.539 32.8857 410.564 32.7721C410.584 32.6562 410.606 32.547 410.63 32.4442C410.73 32.0377 410.884 31.7471 411.134 31.6509C410.727 30.9275 410.635 33.4911 410.473 31.3952C410.999 31.1264 410.984 30.5079 410.867 29.7539C410.798 29.3758 410.716 28.9649 410.67 28.5365C410.606 28.1081 410.586 27.6645 410.67 27.2055C411.247 27.6994 411.097 29.4588 411.435 27.5989C411.311 27.47 411.218 27.3192 411.147 27.1509C411.072 26.9826 411.013 26.7968 410.975 26.5958C410.893 26.1958 410.895 25.7368 410.873 25.2648C410.858 24.7905 410.873 24.2922 410.82 23.8245C410.776 23.3568 410.721 22.9088 410.562 22.5503C410.195 22.6093 409.925 21.8204 409.523 20.7516C409.432 20.4806 409.317 20.1987 409.198 19.9037C409.076 19.6108 408.968 19.2983 408.824 18.9988C408.683 18.6972 408.537 18.3913 408.386 18.0918C408.234 17.7946 408.055 17.5127 407.884 17.2417C408.028 17.2613 407.579 16.1292 406.812 14.7895C406.717 14.6212 406.622 14.4464 406.52 14.2737C406.414 14.1032 406.304 13.9306 406.196 13.7557C406.085 13.5809 405.974 13.4061 405.866 13.229C405.753 13.0542 405.632 12.8881 405.519 12.7198C405.068 12.0401 404.588 11.4303 404.235 10.9255L404.372 10.8993C404.157 10.932 403.89 10.8424 403.596 10.6676C403.3 10.4949 402.981 10.2327 402.619 9.9551C402.265 9.67099 401.894 9.34316 401.5 9.04374C401.306 8.89075 401.111 8.73995 400.921 8.59133C400.724 8.44927 400.527 8.31814 400.339 8.19356C400.503 8.04495 400.675 7.98812 400.923 8.02528C401.173 8.06025 401.485 8.20231 401.929 8.45801C401.706 8.27224 401.491 8.07773 401.264 7.89852L400.576 7.36525C400.459 7.34776 400.342 7.32154 400.213 7.28001C400.085 7.24286 399.946 7.19477 399.791 7.12921C399.639 7.06364 399.468 6.98278 399.278 6.88224C399.088 6.77952 398.878 6.65932 398.628 6.53256C398.849 6.46044 399.077 6.38394 399.298 6.32056C398.314 5.6955 397.233 5.21468 396.068 4.76446C395.494 4.52187 394.886 4.30769 394.271 4.04105C393.962 3.90992 393.641 3.78971 393.323 3.6411C393.002 3.49248 392.673 3.34168 392.335 3.18651C392.173 3.40069 392.615 3.90992 392.693 4.29676C392.733 4.48909 392.69 4.64426 392.458 4.70327C392.224 4.76665 391.795 4.75353 391.072 4.59836C391.05 4.30987 391.079 3.82031 391.87 3.96893C391.74 3.94489 391.503 3.92303 391.24 3.87714C390.975 3.84217 390.683 3.77879 390.447 3.65203C390.876 3.61706 391.318 3.56679 391.751 3.56023C391.453 3.40288 391.251 3.34605 391.103 3.33294C390.957 3.31764 390.867 3.34824 390.783 3.38539C390.615 3.4597 390.478 3.56023 389.978 3.3985C390.097 3.02696 389.282 2.95484 389.503 2.68821C389.64 2.70132 389.859 2.79093 390.097 2.87179C390.332 2.9614 390.586 3.04663 390.805 3.02696C390.237 2.81715 389.602 2.60297 389.058 2.37349C388.515 2.14619 388.048 1.9495 387.831 1.75717C387.867 1.87519 387.843 2.00413 387.703 2.09156C387.633 2.13527 387.533 2.16805 387.396 2.18335C387.259 2.20302 387.082 2.21176 386.861 2.19646C385.727 2.05877 387.528 1.95387 387.464 1.79651C387.398 1.64571 387.458 1.47523 386.783 1.32662C386.206 1.5561 384.721 1.2545 384.705 1.8424C384.06 1.84022 383.94 1.56921 383.69 1.41185C382.548 1.66756 378.352 1.48616 379.641 2.10248L379.935 2.14401C379.879 2.15494 379.815 2.15712 379.747 2.17023C376 2.74722 374.617 1.8424 368.218 2.08937L368.225 1.89486C366.005 2.11778 345.55 2.02599 343.965 2.44343C343.309 2.44343 342.415 2.08937 342.696 1.8577C341.001 2.00413 337.459 2.22269 338.323 1.90141C336.712 1.56266 327.716 1.59981 330.053 1.65226C327.849 1.48398 337.368 1.17363 325.618 1.70472C329.104 1.20641 321.277 1.07747 313.526 1.22608L321.774 1.58233C320.596 1.65445 312.863 1.61074 311.817 1.56921L312.383 0.915739C307.873 0.120204 310.881 2.27077 304.766 0.937594C303.573 1.39437 307.216 1.25887 306.148 1.79432C304.074 1.7069 295.209 0.767122 294.559 0.764937C291.719 0.402138 291.909 1.7222 288.933 1.47305C289.313 1.7069 289.674 2.32978 280.747 2.54833C278.671 2.46091 270.822 1.56921 272.133 1.38126C272.631 1.36159 272.872 1.4359 272.85 1.51457C280.893 1.42934 281.775 1.3288 280.952 1.07747L280.683 1.31132C279.653 1.0731 290.13 1.09714 290.802 0.714669C289.233 0.937594 269.425 1.09714 270.586 1.21953C267.924 0.88077 280.43 1.2086 270.315 0.981304C270.75 1.11025 271.153 1.38344 270.717 1.38126C266.696 1.09277 268.947 1.82492 259.52 1.92545C257.972 1.56921 260.075 1.07528 257.334 1.3747C255.66 1.13429 256.98 0.756195 257.645 0.566053C255.147 1.01627 240.273 0.271006 238.847 0.187956L240.163 0C239.376 0.111462 238.73 0.109277 238.076 0.107091L238.828 0.574795C238.056 0.493931 237.402 0.491745 237.415 0.297233C236.619 0.603207 238.025 1.0731 236.444 1.49272C235.414 1.2545 226.604 1.74624 226.249 1.12774C229.489 1.33755 225.89 0.504858 228.632 0.406509C228.103 0.480817 227.458 0.478632 226.682 0.395582C226.565 0.325644 226.792 0.266635 227.002 0.231667C223.903 -0.321273 225.579 0.933223 215.661 0.917924C216.07 0.568239 214.916 0.255707 214.392 0.330016C215.688 0.336572 215.011 0.913553 213.824 1.18019C211.764 0.909182 204.882 1.38344 203.803 1.35066L205.034 1.47961C204.617 1.82929 203.586 1.7834 195.449 1.89267C195.325 1.62167 203.456 1.7069 202.943 1.5867C201.349 2.20083 192.637 0.950707 190.415 1.36377C189.385 1.12774 190.315 0.708113 182.708 0.546383C180.217 0.998789 180.009 0.0677515 174.04 0.441478C174.794 0.911367 174.927 0.795534 173.083 1.2545L180.741 0.924481L174.626 1.60637C179.277 1.61292 180.719 1.31132 181.497 1.39218C180.179 1.77465 180.316 1.65882 180.938 2.04784C179.16 1.3441 174.06 2.45872 172.006 1.98228L172.068 0.819575C168.978 0.301604 159.876 1.41623 155.864 1.12336L157.153 1.32443C156.615 1.78558 154.674 1.38781 153.377 1.57577C153.498 1.18674 145.982 1.04687 145.427 0.804276C145.493 1.09277 138.469 0.77805 138.104 1.55391L136.314 1.0425C133.073 0.832688 132.615 2.14838 122.8 2.01725C123.737 1.59544 122.322 1.32006 124.409 1.01846C123.37 1.01409 122.435 0.944151 122.417 1.21297C121.809 0.970377 143.521 1.73531 142.564 1.36814C142.126 1.53862 137.961 1.94512 136.793 1.91234C136.665 1.83366 136.798 1.72001 136.798 1.72001C136.793 1.91234 134.97 1.98228 135.991 2.41064C132.788 1.19986 120.335 2.49806 117.547 1.45775C115.277 1.58888 107.831 1.71346 105.77 1.74187C105.903 1.62604 105.777 1.54736 106.166 1.58888C103.325 1.22827 104.419 2.7035 101.185 2.30137C99.5339 1.67412 102.903 1.96261 101.873 1.72439C101.424 0.445849 91.2679 1.89923 89.0904 1.15178L89.6165 1.07747C87.9541 0.642547 85.5577 1.56047 82.8408 1.47086C82.8408 1.47086 82.9735 1.35722 82.8563 1.27854C80.9971 1.92983 82.7846 2.14619 73.4664 2.32759C74.2799 1.82711 74.6535 2.06314 74.1583 1.55391C72.9867 1.62604 74.501 2.36912 72.1621 2.51118C71.4016 2.23799 66.3634 1.99758 66.1379 1.45557L71.6956 1.42715C70.566 0.725597 65.4879 1.45119 64.3251 1.3288L64.4732 1.02283C61.0909 1.12336 56.3307 1.89486 52.6964 1.84022L53.0722 2.07189C51.087 2.83682 55.3861 1.64134 53.4031 2.21176L52.804 1.4359C51.4931 1.62385 50.8648 2.18553 48.5148 2.33196C49.8456 1.75717 49.9434 1.46212 51.6456 1.11899C50.3457 1.11244 49.8832 1.17582 49.2068 1.56047C49.7307 1.48616 50.3895 1.29602 50.9068 1.41404C49.3129 2.0238 47.215 2.32541 35.9123 2.31011C36.1422 1.55828 36.4447 1.46212 34.464 1.40967C33.9688 1.39656 33.4559 1.38126 32.9497 1.36814C32.8237 1.36377 32.6954 1.3594 32.5694 1.35503C32.4368 1.35285 32.3064 1.34847 32.1759 1.34629C31.9151 1.33973 31.6586 1.3288 31.411 1.31569C31.1634 1.29602 30.9247 1.28946 30.6948 1.27854C30.4671 1.26542 30.2482 1.24575 30.0448 1.21953C29.6381 1.15833 29.2866 1.09714 29.0191 0.98349C28.7162 1.05561 28.4156 1.12336 28.1127 1.18893C27.8143 1.26542 24.8324 1.33973 24.534 1.40748C23.9327 1.53206 23.3424 1.70472 22.7389 1.84022C21.5474 2.15494 20.3425 2.46747 19.1377 2.8849C16.7259 3.68699 14.2654 4.8191 11.9751 6.58064C12.5588 6.50415 12.7732 6.55223 12.7732 6.64184C12.7754 6.738 12.561 6.88224 12.3222 7.08113C11.8381 7.46797 11.2014 7.99249 11.7298 8.35092C11.2677 8.80114 10.9361 9.09182 10.7151 9.2907C10.4962 9.48959 10.368 9.57701 10.2995 9.58793C9.73352 9.93762 9.20075 10.331 8.65692 10.7244C8.38722 10.9233 8.13078 11.1375 7.8655 11.3451L7.46979 11.662L7.08956 11.9942C6.65627 12.2565 6.79775 11.9702 7.01661 11.6052C7.23325 11.2402 7.55601 10.8228 7.4079 10.7769C6.89944 11.3079 6.601 11.6402 6.37551 11.8237C6.15223 12.0117 6.01959 12.0663 5.89801 12.0926C5.65483 12.145 5.47798 12.0838 4.75951 12.8007C5.35418 12.722 4.65119 13.9721 3.67849 15.3599C3.96367 15.0649 4.23116 14.7611 4.52739 14.4813L5.40281 13.6465C5.1928 14.1185 4.99384 14.5054 4.80151 14.8354C4.61803 15.1698 4.45001 15.4495 4.27979 15.6878C3.93051 16.1598 3.63207 16.5008 3.30931 16.8373C2.98213 17.1717 2.69032 17.5323 2.38746 18.0525C2.23271 18.3126 2.09786 18.6207 1.96964 18.9923C1.84142 19.3638 1.70878 19.7922 1.62478 20.3123C1.63804 20.0851 1.64246 19.8534 1.66457 19.6261L1.73089 18.942C1.57393 19.4578 1.34844 20.19 1.08979 21.0314C0.974838 21.4554 0.859883 21.9078 0.740506 22.3733C0.629973 22.841 0.543756 23.3284 0.453119 23.8114C0.371324 24.2966 0.322689 24.7883 0.274054 25.2626C0.232052 25.7368 0.232052 26.2024 0.232052 26.6373C0.234262 26.7466 0.236473 26.8515 0.238684 26.9564C0.247526 27.0613 0.256369 27.164 0.267422 27.2645C0.287318 27.4656 0.313846 27.6579 0.342585 27.8393C0.402273 28.2021 0.477436 28.519 0.599023 28.7791C0.448697 29.1397 0.103833 29.6315 0.039723 28.6939C0.00656293 29.3277 -0.0221758 29.9811 0.0242483 30.6434C0.0441444 30.9756 0.0551977 31.3078 0.0949898 31.6443C0.139203 31.9787 0.181206 32.3131 0.22542 32.6497C0.265212 32.9863 0.338164 33.3206 0.404484 33.655C0.475226 33.9894 0.530492 34.3238 0.618919 34.6516C0.705135 34.9795 0.791352 35.3073 0.877568 35.6351C0.957152 35.963 1.07432 36.2798 1.16938 36.5968C1.95859 39.1473 3.05066 41.3787 3.67849 43.2386L3.23636 43.031C3.49722 43.4309 3.79566 43.7369 4.09631 44.0713C4.24663 44.2396 4.38812 44.4166 4.51412 44.6264C4.64013 44.8362 4.74624 45.0788 4.84573 45.3607C4.70866 45.3739 4.38591 45.1946 4.60918 45.5727C4.69761 45.6645 4.85457 45.8263 5.05132 46.0317C5.14638 46.1344 5.25249 46.2481 5.36744 46.3705C5.4824 46.4907 5.6062 46.6174 5.7322 46.7486C5.98422 47.0108 6.2274 47.3059 6.47278 47.5812C6.71595 47.861 6.9326 48.1429 7.09177 48.4139L6.16329 47.7823C7.53611 49.8629 9.07474 51.0934 10.6067 52.0485C12.1542 53.0014 13.7083 53.6964 15.5034 54.6143C15.3906 54.8001 15.5034 55.0733 15.7709 55.3967C16.0384 55.7202 16.4739 56.0633 16.9735 56.4305C17.9926 57.1233 19.3256 57.7921 20.2497 58.1527L20.1436 58.2467C22.9224 59.2476 28.1569 59.4815 30.5776 59.4181L31.0308 59.4072L31.484 59.3744C31.7846 59.3503 32.0853 59.3263 32.3859 59.3023L32.6092 59.2826L32.817 59.2586L33.2348 59.2105C33.5134 59.1799 33.7941 59.1471 34.0749 59.1165C35.2023 58.9941 34.3737 58.8783 35.6095 58.793C47.3918 59.7328 48.0871 59.1864 53.0191 59.7131C52.2653 59.5558 53.1429 59.0378 54.0183 58.9526C55.1767 59.1274 57.2172 58.3516 57.0337 59.1449L56.6203 59.1296C64.1966 59.9077 64.586 59.7022 66.4429 59.7219L66.7502 58.6838C71.6093 60.194 84.2291 58.1286 86.8797 59.4815C88.0514 59.2214 89.5038 59.2236 90.6666 58.9657L90.6047 59.523C93.8522 59.6651 102.178 59.735 106.192 59.6017L105.374 59.9995C107.638 60.0344 114.938 58.3931 117.025 58.3603L117.653 59.1908C121.603 59.1777 130.316 59.9077 134.22 59.1536C134.156 59.276 134.039 59.5164 133.4 59.5492C135.259 59.5711 144.615 60.1109 143.941 58.9701C143.988 59.7131 130.734 59.0422 132.867 58.7144L132.536 59.2629C134.337 58.5636 134.395 58.3712 136.909 58.1767C137.505 58.2488 137.43 58.616 136.639 58.4761C138.624 58.7624 142.208 57.956 144.616 58.2488L143.718 58.5985C145.761 58.64 152.302 58.4521 153.428 58.0434C154.712 57.8248 157.303 58.1811 157.606 58.6772C157.882 58.3756 159.001 57.9713 160.205 58.1133C160.367 58.3013 159.929 58.4171 159.708 58.4739C169.829 58.8477 171.491 57.8358 173.841 58.3756C173.89 58.557 174.042 58.6488 174.237 58.7034C171.522 58.6903 169.336 58.6597 169.541 58.6204C169.541 59.1252 171.734 59.2148 169.99 59.912C171.75 59.5317 178.112 58.7034 180.248 58.9417C180.352 58.9897 180.453 59.0378 180.531 59.1165L180.31 59.1733C180.803 59.2236 181.245 59.1777 181.66 59.0925C182.344 59.1755 189.478 59.2367 190.134 59.2433C190.386 59.6607 192.648 59.4684 193.742 59.4902C193.651 58.9373 195.084 59.0269 193.742 58.5701C193.917 58.6094 193.536 58.6357 192.809 58.6597C192.646 58.675 192.451 58.6838 192.343 58.7165C192.365 58.7012 192.389 58.6838 192.418 58.6685C191.699 58.6838 190.764 58.6969 189.701 58.7056C190.565 58.4237 191.467 58.1876 192.676 58.4958C193.238 58.1396 193.855 57.7746 194.202 57.6041C195.698 58.3756 205.284 58.793 205.687 59.2673C209.025 58.9569 226.956 59.0618 229.056 58.0237C236.708 57.8904 236.851 58.321 237.205 58.4849C236.657 58.5898 229.301 58.5723 229.005 58.7231C237.605 58.4565 248.033 58.6204 248.486 57.8948C250.878 58.2226 253.142 58.5636 256.429 58.4433L255.985 58.6663C269.154 59.8268 273.942 56.8129 281.112 58.3035C280.614 58.2117 280.367 58.1702 272.892 58.0478C295.141 58.7034 313.265 57.4314 321.33 58.4718C328.985 58.6816 335.935 58.2182 337.335 57.8664L337.832 58.4608L330.205 57.7746C343.651 57.2719 363.87 59.2323 368.163 58.2838L361.575 57.8839C369.151 57.9603 369.841 57.6478 369.582 58.109C369.739 58.0368 370.089 57.6937 370.69 57.9013L370.736 58.2117L377.207 57.6784C380.142 57.9035 376.747 58.911 381.033 58.9722C382.627 58.852 385.57 58.0674 384.973 57.8598C384.329 57.8445 383.33 57.6653 383.282 57.3549L384.738 57.1932C385.001 56.2775 386.122 55.3399 382.545 54.6995L380.054 55.259L379.251 54.8154L381.349 54.7869C380.16 54.3695 379.404 54.7389 378.56 54.9924C378.361 54.7564 378.009 54.5903 377.516 54.5028L375.069 55.377C374.773 55.0186 376.165 54.6667 374.525 54.4679C373.38 54.8744 375.624 55.2721 371.046 55.5388C369.854 55.1213 372.883 54.7826 374.136 55.1388C373.939 54.9028 368.901 54.752 369.456 54.6493C368.209 54.9312 368.813 54.7695 368.169 55.2547C366.927 54.7411 346.229 55.388 346.35 54.5225C345.959 54.7301 344.157 55.2022 343.012 55.2394C345.104 54.2012 342.046 55.1782 342.598 54.0657C341.051 54.9989 321.593 54.481 312.151 54.9989C312.303 54.9246 312.606 54.7738 312.847 54.8219C311.304 54.7454 310.857 54.4635 307.184 54.2865C306.985 55.058 311.907 55.2328 310.611 55.7092C308.721 54.9662 311.759 54.8044 311.166 54.0898C311.261 54.7148 305.2 54.7126 305.843 55.2328C304.397 54.7717 306.586 55.0099 305.843 54.3717C305.589 55.3355 304.497 54.5356 296.595 55.1257C294.504 54.6514 296.056 54.2231 293.759 54.5159C292.665 54.2209 294.71 53.88 294.71 53.88H294.721ZM179.688 55.5453V55.5344C180.159 55.5213 180.562 55.5104 180.816 55.5038C180.582 55.5125 180.254 55.5257 179.688 55.5453ZM171.743 55.5541C172.303 55.5759 172.999 55.5803 173.735 55.5759C173.896 55.7661 173.722 55.9628 173.26 55.954C173.51 55.8273 172.429 55.7158 171.743 55.5541ZM191.516 59.3853C190.789 59.464 190.545 59.3547 190.446 59.2411C190.789 59.2323 191.191 59.2127 191.717 59.1755C191.739 59.1558 191.781 59.1318 191.803 59.1078C191.735 59.2127 191.655 59.3132 191.516 59.3853Z" fill="#1f3068"></path><svg xmlns="http://www.w3.org/2000/svg" width="100%" viewBox="0 0 303 41" fill="none"><path d="M0.542969 20.3544C0.542969 9.41071 9.41462 0.539062 20.3584 0.539062H283.157C294.101 0.539062 302.972 9.41071 302.972 20.3544C302.972 31.2982 294.101 40.1698 283.157 40.1698H20.3584C9.41462 40.1698 0.542969 31.2982 0.542969 20.3544Z" fill="#1f3068"></path></svg></svg>